<?xml version="1.0" encoding="utf-8"?>
<svg xmlns="http://www.w3.org/2000/svg" viewBox="0 0 32 32" width="64" height="64">
  <path d="M15 3L15 5.0625C9.734375 5.539063 5.539063 9.734375 5.0625 15L3 15L3 17L5.0625 17C5.539063 22.265625 9.734375 26.460938 15 26.9375L15 29L17 29L17 26.9375C22.265625 26.460938 26.460938 22.265625 26.9375 17L29 17L29 15L26.9375 15C26.460938 9.734375 22.265625 5.539063 17 5.0625L17 3 Z M 15 7.03125L15 9L17 9L17 7.03125C21.191406 7.484375 24.515625 10.808594 24.96875 15L23 15L23 17L24.96875 17C24.515625 21.191406 21.191406 24.515625 17 24.96875L17 23L15 23L15 24.96875C10.808594 24.515625 7.484375 21.191406 7.03125 17L9 17L9 15L7.03125 15C7.484375 10.808594 10.808594 7.484375 15 7.03125Z" fill="#003D5B" />
</svg>