<?xml version="1.0" encoding="utf-8"?>
<svg xmlns="http://www.w3.org/2000/svg" viewBox="0 0 24 24" width="48" height="48">
  <path d="M6.4707031 4C5.8307031 4 5.2597344 4.4076719 5.0527344 5.0136719L3 11L3 18L3 19C3 19.552 3.448 20 4 20L5 20C5.552 20 6 19.552 6 19L6 18L18 18L18 19C18 19.552 18.448 20 19 20L20 20C20.552 20 21 19.552 21 19L21 17L21 11L18.947266 5.0136719C18.740266 4.4076719 18.169297 4 17.529297 4L6.4707031 4 z M 6.828125 6L17.171875 6L18.201172 9L5.7988281 9L6.828125 6 z M 5.1132812 11L18.886719 11L19 11.332031L19 16L5 16L5 11.332031L5.1132812 11 z M 7.5 12 A 1.5 1.5 0 0 0 6 13.5 A 1.5 1.5 0 0 0 7.5 15 A 1.5 1.5 0 0 0 9 13.5 A 1.5 1.5 0 0 0 7.5 12 z M 16.5 12 A 1.5 1.5 0 0 0 15 13.5 A 1.5 1.5 0 0 0 16.5 15 A 1.5 1.5 0 0 0 18 13.5 A 1.5 1.5 0 0 0 16.5 12 z" fill="#003D5B" />
</svg>