<svg width="120" height="124" viewBox="0 0 120 124" fill="none" xmlns="http://www.w3.org/2000/svg">
<path d="M71.6936 13.2643L51.601 33.3569L49.8743 35.1621L51.601 36.9673L71.6936 57.0599L75.304 53.4495L59.5281 37.6737H92.3356C99.2522 37.6737 104.893 43.3149 104.893 50.2315V67.8126H109.917V50.2315C109.917 40.5777 101.989 32.6505 92.3356 32.6505H59.5281L75.304 16.8747L71.6936 13.2643Z" fill="#00798C"/>
<path d="M4.83064 4.59247C4.75292 4.6119 4.67519 4.64105 4.59746 4.67021C4.56831 4.67021 4.54888 4.66049 4.51973 4.67021C4.47116 4.68964 4.41286 4.71879 4.36428 4.74795C2.17821 5.27269 0.555664 7.22589 0.555664 9.56778C0.555664 12.3178 2.7806 14.5431 5.53018 14.5431C8.27977 14.5431 10.5047 12.3178 10.5047 9.56778H22.086C25.1854 9.56778 26.7982 10.2091 27.9932 11.278C29.1689 12.3372 30.121 14.1252 30.9469 16.8753L50.845 97.1799C51.5931 100.027 52.3412 102.962 54.4204 105.343C55.2851 106.334 56.3733 107.14 57.6849 107.752C56.2275 109.482 55.2754 111.63 55.2754 114.049C55.2754 119.52 59.7544 124 65.2244 124C70.6945 124 75.1735 119.52 75.1735 114.049C75.1735 112.222 74.6391 110.551 73.7744 109.074H89.0088C88.1441 110.551 87.6098 112.222 87.6098 114.049C87.6098 119.52 92.0888 124 97.5588 124C103.029 124 107.508 119.52 107.508 114.049C107.508 111.494 106.468 109.21 104.865 107.441C105.147 106.684 105.03 105.828 104.574 105.168C104.107 104.497 103.349 104.099 102.533 104.099H64.5249C60.6871 104.099 59.1229 103.282 58.0736 102.077C57.034 100.882 56.4024 98.793 55.664 96.0138V95.9361L53.954 89.1728H99.5797C100.619 89.1728 101.562 88.5217 101.912 87.5402L119.789 40.2748C120.119 39.4391 119.973 38.4965 119.41 37.8066C118.846 37.1166 117.952 36.7765 117.068 36.932C116.165 37.0778 115.426 37.6997 115.125 38.5645L97.8697 84.1974H52.7881L35.7659 15.7092C35.7659 15.6606 35.7659 15.6023 35.7659 15.5537C34.8138 12.347 33.5799 9.56778 31.3355 7.54656C29.0911 5.52534 25.9335 4.59247 22.086 4.59247H5.53018C5.45246 4.59247 5.37473 4.59247 5.297 4.59247C5.21928 4.59247 5.14155 4.59247 5.06382 4.59247C4.9861 4.59247 4.90837 4.59247 4.83064 4.59247ZM65.2244 109.074C68.0032 109.074 70.1989 111.27 70.1989 114.049C70.1989 116.828 68.0032 119.025 65.2244 119.025C62.4457 119.025 60.2499 116.828 60.2499 114.049C60.2499 111.27 62.4457 109.074 65.2244 109.074ZM97.5588 109.074C100.338 109.074 102.533 111.27 102.533 114.049C102.533 116.828 100.338 119.025 97.5588 119.025C94.7801 119.025 92.5843 116.828 92.5843 114.049C92.5843 111.27 94.7801 109.074 97.5588 109.074Z" fill="#666666"/>
</svg>
