<svg width="104" height="119" viewBox="0 0 104 119" fill="none" xmlns="http://www.w3.org/2000/svg">
<path d="M49.7391 0C27.1304 0 0 18.3077 0 50.3462V68.6538V73.2308C0 80.1724 3.00333 85.115 6.06726 87.8286C7.93544 89.4833 8.71741 89.5092 9.97079 90.0098C11.6137 94.3074 22.1159 119 49.7391 119C49.8932 119 50.0364 118.984 50.1895 118.982C50.2013 118.982 50.2131 118.982 50.2249 118.982C60.5813 118.862 68.8405 115.014 75.1651 109.846H49.7391C25.6232 109.846 17.8573 85.5134 17.8573 85.5134L17.0713 83.1266L14.6603 82.5187C14.6603 82.5187 13.4775 82.2365 12.0197 80.9454C10.5619 79.6542 9.04348 77.7314 9.04348 73.2308V68.6538H13.5652C13.5652 36.6154 58.7826 59.5 72.3478 27.4615C72.3478 27.4615 85.913 40.0938 85.913 68.6538V82.3846H89.6134C87.7614 87.7262 82.815 91.5385 76.8696 91.5385H58.3675C57.4329 88.8781 54.9476 86.9615 52 86.9615H47.4783C43.7343 86.9615 40.6957 90.0372 40.6957 93.8269C40.6957 97.6166 43.7343 100.692 47.4783 100.692H52C52.4046 100.692 52.7982 100.636 53.1834 100.567C53.5363 100.652 53.8981 100.694 54.2609 100.692H76.8696C88.1349 100.692 97.5186 92.2263 99.1868 81.2761C102.039 79.7367 104 76.7327 104 73.2308V68.6538C104 65.2717 102.172 62.3542 99.4783 60.7694V50.3462C99.4783 32.0385 90.4348 9.15385 72.3478 9.15385C72.3478 9.15385 67.8261 0 49.7391 0Z" fill="#666666"/>
</svg>
