<svg width="121" height="119" viewBox="0 0 121 119" fill="none" xmlns="http://www.w3.org/2000/svg">
<path d="M12.9665 96.3334H3.52205C1.9165 96.3334 0.688721 95.1056 0.688721 93.5C0.688721 91.8945 1.9165 90.6667 3.52205 90.6667H12.9665C14.5721 90.6667 15.7998 91.8945 15.7998 93.5C15.7998 95.1056 14.5721 96.3334 12.9665 96.3334Z" fill="#00798C"/>
<path d="M49.6105 19.8334H20.5216C18.916 19.8334 17.6882 18.6056 17.6882 17.0001C17.6882 15.3945 18.916 14.1667 20.5216 14.1667H49.6105C51.216 14.1667 52.4438 15.3945 52.4438 17.0001C52.4438 18.6056 51.1216 19.8334 49.6105 19.8334Z" fill="#00798C"/>
<path d="M49.8002 43.4446H34.689C33.0835 43.4446 31.8557 42.2168 31.8557 40.6112C31.8557 39.0057 33.0835 37.7779 34.689 37.7779H49.8002C51.4057 37.7779 52.6335 39.0057 52.6335 40.6112C52.6335 42.2168 51.4057 43.4446 49.8002 43.4446Z" fill="#00798C"/>
<path d="M113.644 67.2444L105.049 62.2389L81.4383 10.4833C78.5105 4.06111 71.9938 0 64.4383 0H5.41048C3.80493 0 2.57715 1.22778 2.57715 2.83333C2.57715 4.43889 3.80493 5.66667 5.41048 5.66667H64.4383C69.8216 5.66667 74.2605 8.31111 76.2438 12.8444L100.138 65.45C100.422 66.0167 100.799 66.3944 101.272 66.7722L110.716 72.25C113.927 74.1389 115.438 77.7278 114.683 81.8833L111.849 97.8444C111.66 99.0722 110.338 100.206 109.11 100.206H97.966C97.8716 97.0889 96.8327 94.1611 94.8494 91.8C92.2994 88.5889 88.5216 86.8889 84.1772 86.8889C76.2438 86.8889 68.8772 92.5556 66.4216 100.111H36.5772C34.9716 100.111 33.7438 101.339 33.7438 102.944C33.7438 104.55 34.9716 105.778 36.5772 105.778H65.5716C65.666 108.894 66.7049 111.822 68.6883 114.183C71.3327 117.3 75.1105 119 79.4549 119C87.3883 119 94.7549 113.333 97.2105 105.778H109.205C113.172 105.778 116.855 102.661 117.516 98.6944L120.349 82.7333C121.483 76.2167 118.933 70.2667 113.644 67.2444ZM79.4549 113.333C76.8105 113.333 74.5438 112.389 73.0327 110.5C71.5216 108.611 70.8605 106.156 71.3327 103.417C72.3716 97.5611 78.2272 92.5556 84.0827 92.5556C86.7272 92.5556 88.9938 93.5 90.5049 95.3889C92.016 97.2778 92.6772 99.7333 92.2049 102.472C91.166 108.328 85.3105 113.333 79.4549 113.333Z" fill="#666666"/>
</svg>
