<svg width="119" height="119" viewBox="0 0 119 119" fill="none" xmlns="http://www.w3.org/2000/svg">
<path d="M34.9901 0C15.7836 0 0 15.7624 0 34.9901V84.0099C0 103.216 15.7624 119 34.9901 119H84.0099C103.216 119 119 103.238 119 84.0099V34.9901C119 15.7836 103.238 0 84.0099 0H34.9901ZM34.9901 10.8182H84.0099C97.3848 10.8182 108.182 21.6152 108.182 34.9901V84.0099C108.182 97.3848 97.3848 108.182 84.0099 108.182H34.9901C21.6152 108.182 10.8182 97.3848 10.8182 84.0099V34.9901C10.8182 21.6152 21.6152 10.8182 34.9901 10.8182ZM91.4474 22.6506C88.7218 22.6506 86.5455 24.8269 86.5455 27.5526C86.5455 30.2782 88.7218 32.4545 91.4474 32.4545C94.1731 32.4545 96.3494 30.2782 96.3494 27.5526C96.3494 24.8269 94.1731 22.6506 91.4474 22.6506ZM59.5 27.0455C41.6458 27.0455 27.0455 41.6458 27.0455 59.5C27.0455 77.3542 41.6458 91.9545 59.5 91.9545C77.3542 91.9545 91.9545 77.3542 91.9545 59.5C91.9545 41.6458 77.3542 27.0455 59.5 27.0455ZM59.5 37.8636C71.5225 37.8636 81.1364 47.4775 81.1364 59.5C81.1364 71.5225 71.5225 81.1364 59.5 81.1364C47.4775 81.1364 37.8636 71.5225 37.8636 59.5C37.8636 47.4775 47.4775 37.8636 59.5 37.8636Z" fill="#666666"/>
</svg>
