<svg width="72" height="119" viewBox="0 0 72 119" fill="none" xmlns="http://www.w3.org/2000/svg">
<path d="M36 0C16.1543 0 0 17.7996 0 39.6667C0 74.6558 32.915 116.385 34.3125 118.148C34.7432 118.69 35.3496 119 36 119C36.6943 118.952 37.2568 118.69 37.6875 118.148C39.085 116.356 72 73.9102 72 39.6667C72 17.7996 55.8457 0 36 0ZM36 27.2708C43.4531 27.2708 49.5 33.9336 49.5 42.1458C49.5 50.3581 43.4531 57.0208 36 57.0208C28.5469 57.0208 22.5 50.3581 22.5 42.1458C22.5 33.9336 28.5469 27.2708 36 27.2708Z" fill="#666666"/>
</svg>
