<svg width="150" height="119" viewBox="0 0 150 119" fill="none" xmlns="http://www.w3.org/2000/svg">
<path d="M50.5964 0C24.26 0 2.34511 26.6813 2.34511 26.6813L0.949707 28.3518L2.79136 29.4849C2.79136 29.4849 10.9761 34.3045 10.9761 47.2579V62.3944C8.81944 63.6846 7.34945 66.0566 7.34945 68.7969C7.34945 70.3327 7.96711 72.5514 8.5111 74.5094C8.77948 75.4781 9.14826 76.8033 9.16277 77.1641C9.16277 80.7527 12.0097 83.6719 15.5094 83.6719H16.6285C18.2043 100.034 29.9511 113.31 45.7868 116.436C47.747 118.093 50.1746 119 52.6824 119C55.1902 119 57.6178 118.093 59.578 116.436C68.6958 114.637 76.4244 109.447 81.6707 102.266H83.5088C90.498 102.266 96.2021 96.4167 96.2021 89.25V83.4068C99.3213 82.575 101.642 79.6899 101.642 76.2344V66.9375C101.642 62.9253 98.5235 59.6667 94.6437 59.5254C95.1504 55.4808 96.2021 46.184 96.2021 38.553C96.2021 28.5287 93.2526 21.9754 88.9346 18.0744C84.931 14.4575 79.9842 13.3359 75.5189 13.1718C74.2144 10.8638 67.2864 0 50.5964 0ZM50.5964 3.71875C67.4426 3.71875 72.8095 15.6848 72.8095 15.6848L73.3054 16.7344H74.4422C78.5801 16.7344 83.0957 17.7546 86.5369 20.8635C89.9782 23.9724 92.5754 29.2584 92.5754 38.553C92.5754 46.3555 91.4243 56.0609 90.9852 59.5H88.9488V53.9219C88.9488 34.2664 73.4205 28.0682 73.2664 28.0068L72.1898 27.6001L71.3681 28.4136C71.2792 28.501 62.2694 37.1875 43.6158 37.1875C39.1587 37.1875 32.348 38.547 26.6089 42.3661C19.9395 46.8045 16.416 53.3734 16.416 61.3594V61.9586C15.3861 61.4175 14.989 61.3594 14.6027 61.3594V47.2579C14.6027 36.4934 9.24515 30.2895 6.40029 27.7272C9.68676 24.0586 28.7736 3.71875 50.5964 3.71875ZM72.937 31.9362C75.9762 33.5111 85.3221 39.5247 85.3221 53.9219V63.2188V79.9531H85.3328L85.2407 81.7144C85.0013 86.4075 83.823 90.8398 81.9045 94.8281H85.9065C87.3753 91.3511 88.3538 87.6045 88.7327 83.6719H92.5754V89.25C92.5754 94.4073 88.5384 98.5469 83.5088 98.5469H59.5957C58.8389 96.395 56.8406 94.8281 54.4957 94.8281H50.8691C47.8862 94.8281 45.4291 97.3476 45.4291 100.406C45.4291 103.465 47.8862 105.984 50.8691 105.984H54.4957C56.8406 105.984 58.8389 104.418 59.5957 102.266H76.9851C72.2728 107.671 65.8587 111.514 58.4447 112.87L57.9311 112.964L57.5415 113.324C54.8324 115.849 50.5324 115.849 47.8233 113.324L47.4372 112.964L46.9237 112.87C31.9366 110.129 20.9166 97.3165 20.1241 81.7144L20.0321 79.9531H15.5094C14.0098 79.9531 12.7894 78.7018 12.7894 77.1641C12.7894 76.3831 12.502 75.3147 11.9961 73.4925C11.5645 71.9399 10.9761 69.814 10.9761 68.7969C10.9761 66.8204 12.4899 65.2007 14.3902 65.0854C14.6622 65.2062 15.4108 65.5861 17.2767 66.7668L20.0427 68.5209V61.3594C20.0427 44.664 37.4995 40.9062 43.6158 40.9062C60.5069 40.9062 70.023 34.3385 72.937 31.9362ZM88.9488 63.2188H94.3887C96.3888 63.2188 98.0154 64.8866 98.0154 66.9375V76.2344C98.0154 78.2853 96.3888 79.9531 94.3887 79.9531H88.9488V63.2188ZM36.3625 65.0781C35.4007 65.0781 34.4783 65.4699 33.7981 66.1673C33.118 66.8647 32.7359 67.8106 32.7359 68.7969C32.7359 69.7831 33.118 70.729 33.7981 71.4264C34.4783 72.1238 35.4007 72.5156 36.3625 72.5156C37.3244 72.5156 38.2468 72.1238 38.927 71.4264C39.6071 70.729 39.9892 69.7831 39.9892 68.7969C39.9892 67.8106 39.6071 66.8647 38.927 66.1673C38.2468 65.4699 37.3244 65.0781 36.3625 65.0781ZM69.0023 65.0781C68.0404 65.0781 67.118 65.4699 66.4379 66.1673C65.7577 66.8647 65.3756 67.8106 65.3756 68.7969C65.3756 69.7831 65.7577 70.729 66.4379 71.4264C67.118 72.1238 68.0404 72.5156 69.0023 72.5156C69.9641 72.5156 70.8866 72.1238 71.5667 71.4264C72.2468 70.729 72.6289 69.7831 72.6289 68.7969C72.6289 67.8106 72.2468 66.8647 71.5667 66.1673C70.8866 65.4699 69.9641 65.0781 69.0023 65.0781ZM50.8691 98.5469H54.4957C55.5203 98.5469 56.309 99.3556 56.309 100.406C56.309 101.457 55.5203 102.266 54.4957 102.266H50.8691C49.8445 102.266 49.0558 101.457 49.0558 100.406C49.0558 99.3556 49.8445 98.5469 50.8691 98.5469Z" fill="#666666"/>
<path d="M139.094 19.9746C136.389 17.2694 132.831 15.7195 129.033 15.4959C124.772 15.2764 120.506 16.9213 117.399 20.0282C116.544 20.8838 116.54 22.276 117.392 23.1274L118.938 24.6732C119.789 25.5246 121.181 25.5212 122.037 24.6656C123.824 22.8785 126.217 22.013 128.774 22.0824C130.944 22.2314 132.888 23.0891 134.434 24.6349C134.666 24.8674 134.908 25.0968 135.061 25.4082C137.611 28.5768 137.524 33.1502 135.035 36.2556C132.779 39.1274 129.044 40.205 125.56 39.2087C120.606 37.6714 115.349 38.9374 111.775 42.5115L107.187 47.0991C106.332 47.9547 106.328 49.3469 107.18 50.1983L108.726 51.7441C109.577 52.5955 110.969 52.5921 111.825 51.7365L116.412 47.1489C118.199 45.3618 120.976 44.7406 123.608 45.5089C129.647 47.3553 136.174 45.3265 140.061 40.3593C144.645 34.8457 144.655 26.7677 140.253 21.2792C139.946 20.8139 139.481 20.361 139.094 19.9746ZM103.372 52.6048C102.947 52.1791 102.254 52.1778 101.823 52.6086L98.7158 55.7155C98.285 56.1464 98.2863 56.8394 98.712 57.2651L101.804 60.3567C102.232 60.7855 102.922 60.7838 103.353 60.3529L106.46 57.246C106.891 56.8152 106.893 56.1251 106.464 55.6964L103.372 52.6048Z" fill="#00798C"/>
</svg>
