<svg width="127" height="127" viewBox="0 0 127 127" fill="none" xmlns="http://www.w3.org/2000/svg">
<path d="M63.5 0C28.487 0 0 28.487 0 63.5C0 73.8991 2.7391 83.6194 7.18096 92.2858L0.297656 116.929C-1.30557 122.655 4.35587 128.316 10.0831 126.715L34.7452 119.831C43.4046 124.264 53.1106 127 63.5 127C98.513 127 127 98.513 127 63.5C127 28.487 98.513 0 63.5 0ZM63.5 9.525C93.365 9.525 117.475 33.635 117.475 63.5C117.475 93.365 93.365 117.475 63.5 117.475C53.97 117.475 45.0552 114.997 37.2814 110.666C36.1857 110.055 34.8932 109.902 33.6848 110.238L10.2319 116.78L16.7804 93.34C17.1187 92.1297 16.9649 90.8346 16.3525 89.7372C12.0131 81.9578 9.525 73.0393 9.525 63.5C9.525 33.635 33.635 9.525 63.5 9.525ZM42.0377 34.9312C41.0249 34.9312 39.3884 35.3111 37.9946 36.8288C36.6039 38.3401 32.6864 42.0055 32.6864 49.4667C32.6864 56.928 38.1163 64.1335 38.8751 65.1495C39.6308 66.156 49.3628 81.9611 64.7774 88.038C77.5854 93.0863 80.1904 92.081 82.9717 91.827C85.753 91.5793 91.9462 88.1645 93.2098 84.6212C94.4735 81.0779 94.4743 78.0471 94.1028 77.4216C93.725 76.7898 92.7121 76.4069 91.1944 75.6481C89.68 74.8893 82.2291 71.223 80.8385 70.7182C79.4478 70.2133 78.4313 69.9571 77.4216 71.4747C76.412 72.9924 73.5077 76.4058 72.6219 77.4154C71.7361 78.4314 70.853 78.5587 69.3353 77.7999C67.8145 77.0347 62.9351 75.4374 57.1376 70.2717C52.6291 66.2553 49.596 61.2907 48.7102 59.7731C47.8276 58.2618 48.6149 57.4312 49.3737 56.6787C50.0564 55.9993 50.8907 54.9104 51.6496 54.0246C52.402 53.1388 52.6516 52.5104 53.1564 51.5007C53.6613 50.4943 53.4102 49.6055 53.0324 48.8466C52.6546 48.0878 49.7061 40.5857 48.3567 37.5853C47.2233 35.0644 46.0288 35.0097 44.9461 34.9684C44.0634 34.9335 43.0474 34.9312 42.0377 34.9312Z" fill="#666666"/>
</svg>
