<svg width="109" height="124" viewBox="0 0 109 124" fill="none" xmlns="http://www.w3.org/2000/svg">
<path d="M54.5 0C48.4229 0 43.2942 3.37422 35.6882 7.31242C28.0822 11.2506 17.8731 16.0056 1.93537 19.5257L0 19.9925V21.9373C0 60.0747 13.3057 85.5612 26.6307 101.363C39.9557 117.164 53.4936 123.455 53.4936 123.455L54.5774 124L55.6612 123.455C55.6612 123.455 109 95.7616 109 21.9373V19.9925L107.065 19.5257C91.1269 16.0056 80.9178 11.2506 73.3118 7.31242C65.7058 3.37422 60.5771 0 54.5 0ZM54.5 4.97867C58.574 4.97867 63.2963 7.73055 71.0668 11.7465C78.4502 15.5583 88.8335 20.2356 103.891 23.8043C102.981 91.308 57.6063 116.629 54.4226 118.321C52.884 117.572 42.162 112.185 30.3466 98.1731C17.8925 83.4024 5.56419 59.6468 5.10938 23.8043C20.1665 20.2356 30.5498 15.5583 37.9332 11.7465C45.7037 7.73055 50.426 4.97867 54.5 4.97867Z" fill="#444444"/>
<path d="M77.7157 39L49.0873 69.4271L34.4239 53.7661L28 60.6271L45.8753 79.7186L49.0873 83L52.2993 79.7186L84 45.7119L77.7157 39Z" fill="#00798C"/>
</svg>
