<svg width="119" height="119" viewBox="0 0 119 119" fill="none" xmlns="http://www.w3.org/2000/svg">
<path d="M110.192 0.0110846C108.654 0.0907207 107.205 0.588445 105.918 1.1459H105.9C104.594 1.72326 98.389 4.62998 88.9649 9.02987C79.5408 13.4497 67.3091 19.1835 55.1668 24.8775C30.918 36.2455 7.08047 47.4344 7.08047 47.4344L7.36659 47.3149C7.36659 47.3149 5.72139 47.9122 4.00466 49.2262C3.12841 49.8633 2.16275 50.7393 1.32227 52.113C0.481788 53.4867 -0.197753 55.5971 0.0526059 57.7672C0.463907 61.4503 2.60982 63.6603 4.14772 64.8747C5.70351 66.1091 7.18776 66.6864 7.18776 66.6864H7.22353L29.5768 75.0681C30.5782 78.6517 36.39 99.9146 37.7849 104.812C38.6075 107.739 39.4122 109.57 40.4136 110.964C40.8965 111.681 41.4687 112.278 42.1482 112.756C42.4165 112.935 42.7026 113.074 42.9887 113.194C43.0781 113.254 43.1676 113.274 43.2748 113.293L43.0424 113.234C43.1139 113.254 43.1676 113.313 43.2212 113.333C43.4 113.393 43.5252 113.413 43.7577 113.453C47.2984 114.647 50.1418 112.198 50.1418 112.198L50.3027 112.059L63.5001 98.6802L85.6208 117.574L86.1216 117.813C90.7353 120.063 95.4026 118.808 97.8704 116.598C100.356 114.369 101.322 111.522 101.322 111.522L101.483 111.064L118.578 13.5691C119.061 11.1601 119.186 8.91042 118.65 6.72043C118.114 4.53044 116.737 2.4798 115.073 1.38481C113.393 0.269901 111.729 -0.0685515 110.192 0.0110846ZM109.727 10.4633C109.709 10.7819 109.762 10.7421 109.637 11.3592V11.419L92.7024 107.898C92.6308 108.037 92.5056 108.336 92.1659 108.635C91.8082 108.953 91.5221 109.152 90.0378 108.495L62.9815 85.4009L46.6368 101.985L50.0702 77.5767C50.0702 77.5767 92.452 33.5976 94.276 31.7063C96.1 29.8149 95.492 29.4167 95.492 29.4167C95.6172 27.1073 92.7381 28.7398 92.7381 28.7398L36.9981 67.1841L36.9802 67.0846L10.2636 57.0704V57.0505C10.2457 57.0505 10.2099 57.0305 10.192 57.0305C10.2099 57.0305 10.3351 56.9708 10.3351 56.9708L10.4782 56.8912L10.6212 56.8315C10.6212 56.8315 34.4766 45.6426 58.7254 34.2745C70.8677 28.5805 83.0994 22.8467 92.5056 18.4269C101.912 14.027 108.868 10.8018 109.262 10.6226C109.637 10.4633 109.458 10.4633 109.727 10.4633Z" fill="#666666"/>
</svg>
