<svg width="31" height="39" viewBox="0 0 31 39" fill="none" xmlns="http://www.w3.org/2000/svg">
<path d="M5.28373 0.201294L0 0.235388L0.015131 4.1145L3.22289 4.09556L8.32808 19.4264L6.47302 23.1426C5.85326 24.3839 5.82121 25.9519 6.38829 27.23C6.95537 28.5082 8.03137 29.3022 9.19962 29.3022H27.8833V25.4231H9.19962L9.09976 25.1958L10.9215 21.544H22.4937C23.6201 21.544 24.6567 20.7773 25.2021 19.5476L30.7854 6.97079C31.0535 6.36953 31.0462 5.63611 30.7673 5.0426C30.4884 4.45104 29.9782 4.08798 29.4297 4.08798H6.57894L5.28373 0.201294ZM7.8681 7.96709H26.7969L22.4937 17.6649H11.097L7.8681 7.96709ZM9.29041 31.2417C8.46855 31.2417 7.68035 31.6504 7.09921 32.3779C6.51807 33.1054 6.19159 34.092 6.19159 35.1208C6.19159 36.1497 6.51807 37.1363 7.09921 37.8638C7.68035 38.5913 8.46855 39 9.29041 39C10.1123 39 10.9005 38.5913 11.4816 37.8638C12.0627 37.1363 12.3892 36.1497 12.3892 35.1208C12.3892 34.092 12.0627 33.1054 11.4816 32.3779C10.9005 31.6504 10.1123 31.2417 9.29041 31.2417ZM24.7845 31.2417C23.9627 31.2417 23.1745 31.6504 22.5933 32.3779C22.0122 33.1054 21.6857 34.092 21.6857 35.1208C21.6857 36.1497 22.0122 37.1363 22.5933 37.8638C23.1745 38.5913 23.9627 39 24.7845 39C25.6064 39 26.3946 38.5913 26.9757 37.8638C27.5568 37.1363 27.8833 36.1497 27.8833 35.1208C27.8833 34.092 27.5568 33.1054 26.9757 32.3779C26.3946 31.6504 25.6064 31.2417 24.7845 31.2417Z" fill="#666666"/>
</svg>
