<svg width="33" height="40" viewBox="0 0 33 40" fill="none" xmlns="http://www.w3.org/2000/svg">
<path d="M16 0C10.4949 0 6 4.49492 6 10C6 15.5051 10.4949 20 16 20C21.5051 20 26 15.5051 26 10C26 4.49492 21.5051 0 16 0ZM16 3C19.8838 3 23 6.11624 23 10C23 13.8838 19.8838 17 16 17C12.1162 17 9 13.8838 9 10C9 6.11624 12.1162 3 16 3ZM3.97852 24C1.7987 24 0 25.7987 0 27.9785V29.5C0 33.1042 2.27927 35.8922 5.30664 37.5625C8.33401 39.2328 12.1681 40 16 40C19.8319 40 23.666 39.2328 26.6934 37.5625C29.2746 36.1383 31.2173 33.8626 31.7617 31H32.002V27.9785C32.002 25.7987 30.2013 24 28.0215 24H3.97852ZM3.97852 27H28.0215C28.5797 27 29.002 27.4203 29.002 27.9785V28H29V29.5C29 31.8958 27.6543 33.6078 25.2441 34.9375C22.834 36.2672 19.4181 37 16 37C12.5819 37 9.16599 36.2672 6.75586 34.9375C4.34573 33.6078 3 31.8958 3 29.5V27.9785C3 27.4203 3.42033 27 3.97852 27Z" fill="#666666"/>
</svg>
