<svg id="Layer_1" data-name="Layer 1" xmlns="http://www.w3.org/2000/svg" viewBox="0 0 1920 1080"><defs><style>.cls-1{fill:#2b2d42;}</style></defs><title>02</title><path class="cls-1" d="M105,1028.5A49.54,49.54,0,0,1,55.5,979V67A49.54,49.54,0,0,1,105,17.5H797.9a49.4,49.4,0,0,1,45.56,30.17l386.62,912a49.49,49.49,0,0,1-45.57,68.81Z"/><path d="M797.9,18A48.9,48.9,0,0,1,843,47.87l386.62,912a49,49,0,0,1-45.11,68.11H105a49,49,0,0,1-49-49V67a49,49,0,0,1,49-49H797.9m0-1H105A50,50,0,0,0,55,67V979a50,50,0,0,0,50,50H1184.51c35.81,0,60-36.54,46-69.5l-386.62-912A50,50,0,0,0,797.9,17Z"/></svg>