<svg xmlns="http://www.w3.org/2000/svg" xmlns:xlink="http://www.w3.org/1999/xlink" viewBox="0 0 1179.6 1012"><defs><style>.a{fill:none;}.b{fill:#5c6378;}.c{opacity:0.03;}.d{fill:#0c0c0c;}.e{fill:url(#a);}</style><pattern id="a" width="1295.4" height="1281" patternUnits="userSpaceOnUse" viewBox="0 0 1295.4 1281"><rect class="a" width="1295.4" height="1281"/><rect class="b" width="1295" height="1281"/><g class="c"><path class="d" d="M99.6,1173.2l.2-.4c.6-2.5-5.5-8.5-24.4-26.7-21.6-20.7-51.2-49.1-55.2-63l-2,.6c4.2,14.4,34,43,55.8,63.9,11.4,10.9,23.1,22.2,23.8,24.5-6.3,7.8-17.2,18.1-28.7,29.1-21,20-44.8,42.6-50.9,58.7l1.9.7c5.9-15.6,29.5-38.1,50.4-57.9C82.2,1191.6,93.3,1181,99.6,1173.2Z"/><path class="d" d="M69.1,347.7c-21,20-44.8,42.6-50.9,58.7l1.9.7C26,391.5,49.6,369,70.5,349.2c11.7-11.1,22.8-21.6,29.1-29.5l.2-.4c.6-2.5-5.5-8.5-24.4-26.7-21.6-20.7-51.2-49.1-55.2-63l-2,.6c4.2,14.4,34,43,55.8,63.9,11.4,10.9,23.1,22.2,23.8,24.6C91.5,326.4,80.6,336.8,69.1,347.7Z"/><path class="d" d="M69.1,774.5c-21,19.9-44.8,42.6-50.9,58.7l1.9.7C26,818.2,49.6,795.8,70.5,776c11.7-11.2,22.8-21.7,29.1-29.6l.2-.4c.6-2.4-5.5-8.5-24.4-26.7-21.6-20.7-51.2-49-55.2-63l-2,.6c4.2,14.5,34,43.1,55.8,63.9,11.4,11,23.1,22.2,23.8,24.6C91.5,753.1,80.6,763.5,69.1,774.5Z"/><path class="d" d="M74,80.7c11.4,11,23.1,22.2,23.8,24.6-6.3,7.7-17.2,18.1-28.7,29-21,20-44.8,42.7-50.9,58.7l1.9.8c5.9-15.7,29.5-38.1,50.4-58,11.7-11.1,22.8-21.6,29.1-29.5l.2-.4c.6-2.4-5.5-8.5-24.4-26.6C53.8,58.5,24.2,30.2,20.2,16.2l-2,.6C22.4,31.3,52.2,59.9,74,80.7Z"/><path class="d" d="M70.5,989.3c11.7-11.1,22.8-21.6,29.1-29.5l.2-.4c.6-2.4-5.5-8.5-24.4-26.7-21.6-20.7-51.2-49-55.2-63l-2,.6c4.2,14.5,34,43.1,55.8,63.9,11.4,10.9,23.1,22.2,23.8,24.6-6.3,7.7-17.2,18.1-28.7,29-21,20-44.8,42.6-50.9,58.7l1.9.8C26,1031.6,49.6,1009.1,70.5,989.3Z"/><path class="d" d="M69.1,561.1c-21,20-44.8,42.6-50.9,58.7l1.9.7c5.9-15.6,29.5-38.1,50.4-57.9,11.7-11.2,22.8-21.7,29.1-29.5l.2-.4c.6-2.5-5.5-8.6-24.4-26.7-21.6-20.7-51.2-49.1-55.2-63l-2,.5c4.2,14.5,34,43.1,55.8,64,11.4,10.9,23.1,22.2,23.8,24.5C91.5,539.8,80.6,550.1,69.1,561.1Z"/><path class="d" d="M503.5,83.8c4.5,4.6,8.2,8.1,11.1,11,6,5.8,9,8.8,9,10.8s-1.9,3.4-5.2,6.3c-1.7,1.6-3.8,3.5-6.2,6-.5.5-48.7,49.2-54.6,54.2l1.3,1.6c6-5,54.3-53.9,54.8-54.4,2.3-2.4,4.4-4.3,6.1-5.9,3.8-3.4,5.8-5.3,5.9-7.8s-2.8-5.6-9.7-12.3L505,82.4c-11.4-11.7-36.9-37.6-42.9-43L460.7,41C466.7,46.3,492.1,72.1,503.5,83.8Z"/><path class="d" d="M373.8,91.5c-8.4,7.6-11.9,10.7-11.9,14s2.3,4.7,6.4,8.4c1.9,1.7,4.2,3.7,6.8,6.3l1,1c14.4,14.4,39.9,39.8,47.7,47.9l1.4-1.5c-7.8-8-33.2-33.4-47.7-47.8l-1-1.1c-2.6-2.6-4.9-4.6-6.8-6.3-3.5-3.2-5.7-5.2-5.7-6.9s3.7-5.7,11.2-12.5c10.1-9.2,27.2-24.7,53.3-53.9l-1.6-1.4C400.9,66.9,383.9,82.3,373.8,91.5Z"/><path class="d" d="M300.3,972.8c2.4-2.4,4.5-4.3,6.2-5.9,3.7-3.4,5.8-5.3,5.8-7.8s-2.8-5.7-9.6-12.3c-3-2.9-6.6-6.4-11.1-11-11.4-11.6-36.8-37.5-42.9-42.9l-1.3,1.6c5.9,5.3,31.4,31.1,42.8,42.8,4.4,4.6,8.1,8.1,11,11,6,5.8,9.1,8.8,9,10.8s-1.9,3.4-5.1,6.3-3.9,3.5-6.3,6c-.4.4-48.7,49.2-54.6,54.2l1.3,1.6C251.5,1022.1,299.8,973.3,300.3,972.8Z"/><path class="d" d="M161.8,946.5c10.2-9.2,27.2-24.7,53.3-53.9l-1.6-1.4c-26,29.2-42.9,44.6-53.1,53.8-8.4,7.6-11.8,10.7-11.8,14s2.2,4.7,6.4,8.4c1.8,1.7,4.1,3.7,6.7,6.3.4.4,38.8,38.6,48.7,48.8l1.5-1.4c-10-10.2-48.4-48.5-48.8-48.9-2.6-2.6-4.9-4.6-6.7-6.3-3.6-3.2-5.8-5.2-5.8-6.9S154.4,953.2,161.8,946.5Z"/><path class="d" d="M1143.7,297.2c4.4,4.5,8.1,8.1,11,10.9,6,5.9,9.1,8.8,9,10.9s-1.9,3.3-5.2,6.3c-1.7,1.6-3.8,3.5-6.2,6-.5.4-48.7,49.2-54.6,54.2l1.3,1.6c6-5.1,54.3-53.9,54.8-54.4l6.1-5.9c3.8-3.4,5.9-5.3,5.9-7.8s-2.8-5.7-9.7-12.3c-2.9-2.9-6.5-6.4-11-11-11.4-11.6-36.9-37.5-42.9-42.9l-1.4,1.6C1106.8,259.7,1132.3,285.5,1143.7,297.2Z"/><path class="d" d="M1013.9,304.8c-8.4,7.7-11.9,10.8-11.9,14.1s2.3,4.7,6.5,8.4c1.8,1.7,4.1,3.7,6.7,6.3.3.4,38.8,38.7,48.7,48.8l1.5-1.4c-9.9-10.2-48.4-48.5-48.8-48.9-2.6-2.6-4.9-4.7-6.8-6.3-3.5-3.2-5.7-5.2-5.7-6.9s3.7-5.8,11.2-12.5a668.7,668.7,0,0,0,53.3-53.9l-1.6-1.4C1041,280.2,1024,295.6,1013.9,304.8Z"/><path class="d" d="M930.3,297.2c4.4,4.5,8.1,8.1,11,10.9,6.1,5.9,9.1,8.8,9.1,10.9s-2,3.3-5.2,6.3-3.8,3.5-6.4,6.1c-5,5-48.9,49.4-54.5,54.1l1.3,1.6c5.7-4.8,49.7-49.2,54.8-54.4,2.4-2.4,4.5-4.3,6.2-5.9,3.7-3.4,5.8-5.3,5.8-7.8s-2.8-5.7-9.6-12.3c-3-2.9-6.6-6.4-11-11-11.4-11.6-36.9-37.5-42.9-42.9l-1.4,1.6C893.5,259.7,918.9,285.5,930.3,297.2Z"/><path class="d" d="M800.5,304.8c-8.4,7.7-11.8,10.8-11.8,14.1s2.3,4.7,6.4,8.4c1.8,1.7,4.1,3.7,6.7,6.3.3.3,38.8,38.6,48.7,48.8L852,381c-10-10.2-48.4-48.5-48.8-48.9-2.6-2.6-4.9-4.7-6.7-6.3-3.6-3.2-5.8-5.2-5.8-6.9s3.8-5.8,11.2-12.5a668.7,668.7,0,0,0,53.3-53.9l-1.5-1.4C827.6,280.2,810.7,295.6,800.5,304.8Z"/><path class="d" d="M1143.7,510.5c4.4,4.6,8.1,8.2,11,11,6,5.9,9.1,8.8,9,10.9s-1.9,3.3-5.2,6.3c-1.7,1.5-3.8,3.5-6.3,6.1-5,5-48.9,49.3-54.5,54l1.3,1.6c5.7-4.7,49.7-49.2,54.8-54.3l6.1-5.9c3.8-3.5,5.9-5.4,5.9-7.8s-2.8-5.7-9.7-12.4l-11-10.9c-11.4-11.7-36.9-37.5-42.9-42.9l-1.4,1.5C1106.8,473.1,1132.3,498.9,1143.7,510.5Z"/><path class="d" d="M1013.9,518.2c-8.4,7.6-11.9,10.8-11.9,14s2.3,4.8,6.5,8.5c1.8,1.6,4.1,3.7,6.7,6.3.3.3,38.7,38.5,48.7,48.8l1.5-1.4c-10-10.3-48.4-48.6-48.8-48.9-2.6-2.6-4.9-4.7-6.8-6.4-3.5-3.2-5.7-5.1-5.7-6.9s3.7-5.7,11.2-12.5c10.2-9.2,27.2-24.6,53.3-53.9l-1.6-1.4C1041,493.6,1024,509,1013.9,518.2Z"/><path class="d" d="M1143.7,83.8c4.4,4.6,8.1,8.1,11,11,6,5.8,9.1,8.8,9,10.8s-1.9,3.4-5.2,6.3c-1.7,1.6-3.8,3.5-6.2,6-.5.5-48.7,49.2-54.6,54.2l1.3,1.6c6-5,54.3-53.9,54.8-54.4l6.1-5.9c3.8-3.4,5.9-5.3,5.9-7.8s-2.8-5.6-9.7-12.3l-11-10.9c-11.4-11.7-36.8-37.5-42.9-43l-1.4,1.6C1106.8,46.4,1132.3,72.1,1143.7,83.8Z"/><path class="d" d="M1013.9,91.5c-8.4,7.6-11.9,10.7-11.9,14s2.3,4.7,6.5,8.4c1.8,1.7,4.1,3.7,6.7,6.3.3.4,38.8,38.7,48.7,48.9l1.5-1.5c-9.9-10.1-48.4-48.5-48.8-48.9-2.6-2.6-4.9-4.6-6.8-6.3-3.5-3.2-5.7-5.2-5.7-6.9s3.7-5.7,11.2-12.5c10.2-9.2,27.2-24.7,53.3-53.9l-1.6-1.4C1041,66.9,1024,82.3,1013.9,91.5Z"/><path class="d" d="M940.4,759.5c2.4-2.5,4.5-4.4,6.2-5.9,3.7-3.5,5.8-5.4,5.8-7.8s-2.8-5.7-9.6-12.4c-3-2.8-6.6-6.4-11-10.9-11.4-11.7-36.9-37.5-42.9-42.9l-1.4,1.5c6,5.4,31.4,31.2,42.8,42.8,4.4,4.6,8.1,8.1,11,11,6.1,5.8,9.1,8.8,9.1,10.8s-2,3.4-5.2,6.3-3.8,3.5-6.3,6c-.4.5-48.7,49.2-54.6,54.2l1.3,1.6C891.6,808.8,939.9,759.9,940.4,759.5Z"/><path class="d" d="M801.9,733.1c10.2-9.2,27.2-24.7,53.3-53.9l-1.5-1.4c-26.1,29.2-43,44.6-53.2,53.8-8.4,7.6-11.8,10.8-11.8,14s2.3,4.7,6.4,8.4l6.7,6.3c.4.4,38.8,38.6,48.7,48.9l1.5-1.5c-10-10.2-48.4-48.5-48.8-48.8-2.6-2.6-4.9-4.7-6.7-6.4-3.6-3.2-5.8-5.1-5.8-6.9S794.5,739.9,801.9,733.1Z"/><path class="d" d="M503.5,510.5c4.5,4.6,8.2,8.2,11.1,11,6,5.9,9,8.8,9,10.9s-1.9,3.3-5.2,6.3c-1.7,1.5-3.8,3.5-6.3,6.1-5,5-48.9,49.3-54.5,54l1.3,1.6c5.7-4.7,49.6-49.2,54.8-54.3,2.3-2.4,4.4-4.4,6.1-5.9,3.8-3.5,5.8-5.4,5.9-7.8s-2.8-5.7-9.7-12.4l-11-10.9c-11.4-11.7-36.9-37.5-42.9-42.9l-1.4,1.5C466.7,473.1,492.2,498.9,503.5,510.5Z"/><path class="d" d="M373.8,518.2c-8.4,7.6-11.9,10.8-11.9,14s2.3,4.8,6.4,8.5c1.9,1.6,4.2,3.7,6.8,6.3.3.3,38.7,38.5,48.7,48.8l1.4-1.4c-10-10.3-48.4-48.6-48.7-48.9-2.6-2.6-4.9-4.7-6.8-6.4-3.5-3.2-5.7-5.1-5.7-6.9s3.7-5.7,11.2-12.5a651.1,651.1,0,0,0,53.3-53.9l-1.6-1.4C400.9,493.6,383.9,509,373.8,518.2Z"/><path class="d" d="M716.9,297.2c4.5,4.5,8.1,8.1,11.1,10.9,6,5.9,9,8.8,9,10.9s-2,3.3-5.2,6.3c-1.7,1.6-3.8,3.5-6.4,6.1-5,5-48.9,49.4-54.5,54.1l1.4,1.6c5.6-4.8,49.6-49.2,54.7-54.4,2.4-2.4,4.5-4.3,6.2-5.9,3.7-3.4,5.8-5.3,5.9-7.8s-2.8-5.7-9.7-12.3c-2.9-2.9-6.6-6.4-11-11-10.9-11.2-36.9-37.5-42.9-42.9l-1.4,1.6C680.1,259.7,706,286,716.9,297.2Z"/><path class="d" d="M587.2,304.8c-8.4,7.7-11.9,10.8-11.9,14.1s2.3,4.7,6.4,8.4c1.8,1.7,4.1,3.7,6.7,6.3.4.4,38.9,38.7,48.7,48.8l1.5-1.4c-9.9-10.2-48.3-48.5-48.7-48.9l-6.8-6.3c-3.6-3.2-5.7-5.2-5.7-6.9s3.7-5.8,11.1-12.5a668.7,668.7,0,0,0,53.3-53.9l-1.5-1.4C614.3,280.2,597.3,295.6,587.2,304.8Z"/><path class="d" d="M290.2,510.5c4.4,4.6,8.1,8.2,11,11,6,5.9,9.1,8.8,9,10.9s-1.9,3.3-5.1,6.3-3.9,3.5-6.3,5.9c-.5.5-48.7,49.3-54.6,54.2l1.3,1.6c6-5,54.3-53.8,54.8-54.3,2.4-2.4,4.5-4.4,6.2-5.9,3.7-3.5,5.8-5.4,5.8-7.8s-2.8-5.7-9.6-12.4c-3-2.8-6.6-6.4-11.1-10.9-10.9-11.2-36.8-37.5-42.9-42.9l-1.3,1.5C253.4,473.1,279.3,499.4,290.2,510.5Z"/><path class="d" d="M160.4,518.2c-8.4,7.6-11.8,10.8-11.8,14s2.2,4.8,6.4,8.5c1.8,1.6,4.1,3.7,6.7,6.3.3.3,38.8,38.6,48.7,48.8l1.5-1.4c-9.9-10.2-48.4-48.6-48.8-48.9-2.6-2.6-4.9-4.7-6.7-6.4-3.6-3.2-5.8-5.1-5.8-6.9s3.8-5.7,11.2-12.5c10.2-9.2,27.2-24.6,53.3-53.9l-1.6-1.4C187.5,493.6,170.6,509,160.4,518.2Z"/><path class="d" d="M940.4,972.8c2.4-2.4,4.5-4.3,6.2-5.9,3.7-3.4,5.8-5.3,5.8-7.8s-2.8-5.7-9.6-12.3c-3-2.9-6.6-6.4-11-11-11.4-11.6-36.9-37.5-42.9-42.9l-1.4,1.6c6,5.3,31.4,31.1,42.8,42.8,4.4,4.6,8.1,8.1,11,11,6.1,5.8,9.1,8.8,9.1,10.8s-2,3.4-5.2,6.3-3.8,3.5-6.3,6c-.4.5-48.7,49.2-54.6,54.2l1.3,1.6C891.6,1022.1,939.9,973.3,940.4,972.8Z"/><path class="d" d="M801.9,946.5c10.2-9.2,27.2-24.7,53.3-53.9l-1.5-1.4c-26.1,29.2-43,44.6-53.2,53.8-8.4,7.6-11.8,10.7-11.8,14s2.3,4.7,6.4,8.4c1.8,1.7,4.1,3.7,6.7,6.3.4.4,38.8,38.6,48.7,48.8l1.5-1.4c-10-10.2-48.4-48.5-48.8-48.9-2.6-2.6-4.9-4.6-6.7-6.3-3.6-3.2-5.8-5.2-5.8-6.9S794.5,953.2,801.9,946.5Z"/><path class="d" d="M503.5,297.2l11.1,10.9c6,5.9,9,8.8,9,10.9s-1.9,3.3-5.2,6.3c-1.7,1.6-3.8,3.5-6.3,6.1-5,5-48.9,49.4-54.5,54.1l1.3,1.6c5.7-4.8,49.6-49.2,54.8-54.4,2.3-2.4,4.4-4.3,6.1-5.9,3.8-3.4,5.8-5.3,5.9-7.8s-2.8-5.7-9.7-12.3c-2.9-2.9-6.5-6.4-11-11-11.4-11.6-36.9-37.5-42.9-42.9l-1.4,1.6C466.7,259.7,492.2,285.5,503.5,297.2Z"/><path class="d" d="M373.8,304.8c-8.4,7.7-11.9,10.8-11.9,14.1s2.3,4.7,6.4,8.4c1.9,1.7,4.2,3.7,6.8,6.3.3.4,38.8,38.7,48.7,48.8l1.4-1.4c-9.8-10.2-48.3-48.5-48.7-48.9-2.6-2.6-4.9-4.7-6.8-6.3-3.5-3.2-5.7-5.2-5.7-6.9s3.7-5.8,11.2-12.5a686.6,686.6,0,0,0,53.3-53.9l-1.6-1.4C400.9,280.2,383.9,295.6,373.8,304.8Z"/><path class="d" d="M727,759.5c2.4-2.5,4.5-4.4,6.2-5.9,3.7-3.5,5.8-5.4,5.9-7.8s-2.8-5.7-9.7-12.4c-2.9-2.8-6.6-6.4-11-10.9-10.9-11.2-36.9-37.5-42.9-42.9l-1.4,1.5c6,5.4,31.9,31.6,42.8,42.8,4.5,4.6,8.1,8.1,11.1,11,6,5.8,9,8.8,9,10.8s-2,3.4-5.2,6.3c-1.7,1.6-3.8,3.5-6.2,6-.5.5-48.7,49.2-54.7,54.2l1.4,1.6C678.2,808.8,726.5,759.9,727,759.5Z"/><path class="d" d="M588.5,733.1c10.2-9.2,27.2-24.7,53.3-53.9l-1.5-1.4c-26,29.2-43,44.6-53.1,53.8-8.4,7.6-11.9,10.8-11.9,14s2.3,4.7,6.4,8.4l6.7,6.3c.4.4,38.9,38.7,48.7,48.9l1.5-1.5c-9.9-10.2-48.3-48.5-48.7-48.8l-6.8-6.4c-3.6-3.2-5.7-5.1-5.7-6.9S581.1,739.9,588.5,733.1Z"/><path class="d" d="M727,972.8c2.4-2.4,4.5-4.3,6.2-5.9,3.7-3.4,5.8-5.3,5.9-7.8s-2.8-5.7-9.7-12.3c-2.9-2.9-6.6-6.4-11-11-11.4-11.6-36.9-37.5-42.9-42.9l-1.4,1.6c6,5.3,31.4,31.1,42.8,42.8,4.5,4.6,8.1,8.1,11.1,11,6,5.8,9,8.8,9,10.8s-2,3.4-5.2,6.3c-1.7,1.6-3.8,3.5-6.2,6-.5.5-48.7,49.2-54.7,54.2l1.4,1.6C678.2,1022.1,726.5,973.3,727,972.8Z"/><path class="d" d="M588.5,946.5c10.2-9.2,27.2-24.7,53.3-53.9l-1.5-1.4c-26,29.2-43,44.6-53.1,53.8-8.4,7.6-11.9,10.7-11.9,14s2.3,4.7,6.4,8.4c1.8,1.7,4.1,3.7,6.7,6.3.4.4,38.9,38.7,48.7,48.8l1.5-1.4c-9.9-10.2-48.3-48.5-48.7-48.9l-6.8-6.3c-3.6-3.2-5.7-5.2-5.7-6.9S581.1,953.2,588.5,946.5Z"/><path class="d" d="M513.7,759.5a78.9,78.9,0,0,1,6.1-5.9c3.8-3.5,5.8-5.4,5.9-7.8s-2.8-5.7-9.7-12.4l-11-10.9c-11.4-11.7-36.9-37.5-42.9-42.9l-1.4,1.5c6,5.4,31.5,31.2,42.8,42.8,4.5,4.6,8.2,8.1,11.1,11,6,5.8,9,8.8,9,10.8s-1.9,3.4-5.2,6.3c-1.7,1.6-3.8,3.5-6.2,6-.5.5-48.7,49.2-54.6,54.2l1.3,1.6C464.9,808.8,513.2,759.9,513.7,759.5Z"/><path class="d" d="M375.2,733.1c10.1-9.2,27.2-24.7,53.3-53.9l-1.6-1.4c-26,29.2-43,44.6-53.1,53.8-8.4,7.6-11.9,10.8-11.9,14s2.3,4.7,6.4,8.4l6.8,6.3,1,1.1c14.4,14.4,39.9,39.7,47.7,47.8l1.4-1.5c-7.8-8-33.2-33.4-47.7-47.8l-1-1c-2.6-2.6-4.9-4.7-6.8-6.4-3.5-3.2-5.7-5.1-5.7-6.9S367.7,739.9,375.2,733.1Z"/><path class="d" d="M513.7,972.8c2.3-2.4,4.4-4.3,6.1-5.9,3.8-3.4,5.8-5.3,5.9-7.8s-2.8-5.7-9.7-12.3c-2.9-2.9-6.5-6.4-11-11-11.4-11.6-36.9-37.5-42.9-42.9l-1.4,1.6c6,5.3,31.4,31.1,42.8,42.8,4.5,4.6,8.2,8.1,11.1,11,6,5.8,9,8.8,9,10.8s-1.9,3.4-5.2,6.3c-1.7,1.6-3.8,3.5-6.2,6-.5.5-48.7,49.2-54.6,54.2l1.3,1.6C464.8,1022.2,513.2,973.3,513.7,972.8Z"/><path class="d" d="M375.2,946.5c10.1-9.2,27.2-24.7,53.3-53.9l-1.6-1.4c-26,29.2-43,44.6-53.1,53.8-8.4,7.6-11.9,10.7-11.9,14s2.3,4.7,6.4,8.4c1.9,1.7,4.2,3.7,6.8,6.3.3.4,38.8,38.7,48.7,48.8l1.4-1.4c-9.8-10.2-48.3-48.5-48.7-48.9-2.6-2.6-4.9-4.6-6.8-6.3-3.5-3.2-5.7-5.2-5.7-6.9S367.7,953.2,375.2,946.5Z"/><path class="d" d="M290.2,297.2c4.4,4.5,8.1,8.1,11,10.9,6,5.9,9.1,8.8,9,10.9s-1.9,3.3-5.1,6.3-3.9,3.5-6.3,6c-.5.4-48.7,49.2-54.6,54.2l1.3,1.6c6-5.1,54.3-53.9,54.8-54.4,2.4-2.4,4.5-4.3,6.2-5.9,3.7-3.4,5.8-5.3,5.8-7.8s-2.8-5.7-9.6-12.3c-3-2.9-6.6-6.4-11.1-11-11.3-11.6-36.8-37.5-42.9-42.9l-1.3,1.6C253.4,259.7,278.8,285.5,290.2,297.2Z"/><path class="d" d="M160.4,304.8c-8.4,7.7-11.8,10.8-11.8,14.1s2.2,4.7,6.4,8.4c1.8,1.7,4.1,3.7,6.7,6.3.4.4,38.8,38.6,48.7,48.8l1.5-1.4c-10-10.2-48.4-48.5-48.8-48.9-2.6-2.6-4.9-4.7-6.8-6.3-3.5-3.2-5.7-5.2-5.7-6.9s3.8-5.8,11.2-12.5a668.7,668.7,0,0,0,53.3-53.9l-1.6-1.4C187.5,280.2,170.6,295.6,160.4,304.8Z"/><path class="d" d="M300.3,759.5c2.4-2.5,4.5-4.4,6.2-5.9,3.7-3.5,5.8-5.4,5.8-7.8s-2.8-5.7-9.6-12.4c-3-2.8-6.6-6.4-11.1-10.9-11.3-11.7-36.8-37.5-42.9-42.9l-1.3,1.5c6,5.4,31.4,31.2,42.8,42.8,4.4,4.6,8.1,8.1,11,11,6,5.8,9.1,8.8,9,10.8s-1.9,3.4-5.1,6.3-3.9,3.5-6.3,6c-.4.5-48.7,49.2-54.6,54.2l1.3,1.6C251.5,808.8,299.8,759.9,300.3,759.5Z"/><path class="d" d="M161.8,733.1c10.2-9.2,27.2-24.7,53.3-53.9l-1.6-1.4c-26,29.2-42.9,44.6-53.1,53.8-8.4,7.6-11.8,10.8-11.8,14s2.2,4.7,6.4,8.4l6.7,6.3c.4.4,38.8,38.7,48.7,48.9l1.5-1.5c-10-10.2-48.4-48.5-48.8-48.8-2.6-2.6-4.9-4.7-6.7-6.4-3.6-3.2-5.8-5.1-5.8-6.9S154.4,739.9,161.8,733.1Z"/><path class="d" d="M716.9,510.5c4.5,4.6,8.1,8.2,11.1,11,6,5.9,9,8.8,9,10.9s-2,3.3-5.2,6.3c-1.7,1.5-3.8,3.5-6.4,6.1-4.9,5-48.9,49.3-54.5,54l1.4,1.6c5.6-4.7,49.6-49.2,54.7-54.3,2.4-2.4,4.5-4.4,6.2-5.9,3.7-3.5,5.8-5.4,5.9-7.8s-2.8-5.7-9.7-12.4c-2.9-2.8-6.6-6.4-11-10.9-11.4-11.7-36.9-37.5-42.9-42.9l-1.4,1.5C680.1,473.1,705.5,498.9,716.9,510.5Z"/><path class="d" d="M587.2,518.2c-8.4,7.6-11.9,10.8-11.9,14s2.3,4.8,6.4,8.5c1.8,1.6,4.1,3.7,6.7,6.3.4.3,38.7,38.5,48.7,48.8l1.5-1.4c-10-10.3-48.4-48.6-48.7-48.9l-6.8-6.4c-3.6-3.2-5.7-5.1-5.7-6.9s3.7-5.7,11.1-12.5c10.2-9.2,27.2-24.6,53.3-53.9l-1.5-1.4C614.3,493.6,597.3,509,587.2,518.2Z"/><path class="d" d="M1153.8,972.8l6.1-5.9c3.8-3.4,5.9-5.3,5.9-7.8s-2.8-5.7-9.7-12.3c-2.9-2.9-6.5-6.4-11-11-11.4-11.6-36.9-37.5-42.9-42.9l-1.4,1.6c6,5.3,31.5,31.1,42.9,42.8,4.4,4.6,8.1,8.1,11,11,6,5.8,9.1,8.8,9,10.8s-1.9,3.4-5.2,6.3c-1.7,1.6-3.8,3.5-6.2,6-.5.5-48.7,49.2-54.6,54.2l1.3,1.6C1105,1022.1,1153.3,973.3,1153.8,972.8Z"/><path class="d" d="M1015.3,946.5c10.2-9.2,27.2-24.7,53.3-53.9l-1.6-1.4c-26,29.2-43,44.6-53.1,53.8-8.4,7.6-11.9,10.7-11.9,14s2.3,4.7,6.5,8.4c1.8,1.7,4.1,3.7,6.7,6.3.3.4,38.8,38.7,48.7,48.8l1.5-1.4c-9.9-10.2-48.4-48.5-48.8-48.9-2.6-2.6-4.9-4.6-6.8-6.3-3.5-3.2-5.7-5.2-5.7-6.9S1007.8,953.2,1015.3,946.5Z"/><path class="d" d="M930.3,510.5c4.4,4.6,8.1,8.2,11,11,6.1,5.9,9.1,8.8,9.1,10.9s-2,3.3-5.2,6.3-3.8,3.5-6.4,6.1c-5,5-48.9,49.3-54.5,54l1.3,1.6c5.7-4.7,49.7-49.2,54.8-54.3,2.4-2.4,4.5-4.4,6.2-5.9,3.7-3.5,5.8-5.4,5.8-7.8s-2.8-5.7-9.6-12.4c-3-2.8-6.6-6.4-11-10.9-11.4-11.7-36.9-37.5-42.9-42.9l-1.4,1.5C893.5,473.1,918.9,498.9,930.3,510.5Z"/><path class="d" d="M800.5,518.2c-8.4,7.6-11.8,10.8-11.8,14s2.3,4.8,6.4,8.5c1.8,1.6,4.1,3.7,6.7,6.3.3.3,38.8,38.6,48.7,48.8l1.5-1.4c-9.9-10.2-48.4-48.6-48.8-48.9-2.6-2.6-4.9-4.7-6.7-6.4-3.6-3.2-5.8-5.1-5.8-6.9s3.8-5.7,11.2-12.5c10.2-9.2,27.2-24.6,53.3-53.9l-1.5-1.4C827.6,493.6,810.7,509,800.5,518.2Z"/><path class="d" d="M1153.8,1186.2l6.1-5.9c3.8-3.4,5.9-5.3,5.9-7.8s-2.8-5.7-9.7-12.3l-11-11c-11.4-11.7-36.9-37.5-42.9-42.9l-1.4,1.5c6,5.4,31.5,31.2,42.9,42.9,4.4,4.5,8.1,8.1,11,10.9,6,5.9,9.1,8.8,9,10.9s-1.9,3.3-5.2,6.3c-1.7,1.5-3.8,3.5-6.3,6.1-5,5-48.9,49.4-54.5,54.1l1.3,1.5C1104.7,1235.8,1148.7,1191.4,1153.8,1186.2Z"/><path class="d" d="M1015.3,1159.9c10.2-9.3,27.2-24.7,53.3-54l-1.6-1.3c-26,29.1-43,44.5-53.1,53.7-8.4,7.6-11.9,10.8-11.9,14.1s2.3,4.7,6.5,8.4c1.8,1.6,4.1,3.7,6.7,6.3.3.3,38.8,38.7,48.7,48.8l1.5-1.4c-9.9-10.2-48.4-48.5-48.8-48.9-2.6-2.6-4.9-4.7-6.8-6.3-3.5-3.3-5.7-5.2-5.7-6.9S1007.8,1166.6,1015.3,1159.9Z"/><path class="d" d="M300.3,1186.2c2.4-2.4,4.5-4.4,6.2-5.9,3.7-3.4,5.8-5.3,5.8-7.8s-2.8-5.7-9.6-12.3c-3-2.9-6.6-6.4-11.1-11-10.9-11.2-36.8-37.5-42.9-42.9l-1.3,1.5c6,5.4,31.9,31.7,42.8,42.9,4.4,4.5,8.1,8.1,11,10.9,6,5.9,9.1,8.8,9,10.9s-1.9,3.3-5.1,6.3-3.9,3.5-6.3,6c-.5.4-48.7,49.2-54.6,54.2l1.3,1.5C251.5,1235.5,299.8,1186.7,300.3,1186.2Z"/><path class="d" d="M161.8,1159.9c10.2-9.3,27.2-24.7,53.3-54l-1.6-1.3c-26,29.1-42.9,44.5-53.1,53.7-8.4,7.6-11.8,10.8-11.8,14.1s2.2,4.7,6.4,8.4c1.8,1.6,4.1,3.7,6.7,6.3.4.3,38.8,38.6,48.7,48.8l1.5-1.4c-10-10.2-48.4-48.5-48.8-48.9-2.6-2.6-4.9-4.7-6.7-6.3-3.6-3.3-5.8-5.2-5.8-6.9S154.4,1166.6,161.8,1159.9Z"/><path class="d" d="M290.2,83.8c4.4,4.6,8.1,8.1,11,11,6,5.8,9.1,8.8,9,10.8s-1.9,3.4-5.1,6.3-3.9,3.5-6.3,6c-.4.5-48.7,49.2-54.6,54.2l1.3,1.6c6-5,54.3-53.9,54.8-54.4,2.4-2.4,4.5-4.3,6.2-5.9,3.7-3.4,5.8-5.3,5.8-7.8s-2.8-5.6-9.6-12.3L291.6,82.4c-11.4-11.7-36.8-37.6-42.9-43L247.4,41C253.3,46.3,278.8,72.1,290.2,83.8Z"/><path class="d" d="M160.4,91.5c-8.4,7.6-11.8,10.7-11.8,14s2.2,4.7,6.4,8.4c1.8,1.7,4.1,3.7,6.7,6.3.4.4,38.8,38.6,48.7,48.9l1.5-1.5c-10-10.2-48.4-48.5-48.8-48.9-2.6-2.6-4.9-4.6-6.7-6.3-3.6-3.2-5.8-5.2-5.8-6.9s3.8-5.7,11.2-12.5C172,83.8,189,68.3,215.1,39.1l-1.6-1.4C187.5,66.9,170.6,82.3,160.4,91.5Z"/><path class="d" d="M513.7,1186.2c2.3-2.4,4.4-4.4,6.1-5.9,3.8-3.4,5.8-5.3,5.9-7.8s-2.8-5.7-9.7-12.3l-11-11c-11.4-11.7-36.9-37.5-42.9-42.9l-1.4,1.5c6,5.4,31.5,31.2,42.8,42.9l11.1,10.9c6,5.9,9,8.8,9,10.9s-1.9,3.3-5.2,6.3c-1.7,1.5-3.8,3.5-6.3,6.1-5,5-48.9,49.4-54.5,54.1l1.3,1.5C464.6,1235.8,508.5,1191.4,513.7,1186.2Z"/><path class="d" d="M375.2,1159.9a675.7,675.7,0,0,0,53.3-54l-1.6-1.3c-26,29.1-43,44.5-53.1,53.7-8.4,7.6-11.9,10.8-11.9,14.1s2.3,4.7,6.4,8.4c1.9,1.6,4.2,3.7,6.8,6.3l.5.5c9.1,9.1,39.6,39.5,48.2,48.3l1.4-1.4c-8.6-8.9-39-39.3-48.2-48.4l-.5-.5c-2.6-2.6-4.9-4.7-6.8-6.3-3.5-3.3-5.7-5.2-5.7-6.9S367.7,1166.6,375.2,1159.9Z"/><path class="d" d="M727,1186.2c2.4-2.4,4.5-4.4,6.2-5.9,3.7-3.4,5.8-5.3,5.9-7.8s-2.8-5.7-9.7-12.3c-2.9-2.9-6.6-6.4-11-11-11.4-11.7-36.9-37.5-42.9-42.9l-1.4,1.5c6,5.4,31.4,31.2,42.8,42.9,4.5,4.5,8.1,8.1,11.1,10.9,6,5.9,9,8.8,9,10.9s-2,3.3-5.2,6.3c-1.7,1.5-3.8,3.5-6.4,6.1-5,5-48.9,49.4-54.5,54.1l1.4,1.5C677.9,1235.8,721.9,1191.4,727,1186.2Z"/><path class="d" d="M588.5,1159.9c10.2-9.3,27.2-24.7,53.3-54l-1.5-1.3c-26,29.1-43,44.5-53.1,53.7-8.4,7.6-11.9,10.8-11.9,14.1s2.3,4.7,6.4,8.4c1.8,1.6,4.1,3.7,6.7,6.3.4.3,38.9,38.7,48.7,48.8l1.5-1.4c-9.9-10.2-48.3-48.5-48.7-48.9l-6.8-6.3c-3.6-3.3-5.7-5.2-5.7-6.9S581.1,1166.6,588.5,1159.9Z"/><path class="d" d="M716.9,83.8c4.5,4.6,8.1,8.1,11.1,11,6,5.8,9,8.8,9,10.8s-2,3.4-5.2,6.3c-1.7,1.6-3.8,3.5-6.2,6-.5.5-48.7,49.2-54.7,54.2l1.4,1.6c5.9-5.1,54.2-53.9,54.7-54.4,2.4-2.4,4.5-4.3,6.2-5.9,3.7-3.4,5.8-5.3,5.9-7.8s-2.8-5.6-9.7-12.3c-2.9-2.9-6.6-6.4-11-10.9-11.4-11.7-36.9-37.6-42.9-43L674.1,41C680.1,46.3,705.5,72.1,716.9,83.8Z"/><path class="d" d="M587.2,91.5c-8.4,7.6-11.9,10.7-11.9,14s2.3,4.7,6.4,8.4c1.8,1.7,4.1,3.7,6.7,6.3.4.4,38.9,38.7,48.7,48.9l1.5-1.5c-9.9-10.1-48.3-48.5-48.7-48.9l-6.8-6.3c-3.6-3.2-5.7-5.2-5.7-6.9s3.7-5.7,11.1-12.5c10.2-9.2,27.2-24.7,53.3-53.9l-1.5-1.4C614.3,66.9,597.3,82.3,587.2,91.5Z"/><path class="d" d="M940.4,1186.2c2.4-2.4,4.5-4.4,6.2-5.9,3.7-3.4,5.8-5.3,5.8-7.8s-2.8-5.7-9.6-12.3c-3-2.9-6.6-6.4-11-11-11.4-11.6-36.9-37.5-42.9-42.9l-1.4,1.5c6,5.4,31.4,31.2,42.8,42.9,4.4,4.5,8.1,8.1,11,10.9,6.1,5.9,9.1,8.8,9.1,10.9s-2,3.3-5.2,6.3-3.8,3.5-6.4,6.1c-5,5-48.9,49.4-54.5,54.1l1.3,1.5C891.3,1235.8,935.3,1191.4,940.4,1186.2Z"/><path class="d" d="M801.9,1159.9c10.2-9.3,27.2-24.7,53.3-54l-1.5-1.3c-26.1,29.1-43,44.5-53.2,53.7-8.4,7.6-11.8,10.8-11.8,14.1s2.3,4.7,6.4,8.4c1.8,1.6,4.1,3.7,6.7,6.3.3.3,38.8,38.6,48.7,48.8l1.5-1.4c-9.9-10.2-48.4-48.6-48.8-48.9-2.6-2.6-4.9-4.7-6.7-6.3-3.6-3.3-5.8-5.2-5.8-6.9S794.5,1166.6,801.9,1159.9Z"/><path class="d" d="M930.3,83.8c4.4,4.6,8.1,8.1,11,11,6.1,5.8,9.1,8.8,9.1,10.8s-2,3.4-5.2,6.3-3.8,3.5-6.3,6c-.4.5-48.7,49.2-54.6,54.2l1.3,1.6c6-5,54.3-53.9,54.8-54.4,2.4-2.4,4.5-4.3,6.2-5.9,3.7-3.4,5.8-5.3,5.8-7.8s-2.8-5.6-9.6-12.3c-3-2.9-6.6-6.4-11-10.9-11.4-11.7-36.9-37.5-42.9-43L887.5,41C893.5,46.4,918.9,72.1,930.3,83.8Z"/><path class="d" d="M800.5,91.5c-8.4,7.6-11.8,10.7-11.8,14s2.3,4.7,6.4,8.4c1.8,1.7,4.1,3.7,6.7,6.3.4.4,38.8,38.6,48.7,48.9l1.5-1.5c-9.9-10.2-48.4-48.5-48.8-48.9-2.6-2.6-4.9-4.6-6.7-6.3-3.6-3.2-5.8-5.2-5.8-6.9s3.8-5.7,11.2-12.5c10.2-9.2,27.2-24.7,53.3-53.9l-1.5-1.4C827.6,66.9,810.7,82.3,800.5,91.5Z"/><path class="d" d="M1153.8,759.5c2.4-2.5,4.5-4.4,6.1-5.9,3.8-3.5,5.9-5.4,5.9-7.8s-2.8-5.7-9.7-12.4l-11-10.9c-11.4-11.7-36.9-37.5-42.9-42.9l-1.4,1.5c6,5.4,31.5,31.2,42.9,42.8,4.4,4.6,8.1,8.1,11,11,6,5.8,9.1,8.8,9,10.8s-1.9,3.4-5.2,6.3c-1.7,1.6-3.8,3.5-6.2,6-.5.5-48.7,49.2-54.6,54.2l1.3,1.6C1105,808.8,1153.3,759.9,1153.8,759.5Z"/><path class="d" d="M1015.3,733.1c10.2-9.2,27.2-24.7,53.3-53.9l-1.6-1.4c-26,29.2-43,44.6-53.1,53.8-8.4,7.6-11.9,10.8-11.9,14s2.3,4.7,6.5,8.4l6.7,6.3c.3.4,38.8,38.7,48.7,48.9l1.5-1.5c-9.9-10.1-48.4-48.5-48.8-48.8-2.6-2.6-4.9-4.7-6.8-6.4-3.5-3.2-5.7-5.1-5.7-6.9S1007.8,739.9,1015.3,733.1Z"/><rect class="d" x="1271.1" y="1275.6" width="7.7" height="2.06"/><path class="d" d="M1228.4,1233.1c-9.9-9.8-22.3-22-37-36.7l-.7-.7-.8.7-38,37.9c-18.2,18.2-26.5,26.5-27.7,27.4l1.2,1.7c1.4-1,8.6-8.3,28-27.6,9.4-9.5,21.7-21.7,37.3-37.2q21.6,21.6,36.3,36c14.6,14.4,24.2,24,27.4,27.7l1.6-1.3C1252.7,1257.2,1243.6,1248.1,1228.4,1233.1Z"/><rect class="d" x="1102.9" y="1275.6" width="7.3" height="2.06"/><rect class="d" x="1057.8" y="1275.6" width="7.8" height="2.06"/><path class="d" d="M1015.1,1233.2,978,1196.4l-.7-.7-.7.7-38.1,37.9c-18.2,18.2-26.5,26.5-27.7,27.4l1.2,1.7c1.4-1,8.6-8.3,28-27.6l37.3-37.2c14.4,14.4,26.6,26.4,36.3,36,15.1,15,24.3,24,27.4,27.7l1.6-1.3C1039.4,1257.2,1030.2,1248.1,1015.1,1233.2Z"/><rect class="d" x="889.5" y="1275.6" width="7.3" height="2.06"/><rect class="d" x="844.4" y="1275.6" width="7.8" height="2.06"/><path class="d" d="M801.6,1233.1l-36.9-36.7-.8-.7-.7.7-38,37.9c-18.2,18.2-26.5,26.5-27.8,27.4l1.3,1.7c1.3-1,8.6-8.3,27.9-27.6l37.3-37.2,36.2,35.9c14.7,14.5,24.4,24.1,27.6,27.8l1.5-1.3C826,1257.2,816.8,1248.1,801.6,1233.1Z"/><rect class="d" x="676.2" y="1275.6" width="7.3" height="2.06"/><rect class="d" x="417.7" y="1275.6" width="7.8" height="2.06"/><path class="d" d="M375,1233.2q-15-14.7-37.1-36.8l-.7-.7-.7.7-38.4,38.2c-18,18-26.2,26.2-27.4,27.1l1.2,1.7c1.4-1,8.5-8.2,27.7-27.3l37.6-37.5c14.4,14.4,26.6,26.4,36.3,36,15.1,15,24.2,24,27.4,27.7l1.6-1.3C399.3,1257.2,390.1,1248.1,375,1233.2Z"/><rect class="d" x="249.4" y="1275.6" width="7.3" height="2.06"/><rect class="d" x="204.3" y="1275.6" width="7.8" height="2.06"/><path class="d" d="M161.6,1233.2l-37.1-36.8-.7-.7-.7.7-38.2,38.1c-18.1,18.1-26.4,26.3-27.6,27.2l1.2,1.7c1.4-1,8.6-8.2,27.9-27.5l37.4-37.3c14.4,14.4,26.6,26.4,36.4,36,15.1,15,24.2,24,27.3,27.7l1.6-1.3C185.9,1257.2,176.7,1248.1,161.6,1233.2Z"/><rect class="d" x="36" y="1275.6" width="7.3" height="2.06"/><rect class="d" x="631" y="1275.6" width="7.7" height="2.06"/><path class="d" d="M588.4,1233.3l-37.1-36.9-.7-.7-.8.7-38.2,38.1c-18.1,18.1-26.3,26.3-27.5,27.2l1.2,1.7c1.3-1,8.5-8.2,27.8-27.5l37.5-37.3c14.4,14.4,26.6,26.5,36.4,36.1,15,14.9,24.1,23.9,27.3,27.6l1.6-1.3C612.6,1257.2,603.5,1248.2,588.4,1233.3Z"/><rect class="d" x="462.8" y="1275.6" width="7.3" height="2.06"/><path class="d" d="M726.9,44.5c11.6,12.2,23.6,24.8,36.6,36.1l.8.7.6-.7C836.2,7.5,837.5,7.1,847.7,3.4L851.6,2,850.9.1,847,1.5c-10.5,3.7-11.9,4.2-82.9,76.9C751.4,67.3,739.7,55,728.4,43.1,708.8,22.6,691.9,4.9,676.5,0l-.6,2C690.8,6.7,707.5,24.2,726.9,44.5Z"/><path class="d" d="M513.5,44.5c11.6,12.2,23.6,24.8,36.6,36.1l.8.7.7-.7c71.2-73,72.5-73.5,82.9-77.2L638.2,2,637.5.1l-3.7,1.4c-11,3.9-12.2,4.3-83,76.9C538.1,67.3,526.3,55,515,43.1,495.4,22.6,478.6,4.9,463.1,0l-.6,2C477.4,6.7,494.1,24.2,513.5,44.5Z"/><path class="d" d="M940.2,44.5c11.6,12.2,23.6,24.8,36.7,36.1l.7.7.7-.7c71.3-73.1,72.6-73.5,82.8-77.2L1065,2l-.8-1.9-3.8,1.4c-10.6,3.7-11.9,4.2-82.9,76.9C964.8,67.3,953.1,55,941.7,43.1,922.2,22.6,905.3,4.9,889.8,0l-.6,2C904.2,6.7,920.9,24.2,940.2,44.5Z"/><path class="d" d="M300.1,44.5c11.6,12.2,23.6,24.8,36.7,36.1l.7.7.7-.7C409.5,7.5,410.8,7.1,421,3.4L424.9,2,424.1.1l-3.8,1.4c-10.6,3.7-11.9,4.2-82.9,76.9C324.7,67.3,313,55,301.6,43.1,282.1,22.6,265.2,4.9,249.7,0l-.6,2C264.1,6.7,280.8,24.2,300.1,44.5Z"/><path class="d" d="M86.8,44.5c11.6,12.2,23.5,24.8,36.6,36.1l.7.7.7-.7C196.1,7.5,197.4,7.1,207.6,3.4L211.5,2,210.7.1l-3.8,1.4C196.4,5.2,195,5.7,124,78.4,111.3,67.3,99.6,55,88.3,43.1,68.7,22.6,51.8,4.9,36.4,0l-.7,2C50.7,6.7,67.4,24.2,86.8,44.5Z"/><path class="d" d="M1153.6,44.5c11.6,12.2,23.6,24.8,36.7,36.1l.7.7.7-.7c71.3-73.1,72.6-73.5,82.8-77.2l3.9-1.4-.8-1.9-3.8,1.4c-10.6,3.7-12,4.2-82.9,76.9-12.7-11.1-24.5-23.4-35.8-35.3-19.5-20.5-36.4-38.2-51.9-43.1l-.6,2C1117.6,6.7,1134.3,24.2,1153.6,44.5Z"/><path class="d" d="M1295.4,444.4l-2-.5c-2.8,11.2-5.3,13.7-46.5,54.7L1214.3,531l-.7.7.7.7c24.5,26.4,41.4,42.4,52.6,53,16.3,15.4,22.4,21.2,26.5,34.2l2-.7c-4.3-13.5-10.5-19.3-27.1-35-11-10.4-27.7-26.2-51.8-52.2l31.8-31.7C1290,458.7,1292.5,456.2,1295.4,444.4Z"/><path class="d" d="M1246.9,71.8l-32.6,32.4-.7.7.7.8c24.5,26.4,41.4,42.4,52.6,53,16.3,15.4,22.4,21.1,26.5,34.1l2-.6c-4.3-13.5-10.5-19.4-27-35-11.1-10.5-27.8-26.3-51.9-52.2l31.8-31.7c41.7-41.4,44.2-43.9,47.1-55.6l-2-.5C1290.6,28.4,1288.1,30.8,1246.9,71.8Z"/><path class="d" d="M1295.4,871.2l-2-.5c-2.8,11.2-5.3,13.6-46.4,54.4l-32.7,32.6-.7.7.7.7c24.5,26.5,41.4,42.5,52.6,53.1,16.3,15.3,22.4,21.1,26.5,34.1l2-.6c-4.3-13.5-10.5-19.4-27.1-35-11-10.5-27.7-26.3-51.8-52.2l32-31.9C1290,885.4,1292.5,882.9,1295.4,871.2Z"/><path class="d" d="M1268.3,1224c-11-10.4-27.7-26.2-51.8-52.2l31.9-31.7c41.6-41.3,44.1-43.8,47-55.6l-2-.5c-2.8,11.2-5.3,13.7-46.5,54.7l-32.6,32.4-.7.7.7.7c24.5,26.4,41.4,42.4,52.6,53,16.3,15.4,22.4,21.2,26.5,34.2l2-.7C1291.1,1245.5,1284.9,1239.7,1268.3,1224Z"/><path class="d" d="M1295.4,231l-2-.5c-2.8,11.3-5.3,13.7-46.5,54.7l-32.6,32.4-.7.7.7.7c24.5,26.5,41.4,42.5,52.6,53.1,16.3,15.3,22.4,21.1,26.5,34.1l2-.6c-4.3-13.5-10.5-19.4-27.1-35-11-10.5-27.7-26.3-51.8-52.2l31.8-31.8C1290,245.3,1292.5,242.8,1295.4,231Z"/><path class="d" d="M1295.4,657.8l-2-.5c-2.8,11.2-5.3,13.7-46.4,54.5l-32.7,32.5-.7.7.7.8c24.5,26.4,41.4,42.4,52.6,53,16.3,15.4,22.4,21.1,26.5,34.1l2-.6c-4.3-13.5-10.5-19.4-27.1-35-11-10.5-27.7-26.3-51.8-52.2l32-31.9C1290,672,1292.5,669.6,1295.4,657.8Z"/><path class="d" d="M371.2,471.1c-14.1,14.2-28.8,28.9-33.7,34-1.2-.6-4.8-4.2-35.3-34.7l-28.8-28.8-1.5,1.5,28.8,28.8c34.8,34.8,34.8,34.8,36.3,35.3h.3l.7.3.5-.5c4.4-4.6,19.5-19.8,34.2-34.5s29.3-29.3,31.1-31.4l-1.5-1.4C400.5,441.8,386.3,456.1,371.2,471.1Z"/><path class="d" d="M363.8,368.6l-25.2-25-1,.9-1.4-1.4c-4,4.1-64.2,63.9-65.5,65.1l1.2,1.7c.8-.6,59.2-58.8,65.3-64.8,7.1,7.1,16.1,16.1,25.2,25,17.8,17.7,36.2,35.9,38.5,38.7l1.6-1.3C400.2,404.6,382.5,387.2,363.8,368.6Z"/><path class="d" d="M584.6,471.1l-33.8,34c-1.2-.6-4.8-4.2-35.5-34.9l-28.5-28.6-1.5,1.5,28.5,28.5c35.1,35.1,35.1,35.1,36.6,35.6h.3l.6.3.5-.5,34.3-34.5c15-15.1,29.2-29.3,31.1-31.4l-1.5-1.4Z"/><path class="d" d="M577.3,368.8,552,343.6l-1,.9-1.4-1.4-65.5,65.1,1.2,1.7,65.3-64.8,25.3,25.1c17.7,17.6,36.1,35.8,38.4,38.6l1.6-1.3C613.5,404.7,596,387.2,577.3,368.8Z"/><path class="d" d="M798,471.1l-33.8,34c-1.2-.6-4.8-4.2-35.3-34.7l-28.8-28.8-1.4,1.5,28.8,28.8c34.7,34.8,34.7,34.8,36.3,35.3h.3l.6.3.5-.5c4.4-4.6,19.6-19.8,34.2-34.5s29.3-29.3,31.2-31.4l-1.6-1.4C827.2,441.8,813,456.1,798,471.1Z"/><path class="d" d="M790.6,368.7l-25.3-25.1-.9.9-1.4-1.4c-4.1,4.1-64.2,63.9-65.6,65.1l1.3,1.7,65.2-64.8,25.3,25.1c17.8,17.6,36.2,35.8,38.4,38.6l1.6-1.3C826.9,404.6,809.3,387.2,790.6,368.7Z"/><path class="d" d="M1012,470.4l-34.4,34.7c-1.2-.6-4.8-4.2-35.3-34.7l-28.8-28.8-1.4,1.5,28.7,28.8c34.8,34.8,34.8,34.8,36.3,35.3h.3l.7.3.5-.5c4.3-4.5,19.9-20.1,34.9-35.2s28.8-28.9,30.4-30.7l-1.5-1.4C1040.8,441.6,1026.8,455.6,1012,470.4Z"/><path class="d" d="M1003.9,368.6l-25.2-25-.9.9-1.5-1.4c-4,4.1-64.2,63.9-65.5,65.1l1.2,1.7c.8-.6,59.2-58.8,65.3-64.8,7.1,7.1,16.1,16.1,25.2,25,17.8,17.7,36.3,35.9,38.5,38.7l1.6-1.3C1040.3,404.6,1022.6,387.2,1003.9,368.6Z"/><path class="d" d="M1257.3,441.2l-1.5-1.4c-1.7,1.8-15.7,16-30.7,30.9l-34.2,34.4c-1.1-.6-5.3-4.7-37-36.5l-27-27-1.5,1.5,27,27c36.7,36.7,36.7,36.7,38.1,37.1h.3l.7.3.5-.5c4.2-4.5,19.7-20,34.6-34.9S1255.6,443.1,1257.3,441.2Z"/><path class="d" d="M1217.4,368.8l-25.3-25.2-1,.9-1.4-1.4c-4,4.1-64.2,63.9-65.5,65.1l1.2,1.7c.8-.6,59.2-58.8,65.3-64.8l25.3,25.1c17.8,17.6,36.1,35.8,38.4,38.6l1.6-1.3C1253.7,404.7,1236.1,387.2,1217.4,368.8Z"/><path class="d" d="M977.3,771.8c7.1,7.2,16.2,16.2,25.3,25.1,17.8,17.7,36.2,35.9,38.4,38.6l1.6-1.3c-2.3-2.8-19.9-20.3-38.6-38.7l-25.3-25.2-.9,1-1.5-1.4c-4,4.1-64.2,63.9-65.5,65.1l1.2,1.6C912.8,836.1,971.2,777.9,977.3,771.8Z"/><path class="d" d="M977.1,933.9h.3l.7.3.5-.5c4.3-4.5,19.9-20.1,35-35.2s28.7-28.8,30.3-30.6l-1.5-1.4c-1.6,1.8-15.5,15.7-30.3,30.5s-29.6,29.7-34.5,34.8c-1.2-.6-4.8-4.2-35.2-34.6l-28.9-28.9-1.4,1.4L941,898.7C975.6,933.4,975.6,933.4,977.1,933.9Z"/><path class="d" d="M763.9,771.8,789.3,797c17.7,17.6,36.1,35.8,38.3,38.5l1.6-1.3c-2.3-2.8-19.9-20.2-38.5-38.7l-25.4-25.2-.9,1-1.4-1.4L697.4,835l1.3,1.6C699.4,836.1,757.9,777.9,763.9,771.8Z"/><path class="d" d="M763.8,933.9h.3l.6.3.5-.5c4.3-4.5,19.8-20.1,34.9-35.1L830.6,868l-1.6-1.4c-1.6,1.8-15.6,15.8-30.4,30.6s-29.5,29.6-34.4,34.7c-1.2-.6-4.8-4.2-35.1-34.6l-29-28.9-1.4,1.4,28.9,29C762.3,933.4,762.3,933.4,763.8,933.9Z"/><path class="d" d="M550.6,771.8c7.1,7.2,16.2,16.2,25.3,25.2,17.8,17.6,36.1,35.8,38.4,38.5l1.6-1.3c-2.4-2.8-19.9-20.2-38.5-38.6-9.1-9.1-18.3-18.1-25.4-25.3l-1,1-1.4-1.4L484.1,835l1.2,1.6C486,836.1,544.5,777.9,550.6,771.8Z"/><path class="d" d="M550.4,933.9h.3l.6.3.5-.5c4.3-4.5,19.8-20,34.8-35L617.2,868l-1.5-1.4-30.6,30.8c-14.5,14.5-29.4,29.4-34.3,34.5-1.2-.6-4.8-4.2-35.4-34.9l-28.6-28.6-1.5,1.4L514,898.5C548.9,933.4,548.9,933.4,550.4,933.9Z"/><path class="d" d="M337.2,771.8c7.1,7.2,16.2,16.2,25.3,25.2,17.8,17.6,36.1,35.8,38.4,38.5l1.6-1.3c-2.3-2.8-19.9-20.2-38.6-38.7l-25.3-25.2-1,1-1.4-1.4c-4,4.1-64.2,63.9-65.5,65.1l1.2,1.6C272.7,836.1,331.1,777.9,337.2,771.8Z"/><path class="d" d="M337,933.9h.3l.7.3.5-.5c4.4-4.6,19.5-19.8,34.2-34.5S402,870,403.8,868l-1.5-1.4c-1.8,2-16,16.2-31.1,31.3s-28.8,28.8-33.7,34c-1.2-.6-4.8-4.2-35.2-34.6l-28.9-28.9-1.5,1.4,28.9,28.9C335.5,933.4,335.5,933.4,337,933.9Z"/><path class="d" d="M58.5,836.6c.8-.5,59.3-58.7,65.3-64.8L149.1,797c17.8,17.6,36.2,35.8,38.4,38.5l1.6-1.3c-2.3-2.8-19.9-20.2-38.5-38.7l-25.4-25.2-.9,1-1.4-1.4L57.3,835Z"/><path class="d" d="M123.6,933.9h.3l.7.3.5-.5c4.4-4.6,19.6-19.8,34.3-34.5L190.5,868l-1.6-1.4c-1.8,2-16,16.2-31,31.2s-28.8,28.9-33.8,34.1c-1.2-.6-4.8-4.2-35.4-34.9L60,868.4l-1.4,1.4,28.6,28.7C122.1,933.4,122.1,933.4,123.6,933.9Z"/><path class="d" d="M1257.3,654.6l-1.5-1.4L1225.2,684l-34.3,34.5c-1.1-.6-4.5-4-34-33.5l-30-30-1.5,1.4,30.1,30.1c33.5,33.5,33.5,33.5,35,34l.3.2.7.2.5-.5c4.2-4.5,19.7-20,34.7-34.9Z"/><path class="d" d="M1228.5,593.1c-10-9.9-22.4-22.1-37.1-36.8l-.7-.7-.8.7-38.4,38.3c-17.9,17.9-26.1,26.1-27.3,27l1.2,1.7c1.4-1.1,8.5-8.2,27.6-27.3l37.7-37.5q21.6,21.6,36.3,36c14.6,14.4,24.2,23.9,27.4,27.7l1.6-1.3C1252.7,617,1243.6,608,1228.5,593.1Z"/><path class="d" d="M123.6,507.2h.3l.7.3.5-.5c4.4-4.6,19.6-19.8,34.2-34.5s29.3-29.3,31.2-31.4l-1.6-1.4c-1.8,2-16,16.3-31,31.3s-28.9,28.9-33.8,34c-1.2-.6-4.8-4.2-35.5-34.9L60,441.6l-1.4,1.5,28.5,28.5C122.1,506.7,122.1,506.7,123.6,507.2Z"/><path class="d" d="M187.5,408.8l1.6-1.3c-2.3-2.9-20-20.4-38.7-38.9l-25.2-25-.9.9-1.4-1.4c-4.1,4.1-64.2,63.9-65.6,65.1l1.3,1.7,65.2-64.8,25.1,25C166.8,387.7,185.3,406,187.5,408.8Z"/><path class="d" d="M1257.3,227.8l-1.5-1.3c-1.8,2-16,16.2-31.1,31.3s-28.8,28.8-33.8,34c-1.1-.6-4.5-4-34-33.5l-30-30.1-1.5,1.5,30.1,30c33.5,33.6,33.5,33.6,35,34.1h.3l.7.3.5-.5c4.4-4.6,19.5-19.8,34.2-34.5S1255.4,229.9,1257.3,227.8Z"/><path class="d" d="M1217.4,155.4c-9.1-9-18.2-18-25.3-25.2l-1,1-1.4-1.4-65.5,65.1,1.2,1.6c.8-.5,59.2-58.7,65.3-64.8,7.1,7.2,16.2,16.2,25.3,25.2,17.8,17.6,36.1,35.8,38.4,38.5l1.6-1.3C1253.7,191.3,1236.1,173.9,1217.4,155.4Z"/><path class="d" d="M1125.4,869.8l30.1,30.1c33.5,33.5,33.5,33.5,35,34h.3l.7.3.5-.5c4.4-4.6,19.5-19.8,34.2-34.5s29.3-29.3,31.1-31.3l-1.5-1.4c-1.8,2-16,16.2-31.1,31.3s-28.8,28.8-33.8,34c-1.1-.6-4.5-4-34-33.5l-30-30Z"/><path class="d" d="M1228.4,806.4c-9.9-9.8-22.3-22-37-36.7l-.7-.8-.8.7-39.6,39.6c-17.6,17.6-24.9,24.9-26.1,25.8l1.2,1.6c1.3-1,7.7-7.3,26.4-26l38.9-38.8,36.3,36.1c15.1,14.9,24.2,23.9,27.4,27.7l1.6-1.4C1252.7,830.4,1243.6,821.4,1228.4,806.4Z"/><path class="d" d="M157.9,257.7c-14.2,14.2-28.8,28.9-33.8,34.1-1.2-.7-4.8-4.2-35.4-34.9L60,228.2l-1.4,1.5,28.6,28.7c34.9,34.9,34.9,34.9,36.4,35.4h.3l.7.3.5-.5c4.4-4.6,19.6-19.8,34.3-34.5s29.2-29.3,31.1-31.4l-1.6-1.3C187.1,228.5,172.9,242.7,157.9,257.7Z"/><path class="d" d="M150.4,155.2l-25.2-25-.9,1-1.4-1.4c-4.1,4-64.2,63.9-65.6,65.1l1.3,1.6,65.2-64.8,25.1,25c17.9,17.7,36.4,36,38.6,38.7l1.6-1.3C186.8,191.3,169.1,173.8,150.4,155.2Z"/><path class="d" d="M371.3,257.7c-14.2,14.2-28.9,28.9-33.8,34.1-1.2-.6-4.8-4.2-35.2-34.6l-28.9-29-1.5,1.5,28.9,28.9c34.7,34.7,34.7,34.7,36.2,35.2h.3l.7.3.5-.5c4.4-4.6,19.6-19.8,34.3-34.5s29.2-29.3,31-31.4l-1.5-1.3C400.5,228.5,386.3,242.7,371.3,257.7Z"/><path class="d" d="M363.9,155.4l-25.3-25.2-1,1-1.4-1.4-65.5,65.1,1.2,1.6c.8-.6,59.2-58.7,65.3-64.8,7.1,7.2,16.2,16.2,25.3,25.2,17.8,17.6,36.1,35.8,38.4,38.5l1.6-1.3C400.2,191.3,382.6,173.8,363.9,155.4Z"/><path class="d" d="M584.7,257.7c-14.2,14.2-28.9,28.9-33.9,34.1-1.2-.7-4.8-4.2-35.4-34.9l-28.6-28.7-1.5,1.5L514,258.4c34.9,34.9,34.9,34.9,36.4,35.4h.3l.6.3.5-.5,34.3-34.5c15-15.1,29.2-29.3,31.1-31.4l-1.5-1.3Z"/><path class="d" d="M577.4,155.4c-9.1-9-18.3-18-25.4-25.2l-1,1-1.4-1.4-65.5,65.1,1.2,1.6c.7-.5,59.2-58.7,65.3-64.8,7.1,7.2,16.2,16.2,25.3,25.2,17.8,17.6,36.1,35.8,38.4,38.5l1.6-1.3C613.5,191.3,596,173.9,577.4,155.4Z"/><path class="d" d="M798,257.7c-14.2,14.2-28.8,28.9-33.8,34.1-1.2-.7-4.8-4.2-35.1-34.6l-29-29-1.4,1.5,28.9,29c34.7,34.6,34.7,34.6,36.2,35.1h.3l.6.3.5-.5c4.4-4.6,19.6-19.8,34.3-34.5s29.2-29.3,31.1-31.4l-1.6-1.3C827.2,228.5,813,242.7,798,257.7Z"/><path class="d" d="M790.5,155.2l-25.2-25-.9,1-1.4-1.4c-4.1,4-64.2,63.9-65.6,65.1l1.3,1.6c.7-.6,59.2-58.7,65.2-64.8l25.2,25c17.8,17.7,36.3,36,38.5,38.7l1.6-1.3C826.9,191.3,809.2,173.8,790.5,155.2Z"/><path class="d" d="M1012.1,257c-14.6,14.6-29.6,29.7-34.5,34.8-1.2-.6-4.8-4.2-35.2-34.6l-28.9-29-1.4,1.5L941,258.6c34.6,34.7,34.6,34.7,36.1,35.2h.3l.7.3.5-.5c4.3-4.5,19.9-20.1,35-35.2s28.7-28.8,30.3-30.7l-1.5-1.3Z"/><path class="d" d="M1004,155.3l-25.3-25.1-.9,1-1.5-1.4-65.5,65.1,1.2,1.6c.8-.6,59.2-58.7,65.3-64.8l25.3,25.1c17.8,17.6,36.2,35.9,38.4,38.6l1.6-1.3C1040.3,191.3,1022.7,173.8,1004,155.3Z"/><path class="d" d="M1190.5,1147.3h.3l.7.3.5-.5c4.4-4.6,19.5-19.8,34.2-34.5s29.2-29.3,31.1-31.4l-1.5-1.4c-1.8,2.1-16,16.3-31.1,31.3l-33.8,34c-1.1-.6-4.7-4.2-35.3-34.8l-28.7-28.7-1.5,1.5,28.7,28.7C1189,1146.8,1189,1146.8,1190.5,1147.3Z"/><path class="d" d="M1153.3,1022.5l37.4-37.3,36.3,36.1c15.1,14.9,24.2,23.9,27.4,27.6l1.6-1.3c-3.3-3.8-12.4-12.8-27.5-27.8-10-9.8-22.4-22-37.1-36.8l-.7-.7-.8.7-38,38c-18.2,18.1-26.5,26.4-27.7,27.3l1.2,1.7C1126.8,1049,1134,1041.8,1153.3,1022.5Z"/><path class="d" d="M977.2,1147.3h.2l.7.3.5-.5c4.4-4.6,19.6-19.8,34.2-34.5s29.3-29.3,31.1-31.4l-1.5-1.4c-1.8,2.1-16,16.3-31.1,31.3s-28.8,28.9-33.7,34.1c-1.2-.7-5.6-5-38.5-37.9l-25.6-25.7-1.4,1.5,25.6,25.6C975.7,1146.9,975.7,1146.9,977.2,1147.3Z"/><path class="d" d="M939.9,1022.5l37.4-37.3q21.5,21.4,36.2,35.9c14.7,14.5,24.3,24.1,27.5,27.8l1.6-1.3c-3.2-3.8-12.4-12.9-27.6-27.9q-15-14.7-37-36.7l-.7-.7-.7.7-38.2,38.1c-18.1,18.1-26.4,26.3-27.6,27.2l1.2,1.7C913.4,1049,920.6,1041.8,939.9,1022.5Z"/><path class="d" d="M763.8,1147.3h.3l.6.3.5-.5c4.4-4.6,19.6-19.8,34.3-34.6s29.2-29.2,31.1-31.3l-1.6-1.4c-1.8,2.1-16,16.3-31,31.3l-33.8,34c-1.2-.6-4.8-4.1-35.1-34.5l-29-29-1.4,1.5,28.9,28.9C762.3,1146.8,762.3,1146.8,763.8,1147.3Z"/><path class="d" d="M726.2,1022.8l37.7-37.6c14.4,14.4,26.6,26.4,36.3,36,15.2,15,24.3,24,27.5,27.7l1.5-1.3c-3.2-3.8-12.4-12.9-27.5-27.8l-37-36.8-.8-.7-.7.7-38.5,38.4c-17.9,17.9-26,26-27.3,26.9l1.3,1.7C700,1049,707.1,1041.9,726.2,1022.8Z"/><path class="d" d="M550.4,1147.3h.3l.6.3.5-.5c4.5-4.6,19.6-19.9,34.3-34.6s29.2-29.2,31.1-31.3l-1.5-1.4c-1.9,2.1-16,16.3-31,31.3l-33.9,34c-1.2-.6-4.8-4.2-35.4-34.8l-28.6-28.7-1.5,1.5,28.7,28.7C548.9,1146.8,548.9,1146.8,550.4,1147.3Z"/><path class="d" d="M513.2,1022.5l37.4-37.3c14.4,14.4,26.6,26.5,36.4,36.1,15,14.9,24.1,23.9,27.3,27.6l1.6-1.3c-3.3-3.8-12.4-12.8-27.5-27.7-9.9-9.8-22.4-22.1-37.1-36.9l-.7-.7-.8.7-38.1,38c-18.1,18.1-26.4,26.4-27.6,27.3l1.2,1.7C486.6,1049,493.9,1041.8,513.2,1022.5Z"/><path class="d" d="M337,1147.3h.3l.7.3.5-.5c4.4-4.6,19.6-19.9,34.3-34.6s29.2-29.2,31-31.3l-1.5-1.4c-1.8,2.1-16,16.3-31,31.3s-28.9,28.9-33.8,34c-1.2-.6-4.8-4.1-35.2-34.6l-28.9-28.9-1.5,1.5,28.9,28.9C335.5,1146.8,335.5,1146.8,337,1147.3Z"/><path class="d" d="M299.7,1022.6l37.5-37.4q21.6,21.6,36.3,36c15.1,15,24.2,24,27.4,27.7l1.6-1.3c-3.3-3.8-12.4-12.9-27.5-27.8q-15-14.7-37.1-36.8l-.7-.7-.7.7c-16.1,16-28.7,28.5-38.3,38.2-18,18-26.3,26.2-27.5,27.1l1.2,1.7C273.3,1049,280.5,1041.8,299.7,1022.6Z"/><path class="d" d="M123.6,1147.3h.3l.7.3.5-.5c4.4-4.6,19.6-19.8,34.3-34.6s29.2-29.2,31.1-31.3l-1.6-1.4c-1.8,2.1-16,16.3-31,31.3l-33.8,34c-1.2-.6-4.8-4.2-35.4-34.8L60,1081.7l-1.4,1.5,28.6,28.7C122.1,1146.8,122.1,1146.8,123.6,1147.3Z"/><path class="d" d="M86.5,1022.4l37.3-37.2c14.5,14.4,26.6,26.5,36.4,36.1,15.1,14.9,24.2,23.9,27.3,27.6l1.6-1.3c-3.2-3.8-12.4-12.8-27.5-27.8-9.9-9.8-22.3-22-37.1-36.8l-.7-.7-.7.7L85,1021c-18.2,18.1-26.5,26.4-27.7,27.3l1.2,1.7C59.9,1049,67.1,1041.8,86.5,1022.4Z"/><path class="d" d="M977.1,720.5l.3.2.7.2.5-.5c4.4-4.6,19.5-19.8,34.2-34.4s29.3-29.4,31.1-31.4l-1.5-1.4c-1.8,2-16,16.2-31.1,31.3s-28.8,28.9-33.7,34c-1.2-.6-4.8-4.2-35.3-34.7L913.5,655l-1.4,1.4,28.7,28.8C975.6,720,975.6,720,977.1,720.5Z"/><path class="d" d="M1041,622.2l1.6-1.3c-3.2-3.9-12.4-12.9-27.5-27.8L978,556.3l-.7-.7-.7.7c-16.2,16.1-28.9,28.7-38.5,38.4-17.9,17.8-26.1,26-27.3,26.9l1.2,1.7c1.4-1,8.5-8.2,27.5-27.2l37.8-37.6c14.4,14.4,26.6,26.4,36.4,36.1C1028.7,609.4,1037.9,618.4,1041,622.2Z"/><path class="d" d="M123.6,720.5l.3.2.7.2.5-.5c4.4-4.6,19.6-19.8,34.2-34.4l31.2-31.4-1.6-1.4c-1.8,2-16,16.2-31,31.3s-28.9,28.9-33.8,34c-1.2-.6-4.8-4.2-35.5-35L60,655l-1.4,1.4L87.1,685C122.1,720,122.1,720,123.6,720.5Z"/><path class="d" d="M57.3,621.6l1.2,1.7c1.4-1.1,8.5-8.2,27.5-27.1l37.8-37.7c14.4,14.4,26.6,26.4,36.4,36,15.1,14.9,24.2,23.9,27.3,27.7l1.6-1.3c-3.2-3.9-12.4-12.9-27.5-27.8l-37.1-36.8-.7-.7-.7.7L84.5,594.7C66.7,612.5,58.5,620.7,57.3,621.6Z"/><path class="d" d="M337,720.5l.3.2.7.2.5-.5c4.4-4.6,19.5-19.8,34.2-34.4s29.3-29.4,31.1-31.4l-1.5-1.4c-1.8,2-16,16.2-31.1,31.3s-28.8,28.9-33.7,34c-1.2-.6-4.8-4.2-35.3-34.7L273.4,655l-1.5,1.4,28.8,28.8C335.5,720,335.5,720,337,720.5Z"/><path class="d" d="M400.9,622.2l1.6-1.3c-3.2-3.9-12.4-12.9-27.5-27.8l-37.1-36.8-.7-.7-.7.7-38,37.8c-18.3,18.3-26.6,26.6-27.8,27.5l1.2,1.7c1.4-1,8.6-8.3,28-27.7l37.3-37.1,36.3,36.1C388.6,609.5,397.7,618.4,400.9,622.2Z"/><path class="d" d="M550.4,720.5l.3.2.6.2.5-.5c4.5-4.6,19.6-19.8,34.3-34.4l31.1-31.4-1.5-1.4-31.1,31.3-33.8,34c-1.2-.6-4.8-4.2-35.5-35L486.8,655l-1.5,1.4L513.8,685C548.9,720,548.9,720,550.4,720.5Z"/><path class="d" d="M614.3,622.2l1.6-1.3c-3.3-3.9-12.4-12.9-27.6-27.8l-37-36.8-.7-.7-.8.7-38.4,38.3c-17.9,17.9-26.1,26.1-27.3,27l1.2,1.7c1.3-1.1,8.5-8.2,27.6-27.3l37.7-37.5c14.3,14.4,26.5,26.4,36.3,36C601.5,608.9,611.1,618.4,614.3,622.2Z"/><path class="d" d="M763.8,720.5c0,.1.1.1.3.2l.6.2.5-.5c4.3-4.5,19.9-20.1,34.9-35.1l30.5-30.7-1.6-1.4c-1.6,1.8-15.5,15.8-30.3,30.6s-29.6,29.6-34.5,34.7c-1.2-.6-4.8-4.2-35.3-34.7L700.1,655l-1.4,1.4,28.8,28.9C762.2,720,762.2,720,763.8,720.5Z"/><path class="d" d="M827.6,622.2l1.6-1.3c-2.3-2.9-19.9-20.3-38.5-38.7L765.3,557l-.9.9-1.4-1.4c-4.1,4.1-64.2,63.9-65.6,65.1l1.3,1.7,65.2-64.8,25.4,25.1C807,601.2,825.4,619.4,827.6,622.2Z"/><path class="d" d="M158,1275.7c-3.5.6-3.5.6-17.7-14.3l-11.4-11.9c-1.7-1.8-2.9-2.8-4-3.1a4.9,4.9,0,0,1-.3-2.5,6.7,6.7,0,0,0,0-2l-2,.3v1.6a6.3,6.3,0,0,0,.2,3,14,14,0,0,0-3.1,2.2c-5.3,4.6-24.4,23.4-26.2,26.7H86.2v2.1h5.2c3.2.1,3.6.1,4-1.1s19.6-20.8,25.7-26c3.2-2.8,3.2-2.9,6.3.4l11.4,11.8c12.4,13,14.5,15.2,17.4,15.2l2.1-.2a17,17,0,0,1,2.7-.3v-2.1Z"/><path class="d" d="M371.6,1275.7c-3.8.4-3.8.5-17.7-14.1-3.2-3.3-7-7.2-11.6-12.1-1.8-1.8-2.9-2.8-4-3a4.5,4.5,0,0,1-.3-2.6,13.3,13.3,0,0,0,0-2l-2.1.3a4.3,4.3,0,0,1,0,1.6,8.1,8.1,0,0,0,.3,3,12,12,0,0,0-3.1,2.2c-5.4,4.6-24.5,23.4-26.2,26.7h-7.3v2.1h5.2c3.1.1,3.6.1,3.9-1.1s19.7-20.8,25.7-26c3.3-2.8,3.3-2.9,6.4.4,4.7,4.8,8.4,8.8,11.6,12,12.1,12.7,14.1,14.9,17.4,14.9l2-.2,2.6-.2v-2.1Z"/><path class="d" d="M585,1275.7c-3.9.4-3.9.5-17.8-14.1l-11.6-12.1c-1.7-1.8-2.8-2.8-4-3a5.5,5.5,0,0,1-.2-2.6v-2l-2.1.3a8.5,8.5,0,0,1,0,1.6,7.9,7.9,0,0,0,.2,3,13.8,13.8,0,0,0-3,2.2c-5.4,4.6-24.5,23.4-26.2,26.7h-7.4v2.1h5.2c3.2.1,3.6.1,4-1.1s19.6-20.8,25.7-26c3.2-2.8,3.3-2.9,6.3.4l11.6,12c12.2,12.7,14.2,14.9,17.5,14.9l2-.2,2.6-.2v-2.1Z"/><path class="d" d="M798.3,1275.7c-3.8.4-3.8.4-17.7-14.1L769,1249.5c-1.7-1.8-2.9-2.8-4-3.1a4.9,4.9,0,0,1-.3-2.5,6.7,6.7,0,0,0,0-2l-2,.3v1.6a7.9,7.9,0,0,0,.2,3,16.7,16.7,0,0,0-3.1,2.2c-5.3,4.6-24.4,23.4-26.2,26.7h-7.3v2.1h5.2c3.2.1,3.6.1,4-1.1s19.6-20.8,25.7-26c3.2-2.8,3.2-2.9,6.3.4l11.6,12c12.1,12.7,14.2,14.9,17.5,14.9l2-.2,2.5-.2v-2.1Z"/><path class="d" d="M1225.1,1275.7c-3.9.4-3.9.5-17.8-14.1l-11.6-12.1c-1.7-1.8-2.8-2.8-3.9-3a4.5,4.5,0,0,1-.3-2.6,13.3,13.3,0,0,0,0-2l-2.1.3a4.3,4.3,0,0,1,0,1.6,10.6,10.6,0,0,0,.2,3,13.8,13.8,0,0,0-3,2.2c-5.4,4.6-24.5,23.4-26.2,26.7h-7.3v2.1h5.2c3.1.1,3.5.1,3.9-1.1s19.6-20.8,25.7-26c3.3-2.9,3.3-2.8,6.4.4l11.5,12c12.2,12.7,14.2,14.9,17.5,14.9l2-.2,2.6-.2v-2.1Z"/><path class="d" d="M1011.7,1275.7c-3.9.4-3.9.4-17.7-14.1l-11.6-12.1c-1.7-1.8-2.9-2.8-4-3a4.5,4.5,0,0,1-.3-2.6,13.3,13.3,0,0,0,0-2l-2.1.3a4.3,4.3,0,0,1,0,1.6,8.1,8.1,0,0,0,.3,3,14,14,0,0,0-3.1,2.2c-5.3,4.6-24.5,23.4-26.2,26.7h-7.3v2.1h5.2c3.1.1,3.6.1,4-1.1s19.6-20.8,25.7-26c3.2-2.8,3.2-2.9,6.3.4l11.6,12c12.1,12.7,14.2,14.9,17.5,14.9l2-.2,2.5-.2v-2.1Z"/><path class="d" d="M45.4,101.3l.6.5c1.5,1.2,2.3,1.9,2.3,2.6s-4.4,6.2-14.1,15.7L23.9,130.2c-2.4,2.4-3.2,5.3-4.1,8.1a29.7,29.7,0,0,1-1.5,4.5l1.8.9a27.4,27.4,0,0,0,1.7-4.8c.8-2.7,1.5-5.2,3.6-7.2,3.9-4,7.4-7.3,10.3-10.1,11.3-11.1,14.8-14.5,14.7-17.3s-1.4-2.7-3.1-4.1l-.6-.5C42.9,96.5,22,77,20.2,66.5l-2,.3C20.3,79.3,45.1,101,45.4,101.3Z"/><path class="d" d="M45.4,1168.1l.6.5c1.5,1.3,2.3,1.9,2.3,2.7s-4.4,6.2-14.1,15.7l-10.3,10.1c-2.4,2.3-3.2,5.3-4.1,8.1a29.7,29.7,0,0,1-1.5,4.5l1.8.9a30.6,30.6,0,0,0,1.7-4.8c.8-2.7,1.5-5.3,3.6-7.3,3.9-3.9,7.4-7.2,10.2-10.1,11.4-11.1,14.9-14.4,14.8-17.2s-1.4-2.7-3.1-4.2l-.6-.5c-3.8-3.1-24.7-22.6-26.5-33.2l-2,.4C20.3,1146.1,45.1,1167.9,45.4,1168.1Z"/><path class="d" d="M45.4,314.6l.6.5c1.5,1.3,2.3,2,2.3,2.7s-4.4,6.2-14.1,15.7L23.9,343.6c-2.4,2.3-3.2,5.3-4.1,8.1a29.7,29.7,0,0,1-1.5,4.5l1.8.9a30.6,30.6,0,0,0,1.7-4.8c.8-2.7,1.5-5.3,3.6-7.3,3.9-3.9,7.4-7.2,10.2-10.1,11.4-11.1,14.9-14.4,14.8-17.2s-1.4-2.7-3.1-4.2l-.6-.5c-3.8-3.1-24.7-22.6-26.5-33.1l-2,.3C20.3,292.6,45.1,314.4,45.4,314.6Z"/><path class="d" d="M45.4,954.7l.6.5c1.5,1.3,2.3,2,2.3,2.7s-4.4,6.2-14.1,15.7L23.9,983.7c-2.4,2.3-3.2,5.3-4.1,8.1a29.7,29.7,0,0,1-1.5,4.5l1.8.9a27.4,27.4,0,0,0,1.7-4.8c.8-2.7,1.5-5.3,3.6-7.2,3.9-4,7.4-7.3,10.3-10.1,11.3-11.2,14.8-14.5,14.7-17.3s-1.4-2.7-3.1-4.1l-.6-.5C42.9,950,22,930.5,20.2,920l-2,.3C20.3,932.7,45.1,954.5,45.4,954.7Z"/><path class="d" d="M45.4,528l.6.5c1.5,1.2,2.3,1.9,2.3,2.6s-4.4,6.2-14.1,15.7L23.9,556.9c-2.4,2.4-3.2,5.3-4.1,8.2a25.2,25.2,0,0,1-1.5,4.4l1.8,1a30.6,30.6,0,0,0,1.7-4.8c.8-2.7,1.5-5.3,3.6-7.3l10.2-10.1c11.4-11.1,14.9-14.5,14.8-17.2s-1.4-2.8-3.1-4.2l-.6-.5c-3.8-3.1-24.7-22.6-26.5-33.2l-2,.4C20.3,506,45.1,527.8,45.4,528Z"/><path class="d" d="M45.4,741.4l.6.5c1.5,1.2,2.3,1.9,2.3,2.6s-4.4,6.2-14.1,15.7L23.9,770.3c-2.4,2.4-3.2,5.3-4.1,8.2a32.6,32.6,0,0,1-1.5,4.4l1.8.9a27.4,27.4,0,0,0,1.7-4.8c.8-2.7,1.5-5.2,3.6-7.2,3.9-4,7.4-7.3,10.3-10.1,11.3-11.1,14.8-14.5,14.7-17.3s-1.4-2.7-3.1-4.1l-.6-.5c-3.8-3.2-24.7-22.7-26.5-33.2l-2,.3C20.3,719.4,45.1,741.2,45.4,741.4Z"/><path class="d" d="M1275.8,305.4c-4.4,4.1-8.5,7.9-11.3,12.2a11.7,11.7,0,0,0-2.2-.3h-.7v2.1h.7c2.1.1,2.1.1,5.1,3.4s8.2,8.9,19.5,19.6c2.4,2.3,3.5,5.4,4.6,8.7a36.6,36.6,0,0,0,2.1,5.1l1.8-.9c-.7-1.6-1.3-3.3-1.9-4.9-1.2-3.4-2.4-6.9-5.2-9.5-11.2-10.7-16.5-16.4-19.3-19.5-1.2-1.2-2-2.1-2.7-2.7,2.7-4.1,6.7-7.8,11-11.8,7.4-6.9,15.7-14.7,18.2-25.7l-2-.5C1291,291.1,1283.3,298.4,1275.8,305.4Z"/><path class="d" d="M1275.8,518.7c-4.4,4.1-8.5,8-11.3,12.3a6.9,6.9,0,0,0-2.2-.3h-.7v2h.7c2.1,0,2.1,0,5.1,3.4s8.2,8.9,19.5,19.5c2.4,2.4,3.5,5.4,4.6,8.7a32.2,32.2,0,0,0,2.1,5.1l1.8-.9c-.7-1.5-1.3-3.2-1.9-4.9-1.2-3.3-2.4-6.8-5.2-9.4-11.2-10.7-16.5-16.4-19.3-19.5a33.4,33.4,0,0,0-2.7-2.7c2.7-4.1,6.7-7.9,11-11.9,7.4-6.8,15.7-14.7,18.2-25.7l-2-.4C1291,504.5,1283.3,511.7,1275.8,518.7Z"/><path class="d" d="M1275.8,732.1c-4.4,4.1-8.5,8-11.3,12.2l-2.2-.2h-.7v2.1h.7c2.1.1,2.1.1,5.1,3.5s8.2,8.8,19.5,19.5c2.4,2.3,3.5,5.4,4.6,8.7a32.2,32.2,0,0,0,2.1,5.1l1.8-.9c-.7-1.5-1.3-3.2-1.9-4.9-1.2-3.3-2.4-6.8-5.2-9.5-11.2-10.6-16.5-16.3-19.3-19.4-1.2-1.3-2-2.2-2.7-2.8,2.7-4,6.7-7.8,11-11.8,7.4-6.9,15.7-14.7,18.2-25.7l-2-.4C1291,717.8,1283.3,725.1,1275.8,732.1Z"/><path class="d" d="M1275.8,945.5c-4.4,4.1-8.5,7.9-11.3,12.2a11.7,11.7,0,0,0-2.2-.3h-.7v2.1h.7c2,.1,2,.1,5.1,3.4s8.2,8.9,19.5,19.6c2.4,2.3,3.5,5.4,4.6,8.7a36.6,36.6,0,0,0,2.1,5.1l1.8-.9c-.7-1.6-1.3-3.3-1.9-4.9-1.2-3.4-2.4-6.9-5.2-9.5-11.2-10.6-16.5-16.4-19.3-19.5-1.2-1.2-2-2.1-2.7-2.7,2.7-4.1,6.7-7.8,11-11.8,7.4-6.9,15.7-14.7,18.2-25.7l-2-.5C1291,931.2,1283.3,938.5,1275.8,945.5Z"/><path class="d" d="M1275.8,1158.9c-4.4,4-8.5,7.9-11.3,12.2a11.7,11.7,0,0,0-2.2-.3h-.7v2h.7c2.1.1,2.1.1,5.1,3.4s8.2,8.9,19.5,19.6c2.4,2.3,3.5,5.4,4.6,8.6a37.7,37.7,0,0,0,2.1,5.2l1.8-1c-.7-1.5-1.3-3.2-1.9-4.8-1.2-3.4-2.4-6.9-5.2-9.5-11.2-10.7-16.5-16.4-19.3-19.5a33.4,33.4,0,0,0-2.7-2.7c2.7-4.1,6.7-7.9,11-11.8,7.4-6.9,15.7-14.7,18.2-25.7l-2-.5C1291,1144.6,1283.3,1151.8,1275.8,1158.9Z"/><path class="d" d="M1277.2,93.5c7.4-6.9,15.7-14.7,18.2-25.7l-2-.5C1291,77.7,1283.3,85,1275.8,92c-4.4,4.1-8.5,7.9-11.3,12.2l-2.2-.2h-.7V106h.7c2.1.1,2.1.1,5.1,3.5s8.2,8.8,19.5,19.5c2.4,2.3,3.5,5.4,4.6,8.7a36.6,36.6,0,0,0,2.1,5.1l1.8-.9c-.7-1.5-1.3-3.3-1.9-4.9-1.2-3.4-2.4-6.8-5.2-9.5-11.2-10.6-16.5-16.4-19.3-19.4-1.2-1.3-2-2.2-2.7-2.8C1268.9,101.3,1272.9,97.5,1277.2,93.5Z"/><path class="d" d="M110.4,18.8c4.4,4.7,8.6,9.1,13.3,11.9l.6.4.6-.4a131.7,131.7,0,0,0,15.4-15c5.9-6.5,9.4-10.5,20.9-13.7l-.5-2c-12.1,3.4-16,7.7-22,14.3a131.2,131.2,0,0,1-14.5,14.3c-4.3-2.7-8.2-6.9-12.3-11.2C104.8,9.9,97.4,2.2,87.3,0l-.4,2C96.4,4.1,103.5,11.5,110.4,18.8Z"/><path class="d" d="M323.7,18.8c4.5,4.7,8.7,9.1,13.4,11.9l.6.4.6-.4a121.8,121.8,0,0,0,15.3-15c5.9-6.5,9.5-10.5,21-13.7l-.5-2c-12.1,3.4-16,7.7-22,14.3a125.2,125.2,0,0,1-14.6,14.3c-4.2-2.7-8.1-6.9-12.3-11.2C318.1,9.9,310.8,2.2,300.7,0l-.4,2C309.8,4.1,316.9,11.6,323.7,18.8Z"/><path class="d" d="M537.1,18.8c4.5,4.7,8.7,9.1,13.4,11.9l.6.4.6-.4a121.8,121.8,0,0,0,15.3-15c5.9-6.5,9.5-10.5,21-13.7l-.6-2c-12,3.4-16,7.7-21.9,14.3a125.2,125.2,0,0,1-14.6,14.3c-4.2-2.7-8.1-6.9-12.3-11.2C531.5,9.9,524.2,2.2,514.1,0l-.5,2C523.1,4.1,530.2,11.5,537.1,18.8Z"/><path class="d" d="M750.5,18.8c4.4,4.7,8.6,9.1,13.3,11.9l.7.4.5-.4a131.7,131.7,0,0,0,15.4-15c5.9-6.5,9.5-10.5,21-13.7l-.6-2c-12.1,3.4-16,7.7-22,14.3a131.2,131.2,0,0,1-14.5,14.3c-4.2-2.7-8.2-6.9-12.3-11.2C744.9,9.9,737.6,2.2,727.4,0L727,2C736.5,4.1,743.6,11.5,750.5,18.8Z"/><path class="d" d="M963.9,18.8c4.4,4.7,8.6,9.1,13.3,11.9l.6.4.6-.4a121.8,121.8,0,0,0,15.3-15c6-6.5,9.5-10.5,21-13.7l-.5-2c-12.1,3.4-16,7.7-22,14.3a131.2,131.2,0,0,1-14.5,14.3c-4.3-2.7-8.2-6.9-12.3-11.2C958.3,9.9,950.9,2.2,940.8,0l-.4,2C949.9,4.1,957,11.5,963.9,18.8Z"/><path class="d" d="M1177.2,18.8c4.5,4.7,8.7,9.1,13.4,11.9l.6.4.6-.4a121.8,121.8,0,0,0,15.3-15c5.9-6.5,9.5-10.5,21-13.7l-.5-2c-12.1,3.4-16.1,7.7-22,14.3A125.2,125.2,0,0,1,1191,28.6c-4.2-2.7-8.1-6.9-12.3-11.2-7.1-7.5-14.4-15.2-24.5-17.4l-.4,2C1163.2,4.1,1170.3,11.5,1177.2,18.8Z"/><path class="d" d="M1103,761.1c7.2-6.2,13.5-11.6,13.6-16.2a4.9,4.9,0,0,0-1.6-3.8L1099.8,726c-8.5-8.5-12.4-12.4-14.9-13.5a18.9,18.9,0,0,0,.3-5.3V705h-2v2.4a19.9,19.9,0,0,1-.4,4.9,7.4,7.4,0,0,0-3,2c-.2.2-24.7,24.3-28.8,30.3l1.7,1.2c3.8-5.6,27.5-29,28.5-30,2.9-2.6,2.9-2.6,17.1,11.8,4,3.9,8.9,8.9,15.3,15.1a3,3,0,0,1,1,2.3c-.2,3.6-6.4,9-12.9,14.6-9.3,8-19.8,17.1-18.5,25.8l2-.3C1084.1,777.4,1094.1,768.7,1103,761.1Z"/><path class="d" d="M676.3,1187.8c7.2-6.2,13.4-11.6,13.6-16.1a5.1,5.1,0,0,0-1.6-3.8c-6.4-6.2-11.3-11.2-15.2-15.2-8.5-8.5-12.4-12.4-15-13.5a18.3,18.3,0,0,0,.4-5.2v-2.3h-2.1v2.3a16.4,16.4,0,0,1-.3,5,6.8,6.8,0,0,0-3,1.9c-.2.2-24.7,24.3-28.9,30.3l1.8,1.2c3.8-5.6,27.4-28.9,28.5-29.9,2.8-2.6,2.8-2.6,17.1,11.7l15.2,15.2a2.7,2.7,0,0,1,1,2.2c-.1,3.7-6.3,9-12.9,14.7-9.3,7.9-19.8,17-18.4,25.8l2-.3C657.3,1204.1,667.4,1195.5,676.3,1187.8Z"/><path class="d" d="M871.4,1203.3c-5.7-3.5-12.6-11-18.8-17.6-8.6-9.1-14-14.7-17.7-14.9v2c3.1.2,9.8,7.4,16.3,14.3s13.3,14.3,19.2,18Z"/><path class="d" d="M889.6,1187.8c7.3-6.2,13.5-11.6,13.6-16.1a4.6,4.6,0,0,0-1.5-3.8c-6.4-6.2-11.3-11.2-15.3-15.2-8.5-8.5-12.4-12.4-14.9-13.5a22.8,22.8,0,0,0,.4-5.2,17.7,17.7,0,0,1,0-2.3h-2.1v2.3a16.4,16.4,0,0,1-.4,5,7.1,7.1,0,0,0-2.9,1.9c-.3.2-24.8,24.3-28.9,30.3l1.7,1.2c3.8-5.6,27.4-28.9,28.6-29.9,2.8-2.6,2.8-2.6,17.1,11.7l15.2,15.2a2.7,2.7,0,0,1,1,2.2c-.1,3.7-6.3,9-12.9,14.7-9.3,7.9-19.8,17-18.5,25.8l2.1-.3C870.7,1204.1,880.8,1195.5,889.6,1187.8Z"/><path class="d" d="M1084.8,1203.3c-5.7-3.5-12.7-11-18.8-17.6-8.6-9.1-14-14.7-17.8-14.9v2c3.1.2,9.9,7.4,16.4,14.3s13.3,14.3,19.2,18Z"/><path class="d" d="M197.5,104.4l1.7,1.1c3.9-5.7,9.1-10.6,14.1-15.3l6-5.8c1.5-1.5,2.8-3,4-4.4,2.9-3.2,5.2-5.7,7-5.8a2.6,2.6,0,0,1,2,1l13.3,13c11.4,11,16.2,15.6,16.2,17.2s-.4.8-1.2,1.6l-11.2,10.9c-19.6,19-20.8,20.1-19.7,27.3l2-.3c-.8-5.9-.3-6.7,19.2-25.6l11.2-10.9c.9-.9,1.7-1.7,1.7-3s-3.2-5.6-16.7-18.7l-13.4-13a5.1,5.1,0,0,0-2.3-1.4,22.8,22.8,0,0,0,.4-5.2,8.1,8.1,0,0,1,0-2.2h-2.1v2.4a17.1,17.1,0,0,1-.4,5.1h0c-2.3.6-4.6,3.1-7.5,6.4l-4,4.2c-1.9,2-3.9,3.9-6,5.8C206.8,93.5,201.6,98.4,197.5,104.4Z"/><path class="d" d="M410.9,104.4l1.7,1.1c3.9-5.7,9-10.6,14-15.3,2-1.9,4.1-3.8,6-5.8s2.9-3,4.1-4.4c2.9-3.2,5.2-5.7,7-5.8a2.5,2.5,0,0,1,1.9,1l13.5,13c11.3,11,16,15.6,16.1,17.2s-.4.8-1.2,1.6l-11.2,10.9c-19.6,19-20.8,20.1-19.7,27.3l2-.3c-.9-5.9-.3-6.7,19.1-25.6l11.3-10.9c.9-.9,1.7-1.7,1.7-3s-3.2-5.6-16.7-18.7l-13.4-13a5.7,5.7,0,0,0-2.3-1.4,17.7,17.7,0,0,0,.3-5.1V64.9h-2a19.2,19.2,0,0,0,0,2.4,21.1,21.1,0,0,1-.4,5.1h0c-2.3.6-4.6,3.1-7.5,6.3-1.2,1.4-2.6,2.8-4,4.3l-6,5.8C420.1,93.5,414.9,98.4,410.9,104.4Z"/><path class="d" d="M624.2,104.4l1.8,1.1c3.9-5.7,9-10.6,14-15.3,2-1.9,4.1-3.8,6-5.8s2.8-3,4.1-4.4c2.9-3.2,5.2-5.7,7-5.8a2.6,2.6,0,0,1,1.9,1l13.4,13c11.4,11,16.1,15.6,16.1,17.2s-.4.8-1.2,1.6l-11.1,10.9c-19.6,19-20.8,20.1-19.7,27.3l2-.3c-.9-5.9-.4-6.7,19.1-25.6l11.2-10.9c1-.9,1.8-1.7,1.8-3s-3.2-5.6-16.8-18.7l-13.3-13a6,6,0,0,0-2.4-1.4,18.3,18.3,0,0,0,.4-5.2V64.9h-2.1v2.4a14.3,14.3,0,0,1-.4,5.1h.1c-2.4.6-4.6,3.1-7.6,6.4l-4,4.2c-1.9,2-3.9,3.9-5.9,5.8C633.5,93.5,628.3,98.4,624.2,104.4Z"/><path class="d" d="M837.6,104.4l1.7,1.1c3.9-5.7,9.1-10.6,14.1-15.3l6-5.8c1.5-1.5,2.8-3,4-4.4,2.9-3.2,5.2-5.7,7.1-5.8a2.6,2.6,0,0,1,1.9,1l13.4,13c11.4,11,16.1,15.6,16.1,17.2s-.4.8-1.2,1.6l-11.2,10.9c-19.6,19-20.8,20.1-19.7,27.3l2.1-.3c-.9-5.9-.4-6.7,19.1-25.6l11.2-10.9c1-.9,1.8-1.7,1.8-3s-3.3-5.6-16.8-18.7l-13.4-13a5.1,5.1,0,0,0-2.3-1.4,22.8,22.8,0,0,0,.4-5.2,16.2,16.2,0,0,1,0-2.2h-2.1v2.4a17.1,17.1,0,0,1-.4,5.1h0c-2.3.6-4.5,3.1-7.5,6.4l-4,4.2c-1.9,2-3.9,3.9-5.9,5.8C846.9,93.5,841.7,98.4,837.6,104.4Z"/><path class="d" d="M1051,104.4l1.7,1.1c3.9-5.7,9.1-10.6,14-15.3l6.1-5.8,4-4.4c2.9-3.2,5.2-5.7,7-5.8a2.8,2.8,0,0,1,2,1l13.4,13c11.3,11,16.1,15.6,16.1,17.2s-.4.8-1.2,1.6l-11.2,10.9c-19.6,19-20.8,20.1-19.7,27.3l2-.3c-.9-5.9-.3-6.7,19.1-25.6l11.3-10.9c.9-.9,1.7-1.7,1.7-3s-3.2-5.6-16.7-18.7l-13.4-13a5.1,5.1,0,0,0-2.3-1.4,18.2,18.2,0,0,0,.3-5.2V64.9h-2v2.4a17.1,17.1,0,0,1-.4,5.1h0c-2.3.6-4.6,3.1-7.5,6.3-1.2,1.4-2.5,2.8-4,4.3l-6,5.8C1060.3,93.5,1055,98.4,1051,104.4Z"/><path class="d" d="M1103,1187.8c7.2-6.2,13.5-11.6,13.6-16.1a4.7,4.7,0,0,0-1.6-3.8l-15.2-15.1c-8.5-8.6-12.4-12.5-14.9-13.6a18.4,18.4,0,0,0,.3-5.2v-2.3h-2v2.3a20.3,20.3,0,0,1-.4,5,8.1,8.1,0,0,0-3,1.9c-.2.2-24.7,24.3-28.8,30.3l1.7,1.2c3.8-5.6,27.5-29,28.5-29.9,2.9-2.6,2.9-2.6,17.1,11.7l15.3,15.2a2.4,2.4,0,0,1,.9,2.2c-.1,3.7-6.3,9-12.8,14.7-9.3,7.9-19.8,17-18.5,25.8l2-.3C1084.1,1204.1,1094.1,1195.5,1103,1187.8Z"/><path class="d" d="M1079.8,287.4c-.2.2-24.7,24.3-28.8,30.3l1.7,1.2c3.8-5.6,27.5-28.9,28.5-29.9,2.9-2.6,2.9-2.6,17.2,11.7,3.9,4,8.9,9,15.2,15.2a3,3,0,0,1,1,2.2c-.2,3.7-6.4,9-12.9,14.7-9.3,8-19.8,17-18.5,25.8l2-.3c-1.1-7.7,8.9-16.3,17.8-24,7.2-6.2,13.5-11.5,13.6-16.1a4.9,4.9,0,0,0-1.6-3.8l-15.2-15.1c-8.5-8.5-12.4-12.5-14.9-13.6a18.2,18.2,0,0,0,.3-5.2v-2.3h-2v2.3a20.3,20.3,0,0,1-.4,5A8.1,8.1,0,0,0,1079.8,287.4Z"/><path class="d" d="M230.2,564.9l1.1-1.7c-5.7-3.5-12.7-11-18.8-17.6-8.6-9.1-14-14.7-17.7-14.9v2c3.1.2,9.8,7.4,16.3,14.3S224.3,561.3,230.2,564.9Z"/><path class="d" d="M226.4,500.8c-.3.2-24.8,24.3-28.9,30.3l1.7,1.2c3.8-5.6,27.4-28.9,28.5-30,2.9-2.5,2.9-2.5,17.2,11.8l15.2,15.1a3,3,0,0,1,1,2.3c-.2,3.7-6.4,9-12.9,14.6-9.3,8-19.8,17.1-18.5,25.9l2-.3c-1.1-7.7,9-16.4,17.8-24,7.2-6.2,13.5-11.6,13.6-16.2a4.7,4.7,0,0,0-1.6-3.7c-6.3-6.3-11.3-11.2-15.2-15.2-8.5-8.5-12.4-12.4-14.9-13.5a23.2,23.2,0,0,0,.4-5.2,8.9,8.9,0,0,1,0-2.3h-2.1v2.4a15.7,15.7,0,0,1-.4,4.9A8.9,8.9,0,0,0,226.4,500.8Z"/><path class="d" d="M443.6,564.9l1-1.7c-5.6-3.5-12.6-11-18.7-17.6-8.6-9.1-14-14.7-17.8-14.9v2c3.1.2,9.8,7.4,16.3,14.3S437.7,561.3,443.6,564.9Z"/><path class="d" d="M439.7,500.8c-.2.2-24.7,24.3-28.8,30.3l1.7,1.2c3.8-5.6,27.4-28.9,28.5-30,2.8-2.5,2.8-2.6,17.1,11.8,4,3.9,8.9,8.9,15.3,15.1a2.6,2.6,0,0,1,.9,2.3c-.1,3.7-6.3,9-12.9,14.6-9.2,8-19.7,17.1-18.4,25.9l2-.3c-1.1-7.7,8.9-16.4,17.8-24,7.2-6.2,13.4-11.6,13.6-16.2a5,5,0,0,0-1.6-3.7c-6.3-6.2-11.3-11.2-15.2-15.2-8.5-8.5-12.4-12.4-14.9-13.5a18.4,18.4,0,0,0,.3-5.2v-2.3h-2a19.2,19.2,0,0,0,0,2.4,19.1,19.1,0,0,1-.4,4.9A9.2,9.2,0,0,0,439.7,500.8Z"/><path class="d" d="M866.5,287.4c-.3.3-24.8,24.3-28.9,30.3l1.7,1.2c3.8-5.6,27.4-28.9,28.6-29.9,2.8-2.6,2.8-2.6,17.1,11.7,3.9,4,8.9,8.9,15.2,15.2a3,3,0,0,1,1,2.2c-.1,3.7-6.3,9-12.9,14.7-9.3,8-19.8,17-18.5,25.8l2.1-.3c-1.2-7.7,8.9-16.3,17.7-24,7.3-6.2,13.5-11.5,13.6-16.1a4.8,4.8,0,0,0-1.5-3.8c-6.4-6.2-11.3-11.2-15.3-15.1-8.5-8.6-12.4-12.5-14.9-13.6a22.8,22.8,0,0,0,.4-5.2,17.6,17.6,0,0,1,0-2.3h-2.1v2.4a16,16,0,0,1-.4,4.9A7.1,7.1,0,0,0,866.5,287.4Z"/><path class="d" d="M656.9,564.9l1.1-1.7c-5.6-3.5-12.6-11-18.8-17.6-8.5-9.1-14-14.7-17.7-14.9v2c3.1.2,9.8,7.4,16.3,14.3S651,561.3,656.9,564.9Z"/><path class="d" d="M653.1,500.8c-.2.2-24.7,24.3-28.9,30.3l1.8,1.2c3.8-5.7,27.4-29,28.5-30,2.8-2.5,2.8-2.5,17.1,11.8l15.2,15.1a3,3,0,0,1,1,2.3c-.1,3.7-6.3,9-12.9,14.6-9.3,8-19.8,17.1-18.4,25.9l2-.3c-1.2-7.7,8.9-16.4,17.8-24,7.2-6.2,13.4-11.6,13.6-16.2a5,5,0,0,0-1.6-3.7c-6.4-6.3-11.3-11.2-15.2-15.2-8.5-8.5-12.4-12.4-15-13.5a18.6,18.6,0,0,0,.4-5.2v-2.3h-2.1v2.4a15.8,15.8,0,0,1-.3,4.9A8.2,8.2,0,0,0,653.1,500.8Z"/><path class="d" d="M870.3,564.9l1.1-1.7c-5.7-3.5-12.6-11-18.8-17.6-8.6-9.1-14-14.7-17.7-14.9v2c3.1.2,9.8,7.4,16.3,14.3S864.4,561.3,870.3,564.9Z"/><path class="d" d="M676.3,761.1c7.2-6.2,13.4-11.6,13.6-16.2a5.2,5.2,0,0,0-1.6-3.8c-6.4-6.2-11.3-11.2-15.2-15.1-8.5-8.5-12.4-12.4-15-13.5a18.6,18.6,0,0,0,.4-5.2V705h-2.1v2.4a16,16,0,0,1-.3,4.9,6.3,6.3,0,0,0-3,2c-.2.2-24.8,24.3-28.9,30.3l1.8,1.2c3.7-5.6,27.5-29,28.5-30,2.8-2.6,2.8-2.6,17.1,11.8l15.2,15.1a3,3,0,0,1,1,2.3c-.1,3.6-6.3,9-12.9,14.6-9.3,8-19.8,17-18.4,25.8l2-.3C657.3,777.4,667.4,768.7,676.3,761.1Z"/><path class="d" d="M866.5,500.8c-.3.2-24.8,24.3-28.9,30.3l1.7,1.2c3.8-5.6,27.4-28.9,28.6-30,2.8-2.5,2.8-2.5,17.1,11.8l15.2,15.1a3,3,0,0,1,1,2.3c-.1,3.7-6.3,9-12.9,14.6-9.3,8-19.8,17.1-18.5,25.9l2.1-.3c-1.2-7.7,8.9-16.4,17.7-24,7.3-6.2,13.5-11.6,13.6-16.2a4.6,4.6,0,0,0-1.5-3.7l-15.3-15.2c-8.5-8.5-12.4-12.4-14.9-13.5a23.2,23.2,0,0,0,.4-5.2,17.7,17.7,0,0,1,0-2.3h-2.1v2.4a15.7,15.7,0,0,1-.4,4.9A8.9,8.9,0,0,0,866.5,500.8Z"/><path class="d" d="M653.1,287.4c-.2.2-24.7,24.3-28.9,30.3l1.8,1.2c3.8-5.6,27.4-28.9,28.5-29.9,2.8-2.6,2.8-2.6,17.1,11.7,3.9,4,8.9,8.9,15.2,15.2a3,3,0,0,1,1,2.2c-.1,3.7-6.3,9-12.9,14.7-9.3,8-19.8,17-18.4,25.8l2-.3c-1.2-7.7,8.9-16.3,17.8-24,7.2-6.2,13.4-11.5,13.6-16.1a5.2,5.2,0,0,0-1.6-3.8l-15.2-15.1c-8.5-8.5-12.4-12.5-15-13.6a18.3,18.3,0,0,0,.4-5.2v-2.3h-2.1v2.4a16,16,0,0,1-.3,4.9A6.8,6.8,0,0,0,653.1,287.4Z"/><path class="d" d="M1083.7,564.9l1.1-1.7c-5.7-3.5-12.7-11-18.8-17.6-8.6-9.1-14-14.7-17.8-14.9v2c3.1.2,9.9,7.4,16.4,14.3S1077.8,561.3,1083.7,564.9Z"/><path class="d" d="M1079.8,500.8c-.2.2-24.7,24.3-28.8,30.3l1.7,1.2c3.8-5.7,27.5-29,28.5-30,2.9-2.6,2.9-2.5,17.1,11.8,4,3.9,8.9,8.9,15.3,15.1a3,3,0,0,1,1,2.3c-.2,3.7-6.4,9-12.9,14.6-9.3,8-19.8,17.1-18.5,25.9l2-.3c-1.1-7.7,8.9-16.4,17.8-24,7.2-6.2,13.5-11.6,13.6-16.2a4.7,4.7,0,0,0-1.6-3.7c-6.3-6.2-11.3-11.2-15.2-15.2-8.5-8.5-12.4-12.4-14.9-13.5a18.4,18.4,0,0,0,.3-5.2v-2.3h-2v2.4a19.5,19.5,0,0,1-.4,4.9A10.3,10.3,0,0,0,1079.8,500.8Z"/><path class="d" d="M462.9,761.1c7.2-6.2,13.4-11.6,13.6-16.2a5.2,5.2,0,0,0-1.6-3.8c-6.3-6.2-11.3-11.1-15.2-15.1-8.5-8.5-12.4-12.4-14.9-13.5a18.4,18.4,0,0,0,.3-5.2V705h-2a19.2,19.2,0,0,0,0,2.4,19.9,19.9,0,0,1-.4,4.9c-1,.2-1.8,1-3,2s-24.7,24.2-28.8,30.3l1.7,1.2c3.7-5.6,27.4-29,28.5-30,2.8-2.6,2.8-2.6,17.1,11.8,4,3.9,8.9,8.9,15.3,15.1a2.6,2.6,0,0,1,.9,2.3c-.1,3.6-6.3,9-12.9,14.6-9.2,8-19.7,17.1-18.4,25.8l2-.3C444,777.4,454,768.7,462.9,761.1Z"/><path class="d" d="M1084.8,136.5c-5.7-3.6-12.7-11-18.8-17.6-8.6-9.2-14-14.8-17.8-15V106c3.1.1,9.9,7.3,16.4,14.3s13.3,14.2,19.2,17.9Z"/><path class="d" d="M439.7,287.4c-.2.3-24.7,24.3-28.8,30.3l1.7,1.2c3.8-5.6,27.4-28.9,28.5-29.9,2.8-2.6,2.9-2.6,17.1,11.7,4,4,8.9,9,15.3,15.2a2.6,2.6,0,0,1,.9,2.2c-.1,3.7-6.3,9-12.8,14.7-9.3,8-19.8,17-18.5,25.8l2-.3c-1.1-7.7,8.9-16.3,17.8-24,7.2-6.2,13.4-11.5,13.6-16.1a5.2,5.2,0,0,0-1.6-3.8l-15.2-15.1c-8.5-8.5-12.4-12.5-14.9-13.6a18.2,18.2,0,0,0,.3-5.2v-2.3h-2a19.2,19.2,0,0,0,0,2.4,19.9,19.9,0,0,1-.4,4.9A7.4,7.4,0,0,0,439.7,287.4Z"/><path class="d" d="M871.4,136.5c-5.7-3.6-12.7-11-18.8-17.6-8.6-9.2-14-14.8-17.7-15V106c3.1.1,9.8,7.3,16.3,14.3s13.3,14.2,19.2,17.9Z"/><path class="d" d="M226.4,287.4c-.3.3-24.8,24.3-28.9,30.3l1.7,1.2c3.8-5.6,27.4-28.9,28.5-29.9,2.9-2.6,2.9-2.6,17.2,11.7,3.9,4,8.9,8.9,15.2,15.2a3,3,0,0,1,1,2.2c-.2,3.7-6.4,9-12.9,14.7-9.3,8-19.8,17-18.5,25.8l2-.3c-1.1-7.7,9-16.3,17.8-24,7.2-6.2,13.5-11.5,13.6-16.1a4.9,4.9,0,0,0-1.6-3.8l-15.2-15.1c-8.5-8.6-12.4-12.5-14.9-13.6a22.8,22.8,0,0,0,.4-5.2,8.8,8.8,0,0,1,0-2.3h-2.1v2.4a16,16,0,0,1-.4,4.9A7.1,7.1,0,0,0,226.4,287.4Z"/><path class="d" d="M249.5,761.1c7.2-6.2,13.5-11.6,13.6-16.2a4.9,4.9,0,0,0-1.6-3.8L246.3,726c-8.5-8.5-12.4-12.4-14.9-13.5a23.2,23.2,0,0,0,.4-5.2,8.8,8.8,0,0,1,0-2.3h-2.1v2.4a16,16,0,0,1-.4,4.9,6.6,6.6,0,0,0-2.9,2c-.3.2-24.8,24.2-28.9,30.3l1.7,1.2c3.8-5.6,27.5-29,28.5-30,2.9-2.6,2.9-2.6,17.2,11.8l15.2,15.1a3,3,0,0,1,1,2.3c-.2,3.6-6.4,9-12.9,14.6-9.3,8-19.8,17.1-18.5,25.8l2-.3C230.6,777.4,240.7,768.7,249.5,761.1Z"/><path class="d" d="M658,136.5c-5.6-3.6-12.6-11-18.8-17.6-8.5-9.2-14-14.8-17.7-15V106c3.1.1,9.8,7.3,16.3,14.3s13.3,14.2,19.2,17.9Z"/><path class="d" d="M444.6,136.5c-5.6-3.6-12.6-11-18.8-17.6-8.5-9.2-13.9-14.8-17.7-15V106c3.1.1,9.8,7.3,16.3,14.3s13.4,14.2,19.3,17.9Z"/><path class="d" d="M231.3,136.5c-5.7-3.6-12.7-11-18.8-17.6-8.6-9.2-14-14.8-17.7-15V106c3.1.1,9.8,7.3,16.3,14.3s13.3,14.2,19.2,17.9Z"/><path class="d" d="M1083.7,778.3l1.1-1.7c-5.7-3.5-12.7-11-18.8-17.6-8.6-9.2-14-14.8-17.8-15v2.1c3.1.2,9.9,7.3,16.4,14.3S1077.8,774.7,1083.7,778.3Z"/><path class="d" d="M891,759.5l11.2-11c1-.9,1.8-1.7,1.8-3s-3.3-5.6-16.8-18.7l-13.4-13a5.1,5.1,0,0,0-2.3-1.4,22.4,22.4,0,0,0,.4-5.1,17.6,17.6,0,0,1,0-2.3h-2.1v2.4a17.1,17.1,0,0,1-.4,5.1h0c-2.3.6-4.5,3.1-7.5,6.4-1.2,1.3-2.5,2.8-4,4.2s-3.9,3.9-5.9,5.8c-5.1,4.8-10.3,9.7-14.4,15.7l1.7,1.2c3.9-5.8,9.1-10.7,14.1-15.4l6-5.8c1.5-1.5,2.8-3,4-4.3,2.9-3.3,5.2-5.8,7.1-5.9a2.6,2.6,0,0,1,1.9,1l13.4,13c11.4,11.1,16.1,15.6,16.1,17.2s-.4.8-1.2,1.6L889.5,758c-19.6,19-20.8,20.2-19.7,27.3l2.1-.3C871,779.1,871.5,778.4,891,759.5Z"/><path class="d" d="M250.9,972.8l11.2-10.9c.9-.9,1.7-1.7,1.7-3s-3.2-5.6-16.7-18.7l-13.4-13a4.4,4.4,0,0,0-2.3-1.4,23.2,23.2,0,0,0,.4-5.2,8.1,8.1,0,0,1,0-2.2h-2.1v2.4a17.1,17.1,0,0,1-.4,5.1h0c-2.3.6-4.6,3.1-7.5,6.3-1.2,1.4-2.5,2.8-4,4.3s-3.9,3.9-6,5.8c-5,4.8-10.2,9.7-14.3,15.7l1.7,1.1c3.9-5.8,9.1-10.6,14.1-15.3l6-5.8c1.5-1.5,2.8-3,4-4.4,2.9-3.2,5.2-5.7,7-5.8a2.8,2.8,0,0,1,2,.9l13.4,13.1c11.4,11,16.1,15.6,16.1,17.2s-.4.8-1.2,1.6l-11.2,10.9c-19.6,19-20.8,20.1-19.7,27.3l2-.3C230.9,992.4,231.4,991.7,250.9,972.8Z"/><path class="d" d="M462.9,974.4c7.2-6.2,13.4-11.5,13.6-16.1a5.2,5.2,0,0,0-1.6-3.8l-15.2-15.1c-8.5-8.5-12.4-12.4-14.9-13.5a19.1,19.1,0,0,0,.3-5.3v-2.2h-2a19.2,19.2,0,0,0,0,2.4,19.9,19.9,0,0,1-.4,4.9c-1,.2-1.8.9-3,2s-24.7,24.2-28.8,30.3l1.7,1.1c3.8-5.6,27.4-28.9,28.5-29.9,2.8-2.6,2.9-2.6,17.1,11.7,4,4,8.9,9,15.3,15.2a2.6,2.6,0,0,1,.9,2.2c-.1,3.7-6.3,9-12.8,14.7-9.3,8-19.8,17-18.5,25.8l2-.3C444,990.7,454,982.1,462.9,974.4Z"/><path class="d" d="M677.6,972.8l11.2-10.9c1-.9,1.8-1.7,1.8-3s-3.2-5.6-16.8-18.7l-13.3-13a6,6,0,0,0-2.4-1.4,18.3,18.3,0,0,0,.4-5.2v-2.2h-2.1v2.4a14.5,14.5,0,0,1-.4,5.1h.1c-2.4.6-4.6,3.1-7.6,6.3-1.2,1.4-2.5,2.8-4,4.3s-3.9,3.9-5.9,5.8c-5.1,4.8-10.3,9.7-14.4,15.7L626,959c3.9-5.8,9-10.6,14-15.3l6-5.8c1.5-1.5,2.8-3,4.1-4.4,2.9-3.2,5.2-5.7,7-5.8a2.8,2.8,0,0,1,1.9.9l13.4,13.1c11.4,11,16.1,15.6,16.1,17.2s-.4.8-1.2,1.6l-11.1,10.9c-19.6,19-20.8,20.1-19.7,27.3l2-.3C657.6,992.4,658.1,991.7,677.6,972.8Z"/><path class="d" d="M891,972.8l11.2-10.9c.9-.9,1.8-1.7,1.7-3s-3.2-5.6-16.7-18.7l-13.4-13a5.1,5.1,0,0,0-2.3-1.4,22.8,22.8,0,0,0,.4-5.2,16.2,16.2,0,0,1,0-2.2h-2.1v2.4a17.1,17.1,0,0,1-.4,5.1h0c-2.3.6-4.5,3.1-7.5,6.3-1.2,1.4-2.5,2.8-4,4.3s-3.9,3.9-5.9,5.8c-5.1,4.8-10.3,9.7-14.4,15.7l1.7,1.1c3.9-5.8,9.1-10.6,14.1-15.3l6-5.8c1.5-1.5,2.8-3,4-4.4,2.9-3.2,5.2-5.7,7.1-5.8a2.8,2.8,0,0,1,1.9.9l13.4,13.1c11.4,11,16.1,15.6,16.1,17.2s-.4.8-1.2,1.6l-11.2,10.9c-19.6,19-20.8,20.1-19.7,27.3l2.1-.3C871,992.4,871.5,991.7,891,972.8Z"/><path class="d" d="M1104.3,972.8l11.3-10.9c.9-.9,1.7-1.7,1.7-3s-3.2-5.6-16.7-18.7l-13.4-13a4.4,4.4,0,0,0-2.3-1.4,18.4,18.4,0,0,0,.3-5.2v-2.2h-2v2.4a17.3,17.3,0,0,1-.4,5.1h0c-2.3.6-4.6,3.1-7.5,6.3-1.2,1.4-2.5,2.8-4,4.3l-6,5.8c-5,4.8-10.3,9.7-14.3,15.7l1.7,1.1c3.9-5.7,9.1-10.6,14-15.3l6.1-5.8,4-4.4c2.9-3.2,5.2-5.7,7-5.8a3,3,0,0,1,2,.9l13.3,13.1c11.4,11,16.2,15.6,16.2,17.2s-.4.8-1.2,1.6l-11.2,10.9c-19.6,19-20.8,20.1-19.7,27.3l2-.3C1084.3,992.4,1084.9,991.7,1104.3,972.8Z"/><path class="d" d="M230.2,991.7l1.1-1.8c-5.7-3.5-12.7-10.9-18.8-17.5-8.6-9.2-14-14.8-17.7-15v2.1c3.1.1,9.8,7.3,16.3,14.3S224.3,988,230.2,991.7Z"/><path class="d" d="M443.6,991.7l1-1.8c-5.6-3.5-12.6-10.9-18.8-17.5-8.5-9.2-13.9-14.8-17.7-15v2.1c3.1.1,9.8,7.3,16.3,14.3S437.7,988,443.6,991.7Z"/><path class="d" d="M656.9,991.7l1.1-1.8c-5.6-3.5-12.6-10.9-18.8-17.5-8.5-9.2-14-14.8-17.7-15v2.1c3.1.1,9.8,7.3,16.3,14.3S651,988,656.9,991.7Z"/><path class="d" d="M870.3,991.7l1.1-1.8c-5.7-3.5-12.7-10.9-18.8-17.5-8.6-9.2-14-14.8-17.7-15v2.1c3.1.1,9.8,7.3,16.3,14.3S864.4,988,870.3,991.7Z"/><path class="d" d="M1083.7,991.7l1.1-1.8c-5.7-3.5-12.7-10.9-18.8-17.5-8.6-9.2-14-14.8-17.8-15v2.1c3.1.1,9.9,7.3,16.4,14.3S1077.8,988,1083.7,991.7Z"/><path class="d" d="M250.9,1186.2l11.2-10.9c.9-1,1.7-1.8,1.7-3s-3.2-5.6-16.7-18.7l-13.4-13.1a6.2,6.2,0,0,0-2.3-1.4,21.9,21.9,0,0,0,.4-5.1,8.9,8.9,0,0,1,0-2.3h-2.1v2.3a18,18,0,0,1-.4,5.2h0c-2.3.6-4.6,3-7.5,6.3-1.2,1.3-2.5,2.8-4,4.3l-6,5.8c-5,4.7-10.2,9.7-14.3,15.6l1.7,1.2c3.9-5.8,9.1-10.6,14.1-15.4l6-5.8c1.5-1.5,2.8-3,4-4.3,2.9-3.2,5.2-5.8,7-5.8s1.1,0,2,.9l13.4,13.1c11.4,11,16.1,15.6,16.1,17.2s-.4.8-1.2,1.6l-11.2,10.8c-19.6,19.1-20.8,20.2-19.7,27.4l2-.3C230.9,1205.8,231.4,1205.1,250.9,1186.2Z"/><path class="d" d="M464.2,1186.2l11.3-10.9c.9-1,1.7-1.8,1.7-3s-3.2-5.6-16.7-18.7l-13.4-13.1a7.1,7.1,0,0,0-2.3-1.4,17.5,17.5,0,0,0,.3-5.1v-2.3h-2a19.2,19.2,0,0,0,0,2.4,21.9,21.9,0,0,1-.4,5.1h0c-2.4.6-4.6,3-7.5,6.3l-4,4.3-6,5.8c-5.1,4.7-10.3,9.7-14.3,15.6l1.7,1.2c3.9-5.8,9-10.6,14-15.3,2-2,4.1-3.9,6-5.9l4.1-4.3c2.9-3.2,5.2-5.8,7-5.8s1.1,0,1.9.9l13.4,13.1c11.4,11,16.1,15.6,16.2,17.2s-.4.8-1.2,1.6l-11.2,10.8c-19.6,19.1-20.8,20.2-19.7,27.4l2-.3C444.2,1205.8,444.8,1205.1,464.2,1186.2Z"/><path class="d" d="M230.2,778.3l1.1-1.7c-5.7-3.5-12.7-11-18.8-17.6-8.6-9.2-14-14.8-17.7-15v2.1c3.1.2,9.8,7.3,16.3,14.3S224.3,774.7,230.2,778.3Z"/><path class="d" d="M443.6,778.3l1-1.7c-5.6-3.5-12.6-11-18.8-17.6-8.5-9.2-13.9-14.8-17.7-15v2.1c3.1.2,9.8,7.3,16.3,14.3S437.7,774.7,443.6,778.3Z"/><path class="d" d="M656.9,778.3l1.1-1.7c-5.6-3.5-12.6-11-18.8-17.6-8.5-9.2-14-14.8-17.7-15v2.1c3.1.2,9.8,7.3,16.3,14.3S651,774.7,656.9,778.3Z"/><path class="d" d="M870.3,778.3l1.1-1.7c-5.7-3.5-12.7-11-18.8-17.6-8.6-9.2-14-14.8-17.7-15v2.1c3.1.2,9.8,7.3,16.3,14.3S864.4,774.7,870.3,778.3Z"/><path class="d" d="M1084.8,349.8c-5.7-3.5-12.7-11-18.8-17.6-8.6-9.1-14-14.7-17.8-14.9v2.1c3.1.1,9.9,7.3,16.4,14.3s13.3,14.2,19.2,17.9Z"/><path class="d" d="M871.4,349.8c-5.7-3.5-12.6-11-18.8-17.5-8.6-9.2-14-14.8-17.7-15v2.1c3.1.1,9.8,7.3,16.3,14.3s13.3,14.2,19.2,17.9Z"/><path class="d" d="M658,349.8c-5.6-3.5-12.6-11-18.8-17.6-8.5-9.1-14-14.7-17.7-14.9v2.1c3.1.1,9.8,7.3,16.3,14.3s13.3,14.2,19.2,17.9Z"/><path class="d" d="M444.6,349.8c-5.6-3.5-12.6-11-18.8-17.5-8.5-9.2-13.9-14.8-17.7-15v2.1c3.1.1,9.8,7.3,16.3,14.3s13.4,14.2,19.3,17.9Z"/><path class="d" d="M231.3,349.8c-5.7-3.5-12.7-11-18.8-17.5-8.6-9.2-14-14.8-17.7-15v2.1c3.1.1,9.8,7.3,16.3,14.3s13.3,14.2,19.2,17.9Z"/><path class="d" d="M231.3,1203.3c-5.7-3.5-12.7-11-18.8-17.6-8.6-9.1-14-14.7-17.7-14.9v2c3.1.2,9.8,7.4,16.3,14.3s13.3,14.3,19.2,18Z"/><path class="d" d="M444.6,1203.3c-5.6-3.5-12.6-11-18.7-17.6-8.6-9.1-14-14.7-17.8-14.9v2c3.1.2,9.8,7.4,16.3,14.3s13.4,14.3,19.3,18Z"/><path class="d" d="M658,1203.3c-5.6-3.5-12.6-11-18.8-17.6-8.5-9.1-14-14.7-17.7-14.9v2c3.1.2,9.8,7.4,16.3,14.3s13.3,14.3,19.2,18Z"/><path class="d" d="M549.6,820.2a7.1,7.1,0,0,1-.3-3.2,8.6,8.6,0,0,0,0-1.6l2.1-.2v2a3.8,3.8,0,0,0,.3,2.6h-.1c1.5.1,2.4,1.1,3.3,2.1l.7.8,12.9,12.8c7.6,7.6,10.5,10.4,14.1,15.6,1.3-.6,2.6-.6,4.8-.5h3v2.1h-3c-4.4-.1-4.4-.1-11.1,6.9-3.4,3.6-8.5,9-16.6,17-1.4,1.3-2.4,2.5-3.3,3.5s-3.4,3.7-5.3,3.7H551c-2.6,0-5.1-2.6-12.6-10.3-4.4-4.5-10.3-10.6-18.8-18.8a4.4,4.4,0,0,1-1.2-1.9h-7.3v-2.1h7.5c.7-2.2,3.2-4.5,6.1-7.1a59.7,59.7,0,0,0,4.4-4.3C541.4,825.8,546.5,821.3,549.6,820.2Zm-18.9,20.5c-1.4,1.5-3.1,3-4.6,4.4s-5.7,5.1-5.7,6.9a1.7,1.7,0,0,0,.6,1.2c8.5,8.2,14.5,14.4,18.9,18.9,6.3,6.4,9.4,9.7,11.1,9.7h.1c1-.1,2.1-1.3,3.7-3.1l3.4-3.6c8.1-7.9,13.2-13.3,16.6-16.9a62.8,62.8,0,0,1,6.1-6c-3.5-4.9-6.4-7.7-13.9-15.1l-12.8-12.9-.8-.8c-.9-1-1.4-1.5-2.1-1.5h0C548.8,821.9,542.6,827.5,530.7,840.7Z"/><path class="d" d="M336.2,393.4a8.4,8.4,0,0,1-.3-3.1,4.3,4.3,0,0,0,0-1.6l2.1-.3a13.3,13.3,0,0,1,0,2,4.4,4.4,0,0,0,.3,2.6h-.1c1.5.1,2.4,1.1,3.3,2.1a6,6,0,0,0,.8.8l12.8,12.9c7.7,7.6,10.5,10.4,14.1,15.5a11.7,11.7,0,0,1,4.9-.5h3v2H374c-4.4-.2-4.4-.2-11.1,6.9-3.3,3.6-8.5,9-16.6,17l-3.3,3.4c-2,2.3-3.4,3.7-5.3,3.8h0c-2.6,0-5.2-2.7-12.7-10.3-4.3-4.5-10.3-10.7-18.8-18.8a3.3,3.3,0,0,1-1.1-2h-7.4v-2h7.5c.7-2.3,3.2-4.5,6.1-7.1l4.5-4.3C328,399,333.1,394.6,336.2,393.4Zm-18.9,20.5a48.9,48.9,0,0,1-4.6,4.5c-2.8,2.5-5.6,5.1-5.7,6.8a1.8,1.8,0,0,0,.6,1.3c8.5,8.2,14.5,14.3,18.9,18.8,6.3,6.5,9.5,9.8,11.2,9.7s2.1-1.2,3.8-3.1l3.3-3.5c8.2-8,13.3-13.4,16.6-16.9a62.3,62.3,0,0,1,6.1-6c-3.5-4.9-6.3-7.7-13.8-15.2l-12.9-12.8-.8-.9c-.9-.9-1.3-1.5-2.1-1.5h0C335.4,395.1,329.2,400.8,317.3,413.9Z"/><path class="d" d="M763,393.4a5.6,5.6,0,0,1-.3-3.1v-1.6l2-.3a6.7,6.7,0,0,1,0,2,5.3,5.3,0,0,0,.3,2.6h-.1c1.6.1,2.5,1.1,3.4,2.1a2.7,2.7,0,0,0,.7.8l12.8,12.9c7.7,7.6,10.6,10.4,14.2,15.5a11.2,11.2,0,0,1,4.8-.5h3v2h-3.1c-4.3-.2-4.3-.2-11,6.9-3.4,3.6-8.5,9-16.7,17l-3.3,3.4c-2,2.3-3.3,3.7-5.2,3.8h-.1c-2.6,0-5.1-2.7-12.6-10.3-4.4-4.5-10.4-10.7-18.9-18.8a4,4,0,0,1-1.1-2h-7.3v-2h7.4c.8-2.3,3.3-4.5,6.1-7.1s3.2-2.9,4.5-4.3C754.8,399,759.9,394.6,763,393.4Zm-19,20.5a48.9,48.9,0,0,1-4.6,4.5c-2.7,2.5-5.6,5.1-5.6,6.8a1.5,1.5,0,0,0,.6,1.3c8.5,8.2,14.5,14.3,18.8,18.8,6.3,6.5,9.5,9.7,11.2,9.7h0c1,0,2.1-1.2,3.8-3.1s2-2.2,3.4-3.5c8.1-8,13.2-13.4,16.6-16.9a64.7,64.7,0,0,1,6-6c-3.5-4.9-6.3-7.7-13.8-15.2l-12.9-12.8-.8-.9c-.8-.9-1.3-1.4-2-1.5h0C762.1,395.1,756,400.8,744,413.9Z"/><path class="d" d="M122.8,393.4a6.6,6.6,0,0,1-.2-3.1v-1.6l2-.3a6.7,6.7,0,0,1,0,2,5.3,5.3,0,0,0,.3,2.6h-.1a5.1,5.1,0,0,1,3.4,2.1,2.7,2.7,0,0,0,.7.8l12.8,12.8c7.7,7.6,10.5,10.5,14.2,15.6a11.2,11.2,0,0,1,4.8-.5h3v2h-3.1c-4.3-.2-4.4-.2-11,6.9-3.4,3.6-8.5,9-16.7,17l-3.3,3.4c-2,2.3-3.4,3.7-5.2,3.8h-.1c-2.6,0-5.2-2.7-12.6-10.3-4.4-4.5-10.4-10.7-18.9-18.8a3.3,3.3,0,0,1-1.1-2H84.4v-2h7.4c.8-2.3,3.3-4.5,6.1-7.1s3.2-2.9,4.5-4.3C114.6,399,119.8,394.6,122.8,393.4Zm-18.9,20.5a48.9,48.9,0,0,1-4.6,4.5c-2.8,2.5-5.6,5.1-5.6,6.8a1.5,1.5,0,0,0,.6,1.3c8.5,8.2,14.5,14.3,18.8,18.8,6.3,6.5,9.5,9.7,11.2,9.7h0c1,0,2.1-1.2,3.8-3.1s2-2.2,3.4-3.5c8.1-8,13.2-13.4,16.6-16.9a54.1,54.1,0,0,1,6-6c-3.5-4.9-6.3-7.7-13.8-15.2l-12.9-12.8-.8-.9c-.8-.9-1.3-1.4-2-1.5h0C122,395.1,115.9,400.8,103.9,413.9Z"/><path class="d" d="M549.6,606.8a6.8,6.8,0,0,1-.3-3.1,9.6,9.6,0,0,0,0-1.7l2.1-.2v2a3.7,3.7,0,0,0,.3,2.6h-.1c1.5.1,2.4,1.1,3.3,2.1l.7.8,12.9,12.9c7.6,7.5,10.5,10.4,14.1,15.5,1.3-.6,2.7-.6,4.9-.5h2.9v2h-3c-4.4-.2-4.4-.2-11.1,6.9-3.4,3.6-8.5,9-16.6,16.9-1.4,1.3-2.4,2.5-3.3,3.5s-3.4,3.7-5.3,3.7H551c-2.6,0-5.1-2.6-12.6-10.3-4.4-4.4-10.3-10.6-18.8-18.7a4.7,4.7,0,0,1-1.2-2h-7.3v-2h7.5c.7-2.3,3.2-4.6,6.1-7.2a44.7,44.7,0,0,0,4.4-4.3C541.4,612.4,546.5,607.9,549.6,606.8Zm-18.9,20.5c-1.4,1.6-3.1,3-4.6,4.5s-5.7,5.1-5.7,6.8a2,2,0,0,0,.6,1.3c8.5,8.2,14.5,14.3,18.9,18.8,6.3,6.4,9.4,9.7,11.1,9.7h.1c1,0,2.1-1.3,3.8-3.1l3.3-3.5c8.1-8,13.2-13.4,16.6-16.9a52.6,52.6,0,0,1,6.1-6c-3.5-4.9-6.4-7.7-13.9-15.2-3.2-3.2-7.4-7.3-12.8-12.9l-.8-.8c-.9-1-1.4-1.5-2.1-1.5h0C548.8,608.5,542.6,614.1,530.7,627.3Z"/><path class="d" d="M336.2,1033.5a8.2,8.2,0,0,1-.3-3.1,4.3,4.3,0,0,0,0-1.6l2.1-.3a13.3,13.3,0,0,1,0,2,4.8,4.8,0,0,0,.3,2.7h-.1c1.5.1,2.4,1.1,3.3,2.1a6,6,0,0,0,.8.8l12.8,12.9c7.7,7.6,10.5,10.4,14.2,15.5a13,13,0,0,1,4.8-.5h3v2.1H374c-4.4-.1-4.4-.1-11.1,6.9-3.4,3.6-8.5,9-16.6,17l-3.3,3.4c-2,2.3-3.4,3.8-5.3,3.8h0c-2.6,0-5.2-2.6-12.7-10.3-4.3-4.5-10.3-10.6-18.8-18.8a3.4,3.4,0,0,1-1.1-1.9h-7.4v-2.1h7.5c.7-2.3,3.2-4.5,6.1-7.1l4.5-4.3C328,1039.2,333.1,1034.7,336.2,1033.5Zm-18.9,20.6c-1.4,1.5-3,3-4.6,4.4s-5.6,5.1-5.7,6.9a1.8,1.8,0,0,0,.6,1.2c8.5,8.2,14.5,14.3,18.9,18.8,6.3,6.5,9.5,9.7,11.2,9.7s2.1-1.2,3.8-3.1l3.3-3.5c8.1-7.9,13.2-13.3,16.6-16.9a77.1,77.1,0,0,1,6.1-6c-3.5-4.9-6.3-7.7-13.9-15.2l-12.8-12.8-.8-.9c-.9-.9-1.3-1.4-2.1-1.4h0C335.4,1035.3,329.2,1040.9,317.3,1054.1Z"/><path class="d" d="M976.3,393.4a8.4,8.4,0,0,1-.3-3.1,4.3,4.3,0,0,0,0-1.6l2.1-.3a13.3,13.3,0,0,1,0,2,4.4,4.4,0,0,0,.3,2.6h-.1a5.1,5.1,0,0,1,3.4,2.1,2.7,2.7,0,0,0,.7.8l12.8,12.9c7.7,7.6,10.5,10.4,14.2,15.5a13,13,0,0,1,4.8-.5h3v2h-3.1c-4.4-.2-4.4-.2-11,6.9-3.4,3.6-8.6,9-16.7,17l-3.3,3.4c-2,2.3-3.4,3.7-5.2,3.8h-.1c-2.6,0-5.2-2.7-12.7-10.3-4.3-4.5-10.3-10.7-18.8-18.8a3.3,3.3,0,0,1-1.1-2h-7.3v-2h7.4c.7-2.3,3.3-4.5,6.1-7.1s3.2-2.9,4.5-4.3C968.1,399,973.3,394.6,976.3,393.4Zm-18.9,20.5a48.9,48.9,0,0,1-4.6,4.5c-2.8,2.5-5.6,5.1-5.7,6.8a1.8,1.8,0,0,0,.6,1.3c8.6,8.2,14.5,14.3,18.9,18.8,6.3,6.5,9.5,9.7,11.2,9.7h0c1,0,2.1-1.2,3.8-3.1s2-2.2,3.4-3.5c8.1-8,13.2-13.4,16.6-16.9a54.1,54.1,0,0,1,6-6c-3.5-4.9-6.3-7.7-13.8-15.2l-12.9-12.8-.8-.9c-.8-.9-1.3-1.5-2-1.5H978C975.5,395.1,969.3,400.8,957.4,413.9Z"/><path class="d" d="M549.6,1033.5a6.6,6.6,0,0,1-.3-3.1,8.5,8.5,0,0,0,0-1.6l2.1-.3v2a4.1,4.1,0,0,0,.3,2.7h-.1c1.5.1,2.4,1.1,3.3,2.1l.7.8c5.5,5.6,9.6,9.7,12.9,12.9,7.6,7.6,10.5,10.4,14.1,15.5a13.6,13.6,0,0,1,4.9-.5h2.9v2.1h-3c-4.4-.1-4.4-.1-11.1,6.9-3.4,3.6-8.5,9-16.6,17-1.4,1.3-2.4,2.4-3.3,3.4s-3.4,3.8-5.3,3.8H551c-2.6,0-5.1-2.6-12.6-10.3-4.4-4.5-10.3-10.6-18.8-18.8a4.4,4.4,0,0,1-1.2-1.9h-7.3v-2.1h7.5c.7-2.2,3.2-4.5,6.1-7.1s3.1-2.9,4.4-4.3C541.4,1039.2,546.5,1034.7,549.6,1033.5Zm-18.9,20.6c-1.4,1.5-3.1,3-4.6,4.4s-5.7,5.1-5.7,6.9a1.8,1.8,0,0,0,.6,1.2c8.5,8.2,14.5,14.3,18.9,18.8,6.3,6.5,9.4,9.7,11.1,9.7h.1c1,0,2.1-1.2,3.8-3.1l3.3-3.5c8.1-7.9,13.2-13.3,16.6-16.9a62.8,62.8,0,0,1,6.1-6c-3.5-4.9-6.4-7.7-13.9-15.1l-12.8-12.9-.8-.9c-.9-.9-1.4-1.4-2.1-1.4h0C548.8,1035.3,542.6,1040.9,530.7,1054.1Z"/><path class="d" d="M976.3,606.8a8.6,8.6,0,0,1-.3-3.1,4.8,4.8,0,0,0,0-1.7l2.1-.2a13.4,13.4,0,0,1,0,2,4.4,4.4,0,0,0,.3,2.6h-.1c1.6,0,2.5,1.1,3.4,2.1l.7.8c5.4,5.5,9.6,9.6,12.8,12.8,7.7,7.6,10.5,10.5,14.2,15.6,1.3-.6,2.6-.6,4.8-.5h3v2h-3.1c-4.4-.2-4.4-.2-11,6.9-3.4,3.5-8.6,8.9-16.7,16.9l-3.3,3.5c-2,2.2-3.4,3.7-5.2,3.7h-.1c-2.6,0-5.2-2.6-12.7-10.3-4.3-4.4-10.3-10.6-18.8-18.7a3.7,3.7,0,0,1-1.1-2h-7.3v-2h7.4c.7-2.3,3.3-4.6,6.1-7.2a46.2,46.2,0,0,0,4.5-4.3C968.1,612.4,973.3,607.9,976.3,606.8Zm-18.9,20.5c-1.4,1.6-3,3-4.6,4.5s-5.6,5.1-5.7,6.8a2,2,0,0,0,.6,1.3c8.6,8.2,14.5,14.3,18.9,18.8,6.3,6.4,9.5,9.7,11.2,9.7h0c1,0,2.1-1.3,3.8-3.1s2-2.2,3.4-3.5c8.1-8,13.2-13.4,16.6-17a60.6,60.6,0,0,1,6-5.9c-3.5-4.9-6.3-7.8-13.8-15.2-3.3-3.2-7.4-7.3-12.9-12.9l-.8-.8c-.8-1-1.3-1.5-2-1.5H978C975.5,608.5,969.3,614.1,957.4,627.3Z"/><path class="d" d="M763,1033.5a5.5,5.5,0,0,1-.3-3.1v-1.6l2-.3a6.7,6.7,0,0,1,0,2,5.9,5.9,0,0,0,.3,2.7h-.1c1.6.1,2.5,1.1,3.4,2.1a2.7,2.7,0,0,0,.7.8l12.8,12.9c7.7,7.6,10.6,10.4,14.2,15.5a13,13,0,0,1,4.8-.5h3v2.1h-3c-4.4-.1-4.4-.2-11.1,6.9-3.4,3.6-8.5,9-16.7,17l-3.3,3.4c-2,2.3-3.3,3.8-5.2,3.8h-.1c-2.6,0-5.1-2.6-12.6-10.3-4.4-4.5-10.4-10.6-18.9-18.8a4.1,4.1,0,0,1-1.1-1.9h-7.3v-2.1h7.4c.8-2.3,3.3-4.5,6.1-7.1s3.2-2.9,4.5-4.3C754.8,1039.2,759.9,1034.7,763,1033.5Zm-19,20.6c-1.4,1.5-3,3-4.6,4.4s-5.6,5.1-5.6,6.9a1.4,1.4,0,0,0,.6,1.2c8.5,8.2,14.5,14.3,18.8,18.8,6.3,6.5,9.5,9.7,11.2,9.7h0c1,0,2.1-1.2,3.8-3.1s2-2.2,3.4-3.5c8.1-8,13.2-13.3,16.6-16.9a81.1,81.1,0,0,1,6-6c-3.5-4.9-6.3-7.7-13.8-15.2l-12.9-12.8-.8-.9c-.8-.9-1.3-1.4-2-1.4h0C762.1,1035.3,756,1040.9,744,1054.1Z"/><path class="d" d="M122.8,1033.5a6.5,6.5,0,0,1-.2-3.1v-1.6l2-.3a6.7,6.7,0,0,1,0,2,5.9,5.9,0,0,0,.3,2.7h-.1a5.1,5.1,0,0,1,3.4,2.1,2.7,2.7,0,0,0,.7.8l12.8,12.9c7.7,7.6,10.5,10.4,14.2,15.5a13,13,0,0,1,4.8-.5h3v2.1h-3.1c-4.4-.1-4.4-.1-11,6.9-3.4,3.6-8.5,9-16.7,17l-3.3,3.4c-2,2.3-3.4,3.8-5.2,3.8h-.1c-2.6,0-5.2-2.6-12.6-10.3-4.4-4.5-10.4-10.6-18.9-18.8a3.4,3.4,0,0,1-1.1-1.9H84.4v-2.1h7.4c.8-2.2,3.3-4.5,6.1-7.1s3.2-2.9,4.5-4.3C114.6,1039.2,119.8,1034.7,122.8,1033.5Zm-18.9,20.6c-1.4,1.5-3,3-4.6,4.4s-5.6,5.1-5.6,6.9a1.4,1.4,0,0,0,.6,1.2c8.5,8.2,14.5,14.3,18.8,18.8,6.3,6.5,9.5,9.7,11.2,9.7h0c1,0,2.1-1.2,3.8-3.1s2-2.2,3.4-3.5c8.1-8,13.2-13.3,16.6-16.9a65.1,65.1,0,0,1,6-6c-3.5-4.9-6.3-7.7-13.8-15.2l-12.9-12.8-.8-.9c-.8-.9-1.3-1.4-2-1.4h0C122,1035.3,115.9,1040.9,103.9,1054.1Z"/><path class="d" d="M763,820.2a6,6,0,0,1-.3-3.2v-1.6l2-.2a6.7,6.7,0,0,1,0,2,5.5,5.5,0,0,0,.3,2.6h-.1c1.6.1,2.5,1.1,3.4,2.1l.7.8c5.4,5.5,9.6,9.6,12.8,12.8,7.7,7.6,10.6,10.4,14.2,15.6,1.3-.6,2.6-.6,4.8-.5h3v2.1h-3c-4.4-.1-4.4-.1-11.1,6.9-3.4,3.6-8.5,9-16.7,17l-3.3,3.5c-2,2.2-3.3,3.7-5.2,3.7h-.1c-2.6,0-5.1-2.6-12.6-10.3-4.4-4.5-10.4-10.6-18.9-18.8a4.1,4.1,0,0,1-1.1-1.9h-7.3v-2.1h7.4c.8-2.2,3.3-4.5,6.1-7.1a46.2,46.2,0,0,0,4.5-4.3C754.8,825.8,759.9,821.3,763,820.2Zm-19,20.5c-1.4,1.5-3,3-4.6,4.4s-5.6,5.1-5.6,6.9a1.4,1.4,0,0,0,.6,1.2c8.5,8.2,14.5,14.4,18.8,18.9,6.3,6.4,9.5,9.7,11.2,9.7h0c1-.1,2.1-1.3,3.8-3.1l3.4-3.6c8.1-7.9,13.2-13.3,16.6-16.9a81.1,81.1,0,0,1,6-6c-3.5-4.9-6.3-7.7-13.8-15.2l-12.9-12.8a3,3,0,0,0-.8-.8c-.8-1-1.3-1.5-2-1.5h0C762.1,821.9,756,827.5,744,840.7Z"/><path class="d" d="M1189.7,1033.5a8.2,8.2,0,0,1-.3-3.1,4.3,4.3,0,0,0,0-1.6l2.1-.3a13.3,13.3,0,0,1,0,2,4.8,4.8,0,0,0,.3,2.7h-.1c1.5.1,2.4,1.1,3.3,2.1l.7.8c5.5,5.6,9.6,9.7,12.9,12.9,7.6,7.6,10.5,10.4,14.1,15.5a13.6,13.6,0,0,1,4.9-.5h3v2.1h-3.1c-4.4-.1-4.4-.1-11.1,6.9-3.4,3.6-8.5,9-16.6,17-1.4,1.3-2.4,2.4-3.3,3.4s-3.4,3.8-5.3,3.8h0c-2.6,0-5.2-2.6-12.7-10.3-4.3-4.5-10.3-10.6-18.8-18.8a4.4,4.4,0,0,1-1.2-1.9h-7.3v-2.1h7.5c.7-2.2,3.2-4.5,6.1-7.1l4.5-4.3C1181.5,1039.2,1186.6,1034.7,1189.7,1033.5Zm-18.9,20.6c-1.4,1.5-3,3-4.6,4.4s-5.7,5.1-5.7,6.9a1.8,1.8,0,0,0,.6,1.2c8.5,8.2,14.5,14.3,18.9,18.8,6.3,6.5,9.4,9.7,11.2,9.7h0c1,0,2.1-1.2,3.8-3.1l3.3-3.5c8.1-8,13.3-13.3,16.6-16.9a62.8,62.8,0,0,1,6.1-6c-3.5-4.9-6.4-7.7-13.9-15.1l-12.8-12.9-.8-.9c-.9-.9-1.3-1.4-2.1-1.4h0C1188.9,1035.3,1182.7,1040.9,1170.8,1054.1Z"/><path class="d" d="M1189.7,606.8a8.6,8.6,0,0,1-.3-3.1,4.8,4.8,0,0,0,0-1.7l2.1-.2a13.4,13.4,0,0,1,0,2,4.4,4.4,0,0,0,.3,2.6h-.1c1.5.1,2.4,1.1,3.3,2.1l.7.8,12.9,12.8c7.6,7.6,10.5,10.5,14.1,15.6,1.3-.6,2.7-.6,4.9-.5h3v2h-3.1c-4.4-.2-4.4-.2-11.1,6.8-3.4,3.6-8.5,9-16.6,17-1.4,1.3-2.4,2.5-3.3,3.5s-3.4,3.7-5.3,3.7h0c-2.6,0-5.2-2.6-12.7-10.3-4.3-4.4-10.3-10.6-18.8-18.7a4.7,4.7,0,0,1-1.2-2h-7.3v-2h7.5c.7-2.3,3.2-4.6,6.1-7.2a60.5,60.5,0,0,0,4.5-4.3C1181.5,612.4,1186.6,607.9,1189.7,606.8Zm-18.9,20.5c-1.4,1.6-3,3-4.6,4.5s-5.7,5.1-5.7,6.8a2,2,0,0,0,.6,1.3c8.5,8.2,14.5,14.3,18.9,18.8,6.3,6.4,9.4,9.7,11.2,9.7h0c1,0,2.1-1.3,3.8-3.1l3.3-3.5c8.2-8,13.3-13.4,16.6-17a71.1,71.1,0,0,1,6.1-5.9c-3.5-4.9-6.4-7.8-13.9-15.2l-12.8-12.9-.8-.8c-.9-1-1.3-1.5-2.1-1.5h0C1188.9,608.5,1182.7,614.1,1170.8,627.3Z"/><path class="d" d="M1189.7,393.4a8.4,8.4,0,0,1-.3-3.1,4.3,4.3,0,0,0,0-1.6l2.1-.3a13.3,13.3,0,0,1,0,2,4.4,4.4,0,0,0,.3,2.6h-.1c1.5.1,2.4,1.1,3.3,2.1l.7.8,12.9,12.9c7.7,7.6,10.5,10.4,14.1,15.5a11.7,11.7,0,0,1,4.9-.5h3v2h-3.1c-4.4-.2-4.4-.2-11.1,6.9-3.4,3.6-8.5,9-16.6,17-1.4,1.3-2.4,2.4-3.3,3.4s-3.4,3.7-5.3,3.8h0c-2.6,0-5.2-2.7-12.7-10.3-4.3-4.5-10.3-10.7-18.8-18.8a4.1,4.1,0,0,1-1.2-2h-7.3v-2h7.5c.7-2.3,3.2-4.5,6.1-7.1l4.5-4.3C1181.5,399,1186.6,394.6,1189.7,393.4Zm-18.9,20.5a48.9,48.9,0,0,1-4.6,4.5c-2.8,2.5-5.7,5.1-5.7,6.8a1.8,1.8,0,0,0,.6,1.3c8.5,8.2,14.5,14.3,18.9,18.8,6.3,6.5,9.4,9.7,11.2,9.7h0c1,0,2.1-1.2,3.8-3.1l3.3-3.5c8.1-7.9,13.2-13.3,16.6-16.9a62.8,62.8,0,0,1,6.1-6c-3.5-4.9-6.4-7.7-13.9-15.2l-12.8-12.8-.8-.9c-.9-.9-1.3-1.4-2.1-1.5h0C1188.9,395.1,1182.7,400.8,1170.8,413.9Z"/><path class="d" d="M549.6,393.4a6.7,6.7,0,0,1-.3-3.1,8.5,8.5,0,0,0,0-1.6l2.1-.3v2a3.7,3.7,0,0,0,.3,2.6h-.1c1.5.1,2.4,1.1,3.3,2.1l.7.8,12.9,12.9c7.6,7.6,10.5,10.4,14.1,15.5a11.2,11.2,0,0,1,4.8-.5h3v2h-3c-4.4-.2-4.4-.2-11.1,6.9-3.4,3.6-8.5,9-16.6,17-1.4,1.3-2.4,2.4-3.3,3.4s-3.4,3.7-5.3,3.8H551c-2.6,0-5.1-2.7-12.6-10.3-4.4-4.5-10.3-10.7-18.8-18.8a4.1,4.1,0,0,1-1.2-2h-7.3v-2h7.5c.7-2.3,3.2-4.5,6.1-7.1s3.1-2.9,4.4-4.3C541.4,399,546.5,394.6,549.6,393.4Zm-18.9,20.5c-1.4,1.6-3.1,3.1-4.6,4.5s-5.7,5.1-5.7,6.8a1.8,1.8,0,0,0,.6,1.3c8.5,8.2,14.5,14.3,18.9,18.8,6.3,6.5,9.4,9.7,11.1,9.7h.1c1,0,2.1-1.2,3.8-3.1l3.3-3.5c8.1-8,13.2-13.4,16.6-16.9a52.6,52.6,0,0,1,6.1-6c-3.5-4.9-6.4-7.7-13.9-15.2-3.2-3.2-7.4-7.3-12.8-12.8l-.8-.9c-.9-.9-1.4-1.4-2.1-1.5h0C548.8,395.1,542.6,400.8,530.7,413.9Z"/><path class="d" d="M976.3,180.1a8.9,8.9,0,0,1-.3-3.2,4.3,4.3,0,0,0,0-1.6l2.1-.3a13.3,13.3,0,0,1,0,2,4.7,4.7,0,0,0,.3,2.7h-.1c1.6.1,2.5,1.2,3.4,2.2l.7.7c5.4,5.6,9.6,9.7,12.8,12.9,7.7,7.6,10.5,10.4,14.2,15.5a11.4,11.4,0,0,1,4.8-.4h3v2.1h-3.1c-4.4-.1-4.4-.1-11.1,7-3.4,3.5-8.5,8.9-16.6,16.9l-3.3,3.4c-2,2.3-3.4,3.8-5.2,3.8h-.1c-2.6,0-5.2-2.6-12.7-10.3-4.3-4.5-10.3-10.6-18.8-18.8a3.4,3.4,0,0,1-1.1-1.9h-7.3v-2.1h7.4c.7-2.2,3.3-4.5,6.1-7.1a46.2,46.2,0,0,0,4.5-4.3C968.1,185.7,973.3,181.2,976.3,180.1Zm-18.9,20.5c-1.4,1.5-3,3-4.6,4.4s-5.6,5.1-5.7,6.9a1.7,1.7,0,0,0,.6,1.2c8.6,8.2,14.5,14.4,18.9,18.8,6.3,6.5,9.5,9.7,11.2,9.7h0c1,0,2.1-1.2,3.8-3s2-2.2,3.4-3.6c8-7.9,13.1-13.3,16.5-16.9a77.1,77.1,0,0,1,6.1-6c-3.5-4.9-6.3-7.7-13.8-15.1l-12.9-12.9-.8-.9c-.8-.9-1.3-1.4-2-1.4H978C975.5,181.8,969.3,187.4,957.4,200.6Z"/><path class="d" d="M763,180.1a6,6,0,0,1-.3-3.2v-1.6l2-.3a7.4,7.4,0,0,1,0,2.1,5.5,5.5,0,0,0,.3,2.6h-.1c1.6.1,2.5,1.2,3.4,2.2l.7.7c5.4,5.6,9.6,9.7,12.8,12.9,7.7,7.6,10.6,10.4,14.2,15.5a11.4,11.4,0,0,1,4.8-.4h3v2.1h-3c-4.4-.1-4.4-.1-11.1,6.9-3.4,3.6-8.5,9-16.7,17l-3.3,3.4c-2,2.3-3.3,3.8-5.2,3.8h-.1c-2.6,0-5.1-2.6-12.6-10.3-4.4-4.5-10.4-10.6-18.9-18.8a4.1,4.1,0,0,1-1.1-1.9h-7.3v-2.1h7.4c.8-2.2,3.3-4.5,6.1-7.1a46.2,46.2,0,0,0,4.5-4.3C754.8,185.7,759.9,181.2,763,180.1Zm-19,20.5c-1.4,1.5-3,3-4.6,4.4s-5.6,5.1-5.6,6.9a1.4,1.4,0,0,0,.6,1.2c8.5,8.2,14.5,14.4,18.8,18.8,6.3,6.5,9.5,9.7,11.2,9.7h0c1,0,2.1-1.2,3.8-3s2-2.2,3.4-3.6c8.1-7.9,13.2-13.3,16.6-16.9a65.1,65.1,0,0,1,6-6c-3.5-4.9-6.3-7.7-13.8-15.2l-12.9-12.8-.8-.9c-.8-.9-1.3-1.4-2-1.4h0C762.1,181.8,756,187.4,744,200.6Z"/><path class="d" d="M1189.7,180.1a8.9,8.9,0,0,1-.3-3.2,4.3,4.3,0,0,0,0-1.6l2.1-.3a14.7,14.7,0,0,1,0,2.1,4.5,4.5,0,0,0,.3,2.6h-.1c1.5.1,2.4,1.2,3.3,2.2l.7.7,12.9,12.9c7.6,7.6,10.5,10.4,14.1,15.5a11.9,11.9,0,0,1,4.9-.4h3v2.1h-3.1c-4.4-.1-4.4-.1-11.1,6.9-3.4,3.6-8.5,9-16.6,17-1.4,1.3-2.4,2.5-3.3,3.4s-3.4,3.8-5.3,3.8h0c-2.6,0-5.2-2.6-12.7-10.3-4.3-4.5-10.3-10.6-18.8-18.8a4.4,4.4,0,0,1-1.2-1.9h-7.3v-2.1h7.5c.7-2.2,3.2-4.5,6.1-7.1s3.1-2.8,4.5-4.3C1181.5,185.7,1186.6,181.2,1189.7,180.1Zm-18.9,20.5c-1.4,1.5-3,3-4.6,4.4s-5.7,5.1-5.7,6.9a1.7,1.7,0,0,0,.6,1.2c8.5,8.2,14.5,14.4,18.9,18.8,6.3,6.5,9.4,9.7,11.2,9.7h0c1,0,2.1-1.2,3.8-3s2-2.2,3.3-3.6c8.1-7.9,13.2-13.3,16.6-16.9a62.8,62.8,0,0,1,6.1-6c-3.5-4.9-6.4-7.7-13.9-15.2l-12.8-12.8-.8-.9c-.9-.9-1.3-1.4-2.1-1.4h0C1188.9,181.8,1182.7,187.4,1170.8,200.6Z"/><path class="d" d="M549.6,180.1a7.1,7.1,0,0,1-.3-3.2,8.5,8.5,0,0,0,0-1.6l2.1-.3v2.1a3.8,3.8,0,0,0,.3,2.6h-.1c1.5.1,2.4,1.2,3.3,2.2l.7.7,12.9,12.9c7.6,7.6,10.5,10.4,14.1,15.5a11.9,11.9,0,0,1,4.9-.4h2.9v2.1h-3c-4.4-.1-4.4-.1-11.1,6.9-3.4,3.6-8.5,9-16.6,17-1.4,1.3-2.4,2.5-3.3,3.4s-3.4,3.8-5.3,3.8H551c-2.6,0-5.1-2.6-12.6-10.3-4.4-4.5-10.3-10.6-18.8-18.8a4.4,4.4,0,0,1-1.2-1.9h-7.3v-2.1h7.5c.7-2.2,3.2-4.5,6.1-7.1a59.7,59.7,0,0,0,4.4-4.3C541.4,185.7,546.5,181.2,549.6,180.1Zm-18.9,20.5c-1.4,1.5-3.1,3-4.7,4.4s-5.6,5.1-5.6,6.9a1.7,1.7,0,0,0,.6,1.2c8.5,8.2,14.5,14.4,18.9,18.8,6.3,6.5,9.4,9.7,11.1,9.7h.1c1,0,2.1-1.2,3.8-3s2-2.2,3.3-3.6c8.1-7.9,13.2-13.3,16.6-16.9a62.8,62.8,0,0,1,6.1-6c-3.5-4.9-6.4-7.7-13.9-15.1l-12.8-12.9-.8-.9c-.9-.9-1.4-1.4-2.1-1.4h0C548.8,181.8,542.6,187.4,530.7,200.6Z"/><path class="d" d="M976.3,1033.5a8.2,8.2,0,0,1-.3-3.1,4.3,4.3,0,0,0,0-1.6l2.1-.3a13.3,13.3,0,0,1,0,2,4.8,4.8,0,0,0,.3,2.7h-.1a5.1,5.1,0,0,1,3.4,2.1,2.7,2.7,0,0,0,.7.8l12.8,12.9c7.7,7.6,10.5,10.4,14.2,15.5a13,13,0,0,1,4.8-.5h3v2.1h-3.1c-4.3-.1-4.4-.2-11,6.9-3.4,3.6-8.6,9-16.7,17l-3.3,3.4c-2,2.3-3.4,3.8-5.2,3.8h-.1c-2.6,0-5.2-2.6-12.7-10.3-4.3-4.5-10.3-10.6-18.8-18.8a3.4,3.4,0,0,1-1.1-1.9h-7.3v-2.1h7.4c.7-2.2,3.3-4.5,6.1-7.1s3.2-2.9,4.5-4.3C968.1,1039.2,973.3,1034.7,976.3,1033.5Zm-18.9,20.6c-1.4,1.5-3,3-4.6,4.4s-5.6,5.1-5.7,6.9a1.8,1.8,0,0,0,.6,1.2c8.6,8.2,14.5,14.3,18.9,18.8,6.3,6.5,9.5,9.7,11.2,9.7h0c1,0,2.1-1.2,3.8-3.1s2-2.2,3.4-3.5c8.1-8,13.2-13.3,16.6-16.9a65.1,65.1,0,0,1,6-6c-3.5-4.9-6.3-7.7-13.8-15.2l-12.9-12.8-.8-.9c-.8-.9-1.3-1.4-2-1.4H978C975.5,1035.3,969.3,1040.9,957.4,1054.1Z"/><path class="d" d="M122.8,820.2a7,7,0,0,1-.2-3.2v-1.6l2-.2a6.7,6.7,0,0,1,0,2,5.5,5.5,0,0,0,.3,2.6h-.1a5.1,5.1,0,0,1,3.4,2.1l.7.8,12.8,12.8c7.7,7.6,10.5,10.4,14.2,15.6,1.3-.6,2.6-.6,4.8-.5h3v2.1h-3.1c-4.4-.1-4.4-.1-11,6.9-3.4,3.6-8.5,9-16.7,17l-3.3,3.5c-2,2.2-3.4,3.7-5.2,3.7h-.1c-2.6,0-5.2-2.6-12.7-10.3-4.3-4.5-10.3-10.6-18.8-18.8a3.4,3.4,0,0,1-1.1-1.9H84.4v-2.1h7.4c.8-2.2,3.3-4.5,6.1-7.1a46.2,46.2,0,0,0,4.5-4.3C114.6,825.8,119.8,821.3,122.8,820.2Zm-18.9,20.5c-1.4,1.5-3,3-4.6,4.4s-5.6,5.1-5.6,6.9a1.4,1.4,0,0,0,.6,1.2c8.5,8.2,14.5,14.4,18.8,18.9,6.3,6.4,9.5,9.7,11.2,9.7h0c1-.1,2.1-1.3,3.8-3.1l3.4-3.6c8.1-7.9,13.2-13.3,16.6-16.9a65.1,65.1,0,0,1,6-6c-3.5-4.9-6.3-7.7-13.8-15.1l-12.9-12.9a6,6,0,0,0-.8-.8c-.8-1-1.3-1.5-2-1.5h0C122,821.9,115.9,827.5,103.9,840.7Z"/><path class="d" d="M336.2,180.1a8.9,8.9,0,0,1-.3-3.2,4.3,4.3,0,0,0,0-1.6l2.1-.3a13.3,13.3,0,0,1,0,2,4.7,4.7,0,0,0,.3,2.7h-.1c1.5.1,2.4,1.2,3.3,2.2l.8.7c5.4,5.6,9.5,9.7,12.8,12.9,7.7,7.6,10.5,10.4,14.2,15.5a11.4,11.4,0,0,1,4.8-.4h3v2.1H374c-4.4-.1-4.4-.1-11.1,7-3.4,3.5-8.5,8.9-16.6,16.9l-3.3,3.4c-2,2.3-3.4,3.8-5.3,3.8h0c-2.6,0-5.2-2.6-12.7-10.3-4.3-4.5-10.3-10.6-18.8-18.8a3.4,3.4,0,0,1-1.1-1.9h-7.4v-2.1h7.5c.7-2.2,3.2-4.5,6.1-7.1s3.1-2.8,4.5-4.3C328,185.7,333.1,181.2,336.2,180.1Zm-18.9,20.5c-1.4,1.5-3,3-4.6,4.4s-5.6,5.1-5.7,6.9a1.7,1.7,0,0,0,.6,1.2c8.5,8.2,14.5,14.4,18.9,18.8,6.3,6.5,9.5,9.7,11.2,9.7s2.1-1.2,3.8-3,2-2.2,3.3-3.6c8.1-7.9,13.2-13.3,16.6-16.9a77.1,77.1,0,0,1,6.1-6c-3.5-4.9-6.3-7.7-13.9-15.1l-12.8-12.9-.8-.9c-.9-.9-1.3-1.4-2.1-1.4h0C335.4,181.8,329.2,187.4,317.3,200.6Z"/><path class="d" d="M122.8,606.8a6.7,6.7,0,0,1-.2-3.1V602l2-.2a6.7,6.7,0,0,1,0,2,5.3,5.3,0,0,0,.3,2.6h-.1a5.1,5.1,0,0,1,3.4,2.1l.7.8,12.8,12.8c7.7,7.6,10.5,10.5,14.2,15.6,1.3-.6,2.6-.6,4.8-.5h3v2h-3.1c-4.3-.2-4.4-.2-11,6.9-3.4,3.5-8.5,8.9-16.7,16.9l-3.3,3.5c-2,2.2-3.4,3.7-5.2,3.7h-.1c-2.6,0-5.2-2.6-12.6-10.3-4.4-4.4-10.4-10.6-18.9-18.7a3.7,3.7,0,0,1-1.1-2H84.4v-2h7.4c.8-2.3,3.3-4.6,6.1-7.2a36.8,36.8,0,0,0,4.5-4.3C114.6,612.4,119.8,607.9,122.8,606.8Zm-18.9,20.5c-1.4,1.6-3,3-4.6,4.5s-5.6,5.1-5.6,6.8a1.6,1.6,0,0,0,.6,1.3c8.5,8.2,14.5,14.3,18.8,18.8,6.3,6.4,9.5,9.7,11.2,9.7h0c1,0,2.1-1.3,3.8-3.1s2-2.2,3.4-3.5c8.1-8,13.2-13.4,16.6-17a60.6,60.6,0,0,1,6-5.9c-3.5-4.9-6.3-7.8-13.8-15.2-3.3-3.2-7.4-7.4-12.9-12.9l-.8-.8c-.8-1-1.3-1.5-2-1.5h0C122,608.5,115.9,614.1,103.9,627.3Z"/><path class="d" d="M763,606.8a5.7,5.7,0,0,1-.3-3.1V602l2-.2a6.7,6.7,0,0,1,0,2,5.3,5.3,0,0,0,.3,2.6h-.1c1.6.1,2.5,1.1,3.4,2.1l.7.8c5.4,5.5,9.6,9.6,12.8,12.8,7.7,7.6,10.6,10.5,14.2,15.6,1.3-.6,2.6-.6,4.8-.5h3v2h-3c-4.4-.2-4.4-.2-11.1,6.9-3.4,3.6-8.5,9-16.7,16.9l-3.3,3.5c-2,2.2-3.3,3.7-5.2,3.7h-.1c-2.6,0-5.1-2.6-12.6-10.3-4.4-4.5-10.4-10.6-18.9-18.7a4.4,4.4,0,0,1-1.1-2h-7.3v-2h7.4c.8-2.3,3.3-4.6,6.1-7.2a36.8,36.8,0,0,0,4.5-4.3C754.8,612.4,759.9,607.9,763,606.8Zm-19,20.5c-1.4,1.6-3,3-4.6,4.5s-5.6,5.1-5.6,6.8a1.6,1.6,0,0,0,.6,1.3c8.5,8.2,14.5,14.3,18.8,18.8,6.3,6.4,9.5,9.7,11.2,9.7h0c1,0,2.1-1.3,3.8-3.1s2-2.2,3.4-3.5c8.1-8,13.2-13.4,16.6-16.9a54.1,54.1,0,0,1,6-6c-3.5-4.9-6.3-7.8-13.8-15.2l-12.9-12.9-.8-.8c-.8-1-1.3-1.5-2-1.5h0C762.1,608.5,756,614.1,744,627.3Z"/><path class="d" d="M336.2,606.8a8.6,8.6,0,0,1-.3-3.1,4.8,4.8,0,0,0,0-1.7l2.1-.2a13.4,13.4,0,0,1,0,2,4.4,4.4,0,0,0,.3,2.6h-.1c1.5.1,2.4,1.1,3.3,2.1l.8.8c5.4,5.5,9.5,9.6,12.8,12.8,7.7,7.6,10.5,10.5,14.2,15.6,1.3-.6,2.6-.6,4.8-.5h3v2H374c-4.4-.2-4.4-.2-11.1,6.9-3.4,3.6-8.5,9-16.6,16.9l-3.3,3.5c-2,2.2-3.4,3.7-5.3,3.7h0c-2.6,0-5.2-2.6-12.7-10.3-4.3-4.4-10.3-10.6-18.8-18.7a3.7,3.7,0,0,1-1.1-2h-7.4v-2h7.5c.7-2.3,3.2-4.6,6.1-7.2s3.1-2.8,4.5-4.3C328,612.4,333.1,607.9,336.2,606.8Zm-18.9,20.5c-1.4,1.6-3,3-4.6,4.5s-5.6,5.1-5.7,6.8a2,2,0,0,0,.6,1.3c8.5,8.2,14.5,14.3,18.9,18.8,6.3,6.4,9.4,9.7,11.2,9.7h0c1,0,2.1-1.3,3.8-3.1l3.3-3.5c8.1-8,13.2-13.4,16.6-16.9a62.3,62.3,0,0,1,6.1-6c-3.5-4.9-6.3-7.8-13.8-15.2-3.3-3.2-7.4-7.3-12.9-12.9l-.8-.8c-.9-1-1.3-1.5-2.1-1.5h0C335.4,608.5,329.2,614.1,317.3,627.3Z"/><path class="d" d="M122.8,180.1a7,7,0,0,1-.2-3.2v-1.6l2-.3a7.4,7.4,0,0,1,0,2.1,5.5,5.5,0,0,0,.3,2.6h-.1c1.5.1,2.5,1.2,3.4,2.2a4.6,4.6,0,0,0,.7.7l12.8,12.9c7.7,7.6,10.6,10.4,14.2,15.5a11.4,11.4,0,0,1,4.8-.4h3v2.1h-3c-4.5-.1-4.5-.1-11.2,6.9-3.3,3.6-8.5,9-16.6,17l-3.3,3.4c-2,2.3-3.4,3.8-5.2,3.8h-.1c-2.6,0-5.2-2.6-12.7-10.3-4.3-4.5-10.3-10.6-18.8-18.8a3.4,3.4,0,0,1-1.1-1.9H84.4v-2.1h7.4c.8-2.2,3.3-4.5,6.1-7.1a46.2,46.2,0,0,0,4.5-4.3C114.6,185.7,119.8,181.2,122.8,180.1Zm-18.9,20.5c-1.4,1.5-3,3-4.6,4.4s-5.6,5.1-5.6,6.9a1.4,1.4,0,0,0,.6,1.2c8.5,8.2,14.5,14.4,18.8,18.8,6.3,6.5,9.5,9.7,11.2,9.7h0c1,0,2.1-1.2,3.8-3s2-2.2,3.4-3.6c8.1-7.9,13.2-13.3,16.5-16.9a77.1,77.1,0,0,1,6.1-6c-3.5-4.9-6.3-7.7-13.8-15.2l-12.9-12.8-.8-.9c-.8-.9-1.3-1.4-2-1.4h0C122,181.8,115.9,187.4,103.9,200.6Z"/><path class="d" d="M976.3,820.2a8.9,8.9,0,0,1-.3-3.2,4.3,4.3,0,0,0,0-1.6l2.1-.2a13.3,13.3,0,0,1,0,2,4.5,4.5,0,0,0,.3,2.6h-.1a5.1,5.1,0,0,1,3.4,2.1l.7.8c5.4,5.5,9.6,9.6,12.8,12.8,7.7,7.6,10.5,10.4,14.2,15.6,1.3-.6,2.6-.6,4.8-.5h3v2.1h-3.1c-4.4-.1-4.4-.1-11,6.9-3.4,3.6-8.6,9-16.7,17l-3.3,3.5c-2,2.2-3.4,3.7-5.2,3.7h-.1c-2.6,0-5.2-2.6-12.7-10.3-4.3-4.5-10.3-10.6-18.8-18.8a3.4,3.4,0,0,1-1.1-1.9h-7.3v-2.1h7.4c.7-2.2,3.3-4.5,6.1-7.1a46.2,46.2,0,0,0,4.5-4.3C968.1,825.8,973.3,821.3,976.3,820.2Zm-18.9,20.5c-1.4,1.5-3,3-4.6,4.4s-5.6,5.1-5.7,6.9a1.7,1.7,0,0,0,.6,1.2c8.6,8.2,14.5,14.4,18.9,18.9,6.3,6.4,9.5,9.7,11.2,9.7h0c1-.1,2.1-1.3,3.8-3.1l3.4-3.6c8.1-7.9,13.2-13.3,16.6-16.9a65.1,65.1,0,0,1,6-6c-3.5-4.9-6.3-7.7-13.8-15.1l-12.9-12.9-.8-.8c-.8-1-1.3-1.5-2-1.5H978C975.5,821.9,969.3,827.5,957.4,840.7Z"/><path class="d" d="M336.2,820.2a8.9,8.9,0,0,1-.3-3.2,4.3,4.3,0,0,0,0-1.6l2.1-.2a13.3,13.3,0,0,1,0,2,4.5,4.5,0,0,0,.3,2.6h-.1c1.5.1,2.4,1.1,3.3,2.1l.8.8c5.4,5.5,9.5,9.6,12.8,12.8,7.7,7.6,10.5,10.4,14.1,15.6,1.3-.6,2.7-.6,4.9-.5h3v2.1H374c-4.4-.1-4.4-.1-11.1,6.9-3.3,3.6-8.5,9-16.6,17l-3.3,3.5c-2,2.2-3.4,3.7-5.3,3.7h0c-2.6,0-5.2-2.6-12.7-10.3-4.3-4.5-10.3-10.6-18.8-18.8a3.4,3.4,0,0,1-1.1-1.9h-7.4v-2.1h7.5c.7-2.2,3.2-4.5,6.1-7.1s3.1-2.8,4.5-4.3C328,825.8,333.1,821.3,336.2,820.2Zm-18.9,20.5c-1.4,1.5-3,3-4.6,4.4s-5.6,5.1-5.7,6.9a1.7,1.7,0,0,0,.6,1.2c8.5,8.2,14.5,14.4,18.9,18.9,6.3,6.4,9.4,9.7,11.2,9.7h0c1-.1,2.1-1.3,3.8-3.1l3.3-3.6c8.2-7.9,13.3-13.3,16.6-16.9a77.1,77.1,0,0,1,6.1-6c-3.5-4.9-6.3-7.7-13.8-15.1l-12.9-12.9a6,6,0,0,0-.8-.8c-.9-1-1.3-1.5-2.1-1.5h0C335.4,821.9,329.2,827.5,317.3,840.7Z"/><path class="d" d="M1189.7,820.2a8.9,8.9,0,0,1-.3-3.2,4.3,4.3,0,0,0,0-1.6l2.1-.2a13.3,13.3,0,0,1,0,2,4.5,4.5,0,0,0,.3,2.6h-.1c1.5.1,2.4,1.1,3.3,2.1a2.7,2.7,0,0,1,.7.8l12.9,12.8c7.6,7.6,10.5,10.4,14.1,15.6,1.3-.6,2.7-.6,4.9-.5h3v2.1h-3.1c-4.4-.1-4.4-.1-11.1,6.9-3.4,3.6-8.5,9-16.6,17-1.4,1.3-2.4,2.5-3.3,3.5s-3.4,3.7-5.3,3.7h0c-2.6,0-5.2-2.6-12.7-10.3-4.3-4.5-10.3-10.6-18.8-18.8a4.4,4.4,0,0,1-1.2-1.9h-7.3v-2.1h7.5c.7-2.2,3.2-4.5,6.1-7.1s3.1-2.8,4.5-4.3C1181.5,825.8,1186.6,821.3,1189.7,820.2Zm-18.9,20.5c-1.4,1.5-3,3-4.6,4.4s-5.7,5.1-5.7,6.9a1.7,1.7,0,0,0,.6,1.2c8.5,8.2,14.5,14.4,18.9,18.9,6.3,6.4,9.4,9.7,11.2,9.7h0c1-.1,2.1-1.3,3.8-3.1l3.3-3.6c8.1-7.9,13.3-13.3,16.6-16.9a62.8,62.8,0,0,1,6.1-6c-3.5-4.9-6.4-7.7-13.9-15.2l-12.8-12.8-.8-.8c-.9-1-1.3-1.5-2.1-1.5h0C1188.9,821.9,1182.7,827.5,1170.8,840.7Z"/><polygon class="d" points="683.4 210.6 674.3 211.1 674.4 213.1 683.5 212.7 683.4 210.6"/><rect class="d" x="1083.2" y="14.7" width="2.1" height="9.12"/><rect class="d" x="1083.2" y="868.2" width="2.1" height="9.12"/><rect class="d" x="656.4" y="228.1" width="2.1" height="9.12"/><rect class="d" x="869.8" y="868.2" width="2.1" height="9.12"/><rect class="d" x="656.4" y="868.2" width="2.1" height="9.12"/><rect class="d" x="443.1" y="868.2" width="2.1" height="9.12"/><polygon class="d" points="461 853.2 470.1 852.8 470 850.7 460.9 851.2 461 853.2"/><polygon class="d" points="470 210.6 460.9 211.1 461 213.1 470.1 212.7 470 210.6"/><rect class="d" x="229.7" y="868.2" width="2.1" height="9.12"/><rect class="d" x="204.7" y="424" width="9.1" height="2.06"/><rect class="d" x="204.7" y="1064.1" width="9.1" height="2.06"/><rect class="d" x="418.1" y="210.6" width="9.1" height="2.06"/><polygon class="d" points="256.7 424 247.5 424.4 247.6 426.5 256.8 426 256.7 424"/><polygon class="d" points="461 639.9 470.1 639.4 470 637.4 460.9 637.8 461 639.9"/><rect class="d" x="418.1" y="424" width="9.1" height="2.06"/><rect class="d" x="631.5" y="850.7" width="9.1" height="2.06"/><polygon class="d" points="470 424 460.9 424.4 461 426.5 470.1 426 470 424"/><polygon class="d" points="256.7 210.6 247.5 211.1 247.6 213.1 256.8 212.7 256.7 210.6"/><rect class="d" x="229.7" y="1081.5" width="2.1" height="9.12"/><rect class="d" x="443.1" y="1081.5" width="2.1" height="9.12"/><rect class="d" x="656.4" y="1081.5" width="2.1" height="9.12"/><rect class="d" x="869.8" y="1081.5" width="2.1" height="9.12"/><rect class="d" x="1083.2" y="1081.5" width="2.1" height="9.12"/><rect class="d" x="204.7" y="210.6" width="9.1" height="2.06"/><polygon class="d" points="34.3 639.9 43.4 639.4 43.3 637.4 34.2 637.8 34.3 639.9"/><polygon class="d" points="674.4 853.2 683.5 852.8 683.4 850.7 674.3 851.2 674.4 853.2"/><polygon class="d" points="43.3 210.6 34.2 211.1 34.3 213.1 43.4 212.7 43.3 210.6"/><rect class="d" x="631.5" y="424" width="9.1" height="2.06"/><polygon class="d" points="683.4 424 674.3 424.4 674.4 426.5 683.5 426 683.4 424"/><rect class="d" x="1058.2" y="637.4" width="9.1" height="2.06"/><rect class="d" x="844.9" y="424" width="9.1" height="2.06"/><polygon class="d" points="1101.1 639.9 1110.3 639.4 1110.1 637.4 1101 637.8 1101.1 639.9"/><polygon class="d" points="896.8 424 887.7 424.4 887.8 426.5 896.9 426 896.8 424"/><rect class="d" x="1058.2" y="424" width="9.1" height="2.06"/><polygon class="d" points="1110.1 424 1101 424.4 1101.1 426.5 1110.3 426 1110.1 424"/><rect class="d" x="204.7" y="637.4" width="9.1" height="2.06"/><rect class="d" x="418.1" y="637.4" width="9.1" height="2.06"/><rect class="d" x="1271.6" y="424" width="9.1" height="2.06"/><polygon class="d" points="887.8 639.9 896.9 639.4 896.8 637.4 887.7 637.8 887.8 639.9"/><rect class="d" x="443.1" y="228.1" width="2.1" height="9.12"/><polygon class="d" points="247.6 639.9 256.8 639.4 256.7 637.4 247.5 637.8 247.6 639.9"/><rect class="d" x="844.9" y="637.4" width="9.1" height="2.06"/><rect class="d" x="229.7" y="441.4" width="2.1" height="9.12"/><rect class="d" x="1271.6" y="637.4" width="9.1" height="2.06"/><rect class="d" x="229.7" y="228.1" width="2.1" height="9.12"/><rect class="d" x="443.1" y="441.4" width="2.1" height="9.12"/><rect class="d" x="656.4" y="441.4" width="2.1" height="9.12"/><rect class="d" x="869.8" y="441.4" width="2.1" height="9.12"/><rect class="d" x="1083.2" y="441.4" width="2.1" height="9.12"/><polygon class="d" points="34.3 426.5 43.4 426 43.3 424 34.2 424.4 34.3 426.5"/><rect class="d" x="631.5" y="637.4" width="9.1" height="2.06"/><rect class="d" x="1083.2" y="654.8" width="2.1" height="9.12"/><polygon class="d" points="34.3 853.2 43.4 852.8 43.3 850.7 34.2 851.2 34.3 853.2"/><rect class="d" x="1083.2" y="228.1" width="2.1" height="9.12"/><rect class="d" x="869.8" y="654.8" width="2.1" height="9.12"/><rect class="d" x="656.4" y="654.8" width="2.1" height="9.12"/><rect class="d" x="443.1" y="654.8" width="2.1" height="9.12"/><rect class="d" x="229.7" y="654.8" width="2.1" height="9.12"/><polygon class="d" points="674.4 639.9 683.5 639.4 683.4 637.4 674.3 637.8 674.4 639.9"/><polygon class="d" points="247.6 853.2 256.8 852.8 256.7 850.7 247.5 851.2 247.6 853.2"/><polygon class="d" points="896.8 210.6 887.7 211.1 887.8 213.1 896.9 212.7 896.8 210.6"/><rect class="d" x="844.9" y="210.6" width="9.1" height="2.06"/><rect class="d" x="869.8" y="228.1" width="2.1" height="9.12"/><polygon class="d" points="34.3 1066.6 43.4 1066.2 43.3 1064.1 34.2 1064.6 34.3 1066.6"/><rect class="d" x="229.7" y="14.7" width="2.1" height="9.12"/><polygon class="d" points="247.6 1066.6 256.8 1066.2 256.7 1064.1 247.5 1064.6 247.6 1066.6"/><rect class="d" x="844.9" y="850.7" width="9.1" height="2.06"/><polygon class="d" points="887.8 853.2 896.9 852.8 896.8 850.7 887.7 851.2 887.8 853.2"/><rect class="d" x="1058.2" y="850.7" width="9.1" height="2.06"/><polygon class="d" points="1101.1 853.2 1110.3 852.8 1110.1 850.7 1101 851.2 1101.1 853.2"/><rect class="d" x="1271.6" y="850.7" width="9.1" height="2.06"/><rect class="d" x="418.1" y="1064.1" width="9.1" height="2.06"/><polygon class="d" points="461 1066.6 470.1 1066.2 470 1064.1 460.9 1064.6 461 1066.6"/><rect class="d" x="631.5" y="1064.1" width="9.1" height="2.06"/><polygon class="d" points="674.4 1066.6 683.5 1066.2 683.4 1064.1 674.3 1064.6 674.4 1066.6"/><rect class="d" x="844.9" y="1064.1" width="9.1" height="2.06"/><polygon class="d" points="887.8 1066.6 896.9 1066.2 896.8 1064.1 887.7 1064.6 887.8 1066.6"/><rect class="d" x="1058.2" y="1064.1" width="9.1" height="2.06"/><polygon class="d" points="1101.1 1066.6 1110.3 1066.2 1110.1 1064.1 1101 1064.6 1101.1 1066.6"/><rect class="d" x="1271.6" y="1064.1" width="9.1" height="2.06"/><rect class="d" x="443.1" y="14.7" width="2.1" height="9.12"/><rect class="d" x="656.4" y="14.7" width="2.1" height="9.12"/><rect class="d" x="869.8" y="14.7" width="2.1" height="9.12"/><rect class="d" x="1271.6" y="210.6" width="9.1" height="2.06"/><rect class="d" x="418.1" y="850.7" width="9.1" height="2.06"/><rect class="d" x="204.7" y="850.7" width="9.1" height="2.06"/><polygon class="d" points="1110.1 210.6 1101 211.1 1101.1 213.1 1110.3 212.7 1110.1 210.6"/><rect class="d" x="1058.2" y="210.6" width="9.1" height="2.06"/><rect class="d" x="631.5" y="210.6" width="9.1" height="2.06"/></g></pattern></defs><title>pat02</title><path class="e" d="M1184.5,1046H105a50,50,0,0,1-50-50V84a50,50,0,0,1,50-50H797.9a49.9,49.9,0,0,1,46,30.5l386.6,912A50,50,0,0,1,1184.5,1046Z" transform="translate(-55 -34)"/></svg>