<svg id="Layer_1" data-name="Layer 1" xmlns="http://www.w3.org/2000/svg" xmlns:xlink="http://www.w3.org/1999/xlink" viewBox="0 0 403.88 50.96"><defs><style>.cls-1{fill:#820000;}.cls-2{fill:url(#linear-gradient);}.cls-3{fill:url(#linear-gradient-2);}.cls-4{fill:url(#linear-gradient-3);}.cls-5{fill:url(#linear-gradient-4);}.cls-6{fill:#f2f2f2;}</style><linearGradient id="linear-gradient" x1="250.31" y1="276.18" x2="250.31" y2="228.42" gradientUnits="userSpaceOnUse"><stop offset="0" stop-color="#f24040"/><stop offset="1" stop-color="#b50e0e"/></linearGradient><linearGradient id="linear-gradient-2" x1="12.21" y1="4.04" x2="12.21" y2="4.04" xlink:href="#linear-gradient"/><linearGradient id="linear-gradient-3" x1="391.66" y1="4.04" x2="391.66" y2="4.04" xlink:href="#linear-gradient"/><linearGradient id="linear-gradient-4" x1="250.31" y1="238.54" x2="250.31" y2="279.52" xlink:href="#linear-gradient"/></defs><title>tag sell</title><path class="cls-1" d="M48.37,238.91H79s-6.14-6.15-15.06-5.66A30.66,30.66,0,0,0,48.37,238.91Z" transform="translate(-48.37 -230.75)"/><path class="cls-1" d="M452.25,238.91H421.63s6.14-6.15,15.06-5.66A30.66,30.66,0,0,1,452.25,238.91Z" transform="translate(-48.37 -230.75)"/><path class="cls-2" d="M430.49,230.75H70.13a34.89,34.89,0,0,0-21.76,8.16c36.5-20.78,40.9,42.8,67.12,42.8H385.13c26.22,0,30.62-63.58,67.12-42.8A34.89,34.89,0,0,0,430.49,230.75Z" transform="translate(-48.37 -230.75)"/><polygon class="cls-3" points="12.21 4.04 12.21 4.04 12.21 4.04 12.21 4.04"/><polygon class="cls-4" points="391.67 4.04 391.67 4.04 391.67 4.04 391.67 4.04"/><path class="cls-5" d="M115.49,281.71H385.13c22.51,0,28.94-46.87,53.41-47a18.43,18.43,0,0,0-5.06.58,22,22,0,0,0-6,2.71,41.78,41.78,0,0,0-9.51,9.21c-5.48,6.94-9.78,14.68-15.08,21.55a38,38,0,0,1-9,9,16.19,16.19,0,0,1-5.63,2.37,16.9,16.9,0,0,1-3,.32l-3.28,0-26.32-.28c-35.1-.37-70.19-.43-105.29-.47s-70.19.1-105.29.47l-26.32.28-3.28,0a15.93,15.93,0,0,1-3-.32,16.17,16.17,0,0,1-5.63-2.36,38.24,38.24,0,0,1-9-9c-5.3-6.87-9.6-14.61-15.08-21.55a41.69,41.69,0,0,0-9.5-9.2,22,22,0,0,0-6-2.72,18.43,18.43,0,0,0-5.06-.58C86.55,234.84,93,281.71,115.49,281.71Z" transform="translate(-48.37 -230.75)"/><path class="cls-6" d="M148.56,255.94a1.57,1.57,0,0,1-.18.81c-.13.2-.41.29-.86.29H137.23a1.14,1.14,0,0,1-.83-.21,1.47,1.47,0,0,1-.18-.89v-3.66h-3.47v4a4.34,4.34,0,0,0,1,2.91,3.41,3.41,0,0,0,2.74,1.29h11.69a3.53,3.53,0,0,0,2.79-1.26,4.42,4.42,0,0,0,1-2.94v-4h-3.47Z" transform="translate(-48.37 -230.75)"/><rect class="cls-6" x="90.58" y="15.93" width="6.76" height="3.49"/><path class="cls-6" d="M162.34,255.47a6.74,6.74,0,0,1,0,.81,2.83,2.83,0,0,0-.05.43.9.9,0,0,1-.82.33h-1.86l-.42,0h-.4l-.45-.17c-.15-.12-.23-.58-.23-1.38v-10.4h-3.43v11.38q0,4,4.93,4h2a4.26,4.26,0,0,0,3-1,3.82,3.82,0,0,0,1.12-3V245.07h-3.44Z" transform="translate(-48.37 -230.75)"/><path class="cls-6" d="M218.51,250.39a4.1,4.1,0,0,0-3.2,1.4,5.11,5.11,0,0,0-1.26,3.56V256c0,.59-.14.92-.42,1a6.44,6.44,0,0,1-1.24.05l-1.3-.05a1.4,1.4,0,0,1-.76-.17l1.61-.88c0-2.34-.59-3.87-1.66-4.56a7.63,7.63,0,0,0-1.72-.79,5.69,5.69,0,0,0-1.75-.25h-6.2l.45,3.1h5.13a2.53,2.53,0,0,1,1.78.48,2.61,2.61,0,0,1,.25.53,20.71,20.71,0,0,1-4.45,2.2,22.34,22.34,0,0,1-5.25.39h-1.21a5.66,5.66,0,0,0,.17-1.38,5.78,5.78,0,0,0-.65-2.67,4.74,4.74,0,0,0-1.55-1.84,4,4,0,0,0-2.25-.76,5.07,5.07,0,0,0-3.59,1.74,14.2,14.2,0,0,0-3,4.89,1.2,1.2,0,0,1-1.08-1.27v-3.47H182v3.78c0,.49-.09.78-.28.87a.62.62,0,0,1-.25.1h-3.24q0-3.83-1.3-5.27a4.39,4.39,0,0,0-3.41-1.43,5.14,5.14,0,0,0-3.27,1c-.86.68-1.28,2.11-1.27,4.31,0,1.9.53,3.17,1.58,3.81a7.79,7.79,0,0,0,4.09,1,3.54,3.54,0,0,1-1.07,1.57,3.36,3.36,0,0,1-2.06.62H168l.53,3.41h3.36a6.41,6.41,0,0,0,4.28-1.65,5,5,0,0,0,1.92-4l.5,0h2.68a3.85,3.85,0,0,0,2.93-1.26,3.9,3.9,0,0,0,3.22,1.26h11.8l.76,0,1.86,0c.53,0,.9-.08,1.1-.11a6.83,6.83,0,0,0,.85-.17,8.37,8.37,0,0,0,1.77-.62c.53-.29.9-.48,1.1-.6.55-.28,1-.51,1.27-.7a2.63,2.63,0,0,0,2.06,2,9.4,9.4,0,0,0,2.08.24h1v0h.14l.87-.17a1.76,1.76,0,0,0,1.33-1.1,3.57,3.57,0,0,0,1.38,1,4.32,4.32,0,0,0,1.78.33,4.25,4.25,0,0,0,3.36-1.43,5.28,5.28,0,0,0,1.26-3.61,5.17,5.17,0,0,0-1.27-3.49A4.24,4.24,0,0,0,218.51,250.39ZM174.68,257c-.5,0-.87,0-1.1-.05a1.27,1.27,0,0,1-1.18-1.47,2.74,2.74,0,0,1,.25-1.32,1.07,1.07,0,0,1,.82-.37,1.78,1.78,0,0,1,1,.45,1.68,1.68,0,0,1,.24,1.05Zm19.22-.33a.65.65,0,0,1-.53.33H190a15.79,15.79,0,0,1,1.5-2.25c.58-.68,1.09-1,1.52-1a1.9,1.9,0,0,1,.53.2,1.39,1.39,0,0,1,.37.64,3.52,3.52,0,0,1,.15.59c0,.1,0,.28,0,.55A1.75,1.75,0,0,1,193.9,256.71Zm25.8,0a1.48,1.48,0,0,1-1.17.5,1.55,1.55,0,0,1-1.15-.45,1.32,1.32,0,0,1-.34-.6,4,4,0,0,1-.06-.7,1.93,1.93,0,0,1,.41-1.24,1.37,1.37,0,0,1,1.14-.51,1.52,1.52,0,0,1,1.61,1.75A1.82,1.82,0,0,1,219.7,256.66Z" transform="translate(-48.37 -230.75)"/><rect class="cls-6" x="186.28" y="19.82" width="3.47" height="3.49"/><rect class="cls-6" x="198.79" y="31.79" width="6.76" height="3.5"/><path class="cls-6" d="M251.7,255.94a1.61,1.61,0,0,1-.17.85,1.26,1.26,0,0,1-.87.25h-4a4.61,4.61,0,0,1-1.58-.16,1,1,0,0,1-.36-.79v-3.81h-3.41V260a2.38,2.38,0,0,1-.89,1.89,3,3,0,0,1-2,.76h-2.82a3,3,0,0,1-2.05-.74,2.42,2.42,0,0,1-.86-1.91v-5.49h-3.43v5.21a6.42,6.42,0,0,0,1.63,4.43A5.54,5.54,0,0,0,235.1,266h3.39a6.24,6.24,0,0,0,4.39-1.67,5.56,5.56,0,0,0,1.81-4.24,1.93,1.93,0,0,0,.6.32h6.1a3.52,3.52,0,0,0,2.76-1.29,4.3,4.3,0,0,0,1-2.91v-4h-3.5Z" transform="translate(-48.37 -230.75)"/><polygon class="cls-6" points="222.33 15.93 222.33 19.42 225.71 19.42 229.09 19.42 229.09 15.93 225.71 15.93 222.33 15.93"/><path class="cls-6" d="M274,255.94a1.61,1.61,0,0,1-.17.85,1.31,1.31,0,0,1-.87.25h-3.92a4.83,4.83,0,0,1-1.6-.16,1,1,0,0,1-.34-.79v-3.81h-3.41V260a2.39,2.39,0,0,1-.9,1.88,3,3,0,0,1-2,.77H257l.48,3.41h3.41a6.1,6.1,0,0,0,4.14-1.57,6.57,6.57,0,0,0,1.51-1.95,5.22,5.22,0,0,0,.55-2.39,2,2,0,0,0,.59.32h6a3.4,3.4,0,0,0,2.71-1.32,4.38,4.38,0,0,0,1-2.88v-4H274Z" transform="translate(-48.37 -230.75)"/><polygon class="cls-6" points="258.51 16.77 258.51 15.93 258.51 13.28 255.13 13.28 255.13 15.93 249.83 15.93 249.83 19.42 258.51 19.42 258.51 16.77"/><path class="cls-6" d="M306.46,256.56a1.24,1.24,0,0,1-.3.6.93.93,0,0,1-.63.17l-.4-.09a1.12,1.12,0,0,0-.36-.11,1.09,1.09,0,0,1-.48-.93v-3.92h-3.44v4.28c0,.51-.29.77-.87.77a3.39,3.39,0,0,1-.9-.29,1,1,0,0,1-.43-.84v-3.92h-3.41v7.53a2.7,2.7,0,0,1-.84,2,2.88,2.88,0,0,1-2.06.81h-2.9a2.72,2.72,0,0,1-2.07-.84,2.77,2.77,0,0,1-.81-2v-5.33l-3.43.31,0,4.88a6.38,6.38,0,0,0,1.76,4.46,5.64,5.64,0,0,0,4.3,1.9h3.36a5.67,5.67,0,0,0,4.12-1.66,6.42,6.42,0,0,0,1.94-4.11,4.53,4.53,0,0,0,1,.36,3.68,3.68,0,0,0,1,.14,3.46,3.46,0,0,0,2.67-1.24,4.44,4.44,0,0,0,3.05,1.33,3.12,3.12,0,0,0,2.73-1.47,5.32,5.32,0,0,0,.85-3.1v-4h-3.44Z" transform="translate(-48.37 -230.75)"/><path class="cls-6" d="M317.11,250.34a5.14,5.14,0,0,0-3.3,1q-1.29,1-1.26,4.29a4.41,4.41,0,0,0,1.58,3.78,6.89,6.89,0,0,0,4.08,1,2.51,2.51,0,0,1-.42.86,4.74,4.74,0,0,1-.62.71,3.28,3.28,0,0,1-2.06.62h-3.49l.48,3.41h3.38a5.93,5.93,0,0,0,4.39-1.86,5.7,5.7,0,0,0,1.84-4.05v-2.79a11.47,11.47,0,0,0-.74-4.74A3.86,3.86,0,0,0,317.11,250.34Zm1.16,6.7a4.09,4.09,0,0,1-1.78-.31,1.63,1.63,0,0,1-.45-1.21,2.69,2.69,0,0,1,.23-1.32,1.19,1.19,0,0,1,.84-.37,1.15,1.15,0,0,1,.88.42,4.45,4.45,0,0,1,.24.51,3.08,3.08,0,0,1,0,.57Z" transform="translate(-48.37 -230.75)"/><path class="cls-6" d="M345,252.68a5.09,5.09,0,0,0-1.52-3,4.26,4.26,0,0,0-3-1.14,4.6,4.6,0,0,0-3.16,1.16,3.85,3.85,0,0,0-1.29,3c0,1.71.57,2.84,1.66,3.38a9.52,9.52,0,0,0,4,.57.61.61,0,0,1-.56.36h-5.89a4.87,4.87,0,0,1-1.61-.16,1,1,0,0,1-.34-.79v-3.81h-3.41V260a2.39,2.39,0,0,1-.9,1.88,3,3,0,0,1-2,.77h-3.75l.48,3.41H327a6.1,6.1,0,0,0,4.14-1.57,6.41,6.41,0,0,0,1.51-1.95,5.22,5.22,0,0,0,.55-2.39,2,2,0,0,0,.59.32h6.63a5.07,5.07,0,0,0,3.52-1.21,4,4,0,0,0,1.24-3.38l-.11-1.94A10.65,10.65,0,0,0,345,252.68Zm-4,.87a7.09,7.09,0,0,1-1.89-.17,1.05,1.05,0,0,1-.45-.87c0-.6.42-.91,1.27-.91a2.27,2.27,0,0,1,1.51.54,1.77,1.77,0,0,1,.63,1.41Z" transform="translate(-48.37 -230.75)"/><rect class="cls-6" x="290.13" y="12.43" width="3.44" height="3.49"/><path class="cls-6" d="M368.43,252.28v3.66a1.72,1.72,0,0,1-.17.85,1.21,1.21,0,0,1-.87.25h-4.82a4.91,4.91,0,0,1-1.61-.16,1,1,0,0,1-.34-.79v-3.81h-3.41V260a2.39,2.39,0,0,1-.9,1.88,3,3,0,0,1-2,.77h-3.74L351,266h3.41a6.14,6.14,0,0,0,4.15-1.57,6.37,6.37,0,0,0,1.5-1.95,5.22,5.22,0,0,0,.55-2.39,1.93,1.93,0,0,0,.6.32h6.87a3.53,3.53,0,0,0,2.79-1.26,4.42,4.42,0,0,0,1-2.94v-4Z" transform="translate(-48.37 -230.75)"/><polygon class="cls-6" points="313.92 35.34 319.21 35.34 319.21 37.99 322.6 37.99 322.6 35.34 322.6 34.5 322.6 31.85 313.92 31.85 313.92 35.34"/></svg>