<svg xmlns="http://www.w3.org/2000/svg" xmlns:xlink="http://www.w3.org/1999/xlink" viewBox="0 0 253.68 248.79"><defs><style>.cls-1{isolation:isolate;}.cls-2{fill:url(#linear-gradient);}.cls-3{fill:url(#linear-gradient-2);}.cls-4{fill:url(#linear-gradient-3);}.cls-5{mix-blend-mode:lighten;fill:url(#linear-gradient-4);}.cls-6{fill:#fff;}.cls-7{fill:#fcfaff;}</style><linearGradient id="linear-gradient" x1="569.16" y1="226.37" x2="569.16" y2="357.39" gradientTransform="matrix(-1, 0, 0, 1, 607.04, -226.71)" gradientUnits="userSpaceOnUse"><stop offset="0" stop-color="#da0000"/><stop offset="0.09" stop-color="#e61014"/><stop offset="0.24" stop-color="#f82832"/><stop offset="0.33" stop-color="#ff313d"/><stop offset="0.36" stop-color="#fe404a"/><stop offset="0.42" stop-color="#fb5c63"/><stop offset="0.47" stop-color="#fa6e73"/><stop offset="0.51" stop-color="#f97478"/><stop offset="0.67" stop-color="#ff313d"/><stop offset="0.74" stop-color="#f52833"/><stop offset="0.85" stop-color="#e81d25"/></linearGradient><linearGradient id="linear-gradient-2" x1="354.7" y1="440.07" x2="482.36" y2="440.07" xlink:href="#linear-gradient"/><linearGradient id="linear-gradient-3" x1="381.35" y1="338.96" x2="352.82" y2="338.96" gradientTransform="matrix(-1, 0, 0, 1, 1023.69, 0)" xlink:href="#linear-gradient"/><linearGradient id="linear-gradient-4" x1="465.6" y1="223.93" x2="465.6" y2="256.96" gradientTransform="matrix(-1, 0, 0, 1, 1023.69, 0)" xlink:href="#linear-gradient"/></defs><title>corner tag offers</title><g class="cls-1"><g id="Layer_1" data-name="Layer 1"><polygon class="cls-2" points="29.19 0 0 29.19 75.75 29.19 29.19 0"/><polygon class="cls-3" points="253.68 224.49 229.37 248.79 229.37 177.93 253.68 224.49"/><path class="cls-4" d="M445.85,226.71H639.11a31.23,31.23,0,0,1,31.23,31.22V451.2Z" transform="translate(-416.66 -226.71)"/><path class="cls-5" d="M445.85,226.71H639.11a31.23,31.23,0,0,1,31.23,31.22V451.2Z" transform="translate(-416.66 -226.71)"/><path class="cls-6" d="M533.39,272.2a5.26,5.26,0,0,0,1.55-3.65l.25-8.49-4.61,1.23c-.74,0-1.31.08-1.69.09l-1.18.15a10.48,10.48,0,0,0-1.28.36,2.47,2.47,0,0,0-.62.36,6.46,6.46,0,0,0-1.24,1,6.32,6.32,0,0,0,0,8.79,6.19,6.19,0,0,0,4.43,1.85A5.78,5.78,0,0,0,533.39,272.2ZM527.66,269a3,3,0,0,1-.41-.52,1.87,1.87,0,0,1-.16-.67c.06-.36.1-.61.13-.74a2.23,2.23,0,0,1,.31-.52,2.62,2.62,0,0,1,1.49-.72c.55,0,1.11-.06,1.67-.07l-.05,2.05a1.75,1.75,0,0,1-.49,1.37,2.47,2.47,0,0,1-1.23.41A1.72,1.72,0,0,1,527.66,269Z" transform="translate(-416.66 -226.71)"/><path class="cls-6" d="M539.8,286.21a2.29,2.29,0,0,0,.24.84l.42.45.16.15.64.65,4.27,4.26a4.53,4.53,0,0,0,3.7,1.34,5.58,5.58,0,0,0,3.6-1.69l3.63-3.63-3.19-3.19-3.34,3.34a2.14,2.14,0,0,1-.93.62,1.72,1.72,0,0,1-1-.56l-3.6-3.61h0a6,6,0,0,1-1.31-1.62,1.3,1.3,0,0,1,.41-1l3.47-3.48L543.83,276l-7,7a3.05,3.05,0,0,1-2.53.89,3.92,3.92,0,0,1-2.56-1.15l-3.42-3.41-2.67,3.54,3.11,3.12a7.84,7.84,0,0,0,5.22,2.33,8.28,8.28,0,0,0,3.15-.39A6.92,6.92,0,0,0,539.8,286.21Z" transform="translate(-416.66 -226.71)"/><polygon class="cls-6" points="137.74 49.58 135.33 47.16 137.74 44.74 134.66 41.66 132.24 44.07 129.82 41.66 126.64 44.84 134.56 52.77 137.74 49.58"/><rect class="cls-6" x="539.01" y="290.93" width="4.51" height="8.73" transform="translate(-466.93 242.51) rotate(-45)"/><path class="cls-6" d="M561.23,291.68c-1.42-.17-3.11.76-5.08,2.76-1.6,1.63-2.26,3.26-2,4.89A9,9,0,0,0,557,304a2.87,2.87,0,0,1-1.17.4,5.63,5.63,0,0,1-1.22.09,4.22,4.22,0,0,1-2.44-1.31L549,299.94l-2.67,3.55,3.08,3.09a7.66,7.66,0,0,0,5.71,2.31,7.29,7.29,0,0,0,5.37-2l2.55-2.55a14.85,14.85,0,0,0,3.65-5,5,5,0,0,0-1.47-5.58A6.58,6.58,0,0,0,561.23,291.68Zm1.17,6.44a5.09,5.09,0,0,1-.25.68,3.5,3.5,0,0,1-.47.55l-1.57,1.57a5.45,5.45,0,0,1-1.34-1.9,2.09,2.09,0,0,1,.7-1.52,3.46,3.46,0,0,1,1.41-1,1.55,1.55,0,0,1,1.11.44A1.45,1.45,0,0,1,562.4,298.12Z" transform="translate(-416.66 -226.71)"/><rect class="cls-6" x="589.1" y="310.97" width="4.51" height="4.44" transform="translate(-464.91 283.17) rotate(-45)"/><rect class="cls-6" x="582.15" y="334.07" width="4.51" height="8.73" transform="translate(-484.8 285.65) rotate(-45)"/><rect class="cls-6" x="609.28" y="331.15" width="4.51" height="4.44" transform="translate(-473.27 303.35) rotate(-45)"/><rect class="cls-6" x="620.59" y="342.45" width="4.51" height="4.36" transform="translate(-477.92 314.65) rotate(-45)"/><polygon class="cls-6" points="217.99 129.82 214.91 126.74 211.72 129.93 214.8 133.01 214.8 133.01 217.89 136.1 221.08 132.91 217.99 129.82"/><path class="cls-6" d="M626.14,364.94a2.14,2.14,0,0,1-.93.62,1.75,1.75,0,0,1-1-.56l-3.49-3.5-.57-.57L619,359.7c-.36-.4-.54-.68-.54-.85l2.26.67c2.11-2.18,3-4.07,2.65-5.68a9.53,9.53,0,0,0-.85-2.29,7.13,7.13,0,0,0-1.36-1.83l-5.66-5.65-2.41,3.24,4.68,4.68a3.25,3.25,0,0,1,1.18,2.05,3.12,3.12,0,0,1-.26.72,26.61,26.61,0,0,1-6.07-2.05,28.21,28.21,0,0,1-5-4.29l-1.91-1.91a5.47,5.47,0,0,0,1.15-.59,7.27,7.27,0,0,0,1-.83,6.34,6.34,0,0,0,1.9-4.11,5.17,5.17,0,0,0-1.54-4.22,6.31,6.31,0,0,0-4.18-1.94,5.21,5.21,0,0,0-4.15,1.64,6,6,0,0,0-1,1.28,4.77,4.77,0,0,0-.51,1.44l-1.52-1.52a19.3,19.3,0,0,1-1.75-2,1.42,1.42,0,0,1,.57-1.18l3.34-3.35L595.85,328l-3.34,3.34c-.54.53-1.28.44-2.24-.28-.15-.12-.78-.73-1.88-1.83l-2.1-2.1h0l-.9-.9a7.84,7.84,0,0,0,1.08-.57,6.87,6.87,0,0,0,1-.82,6.53,6.53,0,0,0,1.93-4.19,5,5,0,0,0-1.52-4.19,5.75,5.75,0,0,0-8.33-.26,4.87,4.87,0,0,0-1.46,2.7l-5.79-5.79c-.43-.43-.61-.76-.54-1a2.33,2.33,0,0,1,.65-.9l3.34-3.34-3.19-3.19-3.63,3.62a6.06,6.06,0,0,0-1.62,3.53,4,4,0,0,0,1,3.55l2.47,2.46q8,7.95,8.69,7.56c-.27.38,0,1,.77,1.75a10.11,10.11,0,0,0,1,1.16l2.77,2.78h0l1.11,1.1a37.68,37.68,0,0,0,3.33,3,5.5,5.5,0,0,0,2.12,1.17,5.58,5.58,0,0,0,.64,1.69,11.65,11.65,0,0,0,1.36,1.55l.36.36h0l.52.51.28.29h0l1.31,1.31c2.5,2.5,4.06,3.72,4.66,3.67q-.16.83,2.52,3.5l2.13,2.13h0a.94.94,0,0,0,.1.1l.39.39h0c.31.3.59.57.82.77.94.91,1.52,1.47,1.72,1.68q.78.66,1.11.9a6.93,6.93,0,0,0,.93.61,10.06,10.06,0,0,0,2.18,1.06l1.54.46q1.14.36,1.8.51a3.38,3.38,0,0,0,.06,3.71,13.44,13.44,0,0,0,1.78,2.22h0l.79.8h0l4.16,4.17a4.42,4.42,0,0,0,3.68,1.26,5.59,5.59,0,0,0,3.57-1.67l3.63-3.63-3.14-3.14Zm-44-42.27a5.15,5.15,0,0,1-.42-2.35,2.26,2.26,0,0,1,.6-1.37,1.51,1.51,0,0,1,1.27-.48,2,2,0,0,1,1.3.63,1.74,1.74,0,0,1,.5,1.45,2.16,2.16,0,0,1-.63,1.45A2.77,2.77,0,0,1,582.17,322.67ZM602.48,343a5.42,5.42,0,0,1-.4-2.33,2.33,2.33,0,0,1,.61-1.38,1.65,1.65,0,0,1,.6-.42,1.88,1.88,0,0,1,.66-.07,2,2,0,0,1,1.28.62,1.85,1.85,0,0,1,.52,1.47,2.06,2.06,0,0,1-.64,1.44A2.85,2.85,0,0,1,602.48,343Z" transform="translate(-416.66 -226.71)"/><path class="cls-7" d="M608,256.64a10.81,10.81,0,0,1,5.13-2.94,11.64,11.64,0,0,1,5.89,0,11.6,11.6,0,0,1,7.67,6.8,11.17,11.17,0,0,1,0,8.45,11.2,11.2,0,0,1-2.56,3.84,11,11,0,0,1-5.08,2.94,11.79,11.79,0,0,1-5.9,0,10.87,10.87,0,0,1-5.13-2.93,11.06,11.06,0,0,1-2.94-5.14,11.24,11.24,0,0,1,0-5.87A10.69,10.69,0,0,1,608,256.64Zm-13.29,36-8.39-7.32,53.21-12,8.38,7.32Zm18.87-30.38a3.34,3.34,0,0,0-1,2.46,3.25,3.25,0,0,0,1,2.5,3.57,3.57,0,0,0,5,0,3.56,3.56,0,0,0,0-5,3.3,3.3,0,0,0-2.48-1A3.44,3.44,0,0,0,613.55,262.22Zm-3.89,31.58a10.94,10.94,0,0,1,5.13-2.94,11.45,11.45,0,0,1,5.87,0,11.49,11.49,0,0,1,7.64,6.78,11,11,0,0,1,0,8.45,10.94,10.94,0,0,1-2.53,3.82,11.25,11.25,0,0,1-5.11,3,11.75,11.75,0,0,1-5.89,0,10.87,10.87,0,0,1-5.13-2.93,10.67,10.67,0,0,1-2.91-5.11,11,11,0,0,1,0-5.87A10.87,10.87,0,0,1,609.66,293.8Zm5.56,5.56a3.42,3.42,0,0,0-1,2.51,3.37,3.37,0,0,0,1,2.48,3.59,3.59,0,0,0,5,0,3.37,3.37,0,0,0,1-2.51,3.49,3.49,0,0,0-1-2.48,3.58,3.58,0,0,0-2.46-1A3.37,3.37,0,0,0,615.22,299.36Z" transform="translate(-416.66 -226.71)"/></g></g></svg>