<svg id="Layer_1" data-name="Layer 1" xmlns="http://www.w3.org/2000/svg" xmlns:xlink="http://www.w3.org/1999/xlink" viewBox="0 0 770.3 97.2"><defs><style>.cls-1{fill:#002a3a;}.cls-2{fill:url(#linear-gradient);}.cls-3{fill:url(#linear-gradient-2);}.cls-4{fill:url(#linear-gradient-3);}.cls-5{fill:#003d5b;}.cls-6{fill:#fff;}</style><linearGradient id="linear-gradient" x1="512" y1="422.06" x2="512" y2="330.97" gradientUnits="userSpaceOnUse"><stop offset="0" stop-color="#30638e"/><stop offset="1" stop-color="#003d5b"/></linearGradient><linearGradient id="linear-gradient-2" x1="23.29" y1="7.71" x2="23.29" y2="7.71" xlink:href="#linear-gradient"/><linearGradient id="linear-gradient-3" x1="747.01" y1="7.71" x2="747.01" y2="7.71" xlink:href="#linear-gradient"/></defs><title>tag new sell</title><path class="cls-1" d="M126.8,351h58.5s-11.8-11.8-28.8-10.8S126.8,351,126.8,351Z" transform="translate(-126.8 -335.4)"/><path class="cls-1" d="M897.2,351H838.7s11.8-11.8,28.8-10.8S897.2,351,897.2,351Z" transform="translate(-126.8 -335.4)"/><path class="cls-2" d="M855.7,335.4H168.3c-24.5,0-41.5,15.6-41.5,15.6,69.7-39.7,78.1,81.6,128.1,81.6H769.1c50,0,58.4-121.3,128.1-81.6C897.2,351,880.2,335.4,855.7,335.4Z" transform="translate(-126.8 -335.4)"/><polygon class="cls-3" points="23.3 7.7 23.3 7.7 23.3 7.7 23.3 7.7"/><polygon class="cls-4" points="747 7.7 747 7.7 747 7.7 747 7.7"/><path class="cls-5" d="M254.9,432.6H769.1c43,0,55.2-89.4,101.9-89.6a38.8,38.8,0,0,0-9.6,1.1,44.8,44.8,0,0,0-11.6,5.2c-7,4.7-12.9,11-18.1,17.6-10.4,13.2-18.7,28-28.8,41.1-5,6.5-10.5,12.7-17.2,17.1a30.5,30.5,0,0,1-10.7,4.5,27.6,27.6,0,0,1-5.7.6H763l-50.2-.5c-66.9-.7-133.9-.8-200.8-.9s-133.9.2-200.8.9l-50.2.5h-6.3a27.6,27.6,0,0,1-5.7-.6,31,31,0,0,1-10.8-4.5c-6.6-4.4-12.1-10.6-17.1-17.1-10.2-13.1-18.4-27.9-28.8-41.1-5.2-6.6-11.1-12.9-18.1-17.6a44.8,44.8,0,0,0-11.6-5.2A38.8,38.8,0,0,0,153,343C199.7,343.2,211.9,432.6,254.9,432.6Z" transform="translate(-126.8 -335.4)"/><rect class="cls-6" x="221" y="33" width="11.9" height="6.13"/><path class="cls-6" d="M364.7,384.6a3.3,3.3,0,0,1-.4,1.5c-.2.3-.7.5-1.5.5h-18a2.2,2.2,0,0,1-1.5-.4,2.8,2.8,0,0,1-.3-1.6v-6.4h-6.1v7a7.2,7.2,0,0,0,1.9,5.1,5.8,5.8,0,0,0,4.7,2.3h20.6a6.4,6.4,0,0,0,4.9-2.3,8,8,0,0,0,1.7-5.1v-7h-6Z" transform="translate(-126.8 -335.4)"/><path class="cls-6" d="M388.8,383.8v1.4a3.2,3.2,0,0,0-.1.8,1.6,1.6,0,0,1-1.5.6h-4.7l-.7-.3c-.3-.2-.4-1-.4-2.4V365.6h-6.1v19.9c0,4.7,2.9,7.1,8.7,7.1h3.5a7.7,7.7,0,0,0,5.4-1.9,6.7,6.7,0,0,0,2-5.2V365.6h-6.1Z" transform="translate(-126.8 -335.4)"/><path class="cls-6" d="M487.3,374.9a7.2,7.2,0,0,0-5.6,2.5,9.2,9.2,0,0,0-2.2,6.2v1.1c0,1-.2,1.6-.7,1.8h-4.5l-1.3-.3,2.8-1.6c0-4.1-1-6.7-2.9-8a13,13,0,0,0-3-1.3,10.1,10.1,0,0,0-3.1-.5H455.9l.8,5.4h9c1.6,0,2.6.3,3.1.9a4.4,4.4,0,0,1,.5.9,34.8,34.8,0,0,1-7.8,3.9,42.1,42.1,0,0,1-9.2.7h-2.1a11.3,11.3,0,0,0,.3-2.5,9.6,9.6,0,0,0-1.2-4.6,8.6,8.6,0,0,0-2.7-3.3,6.7,6.7,0,0,0-3.9-1.3,8.9,8.9,0,0,0-6.3,3,25.3,25.3,0,0,0-5.3,8.6,2,2,0,0,1-1.9-2.2v-6.1h-6v6.6c0,.9-.1,1.4-.5,1.6h-6.1c0-4.5-.8-7.6-2.3-9.3a7.6,7.6,0,0,0-6-2.5,8.8,8.8,0,0,0-5.7,1.8c-1.5,1.2-2.2,3.7-2.2,7.5s.9,5.6,2.8,6.7a13.6,13.6,0,0,0,7.1,1.7,6.1,6.1,0,0,1-1.9,2.8,5.7,5.7,0,0,1-3.6,1.1h-6.1l.9,5.9h5.9a10.7,10.7,0,0,0,7.5-2.9,8.9,8.9,0,0,0,3.4-6.9h5.5a6.8,6.8,0,0,0,5.2-2.3c1.2,1.5,3,2.3,5.6,2.3H458l2-.2,1.4-.3a14.5,14.5,0,0,0,3.1-1.1l2-1.1,2.2-1.2a4.6,4.6,0,0,0,3.6,3.5,15.2,15.2,0,0,0,3.7.4h1.9l1.6-.3a3.3,3.3,0,0,0,2.3-2,6.3,6.3,0,0,0,2.4,1.8,7.5,7.5,0,0,0,3.1.6,7.3,7.3,0,0,0,5.9-2.6,9.1,9.1,0,0,0,2.2-6.3,8.6,8.6,0,0,0-2.2-6.1A7.4,7.4,0,0,0,487.3,374.9Zm-76.8,11.7h-2a2.6,2.6,0,0,1-1.2-.5,2.9,2.9,0,0,1-.8-2.1,4.7,4.7,0,0,1,.4-2.3,1.7,1.7,0,0,1,1.4-.7,3.8,3.8,0,0,1,1.8.8,4.1,4.1,0,0,1,.4,1.9Zm33.7-.6a1.2,1.2,0,0,1-1,.6h-5.8a30.8,30.8,0,0,1,2.6-4c1.1-1.2,1.9-1.8,2.7-1.8l.9.4a2.3,2.3,0,0,1,.7,1.1,2.9,2.9,0,0,0,.3,1v1A3.9,3.9,0,0,1,444.2,386Zm45.2-.1a2.5,2.5,0,0,1-2,.9,2.8,2.8,0,0,1-2-.8,1.5,1.5,0,0,1-.6-1.1,4.9,4.9,0,0,1-.1-1.2,3.2,3.2,0,0,1,.7-2.2,2.4,2.4,0,0,1,2-.9c1.9.1,2.8,1.1,2.8,3.1A3.3,3.3,0,0,1,489.4,385.9Z" transform="translate(-126.8 -335.4)"/><rect class="cls-6" x="388.8" y="39.8" width="6.1" height="6.13"/><path class="cls-6" d="M545.6,384.6a2.8,2.8,0,0,1-.3,1.5,2.5,2.5,0,0,1-1.6.5h-7a7.8,7.8,0,0,1-2.8-.3,1.8,1.8,0,0,1-.6-1.4v-6.7h-6v13.5a4.1,4.1,0,0,1-1.6,3.3,5.2,5.2,0,0,1-3.6,1.4h-4.9a5.2,5.2,0,0,1-3.6-1.4,4,4,0,0,1-1.5-3.3v-9.6h-6v9.1a11.5,11.5,0,0,0,2.8,7.8,9.7,9.7,0,0,0,7.5,3.3h6a10.7,10.7,0,0,0,7.7-2.9,9.8,9.8,0,0,0,3.2-7.4l1,.5H545a6.5,6.5,0,0,0,4.9-2.3,7.6,7.6,0,0,0,1.8-5.1v-7h-6.1Z" transform="translate(-126.8 -335.4)"/><rect class="cls-6" x="410.8" y="60.8" width="11.9" height="6.13"/><path class="cls-6" d="M584.7,384.6a2.8,2.8,0,0,1-.3,1.5,2.5,2.5,0,0,1-1.5.5H576a8.1,8.1,0,0,1-2.8-.3,1.8,1.8,0,0,1-.6-1.4v-6.7h-6v13.5A4.1,4.1,0,0,1,565,395a5.2,5.2,0,0,1-3.5,1.4h-6.6l.8,5.9h6a10.8,10.8,0,0,0,7.3-2.7,11.9,11.9,0,0,0,2.6-3.4,8.7,8.7,0,0,0,1-4.2l1,.5h10.6a5.9,5.9,0,0,0,4.7-2.4,7.5,7.5,0,0,0,1.8-5v-7h-6Z" transform="translate(-126.8 -335.4)"/><polygon class="cls-6" points="452 33 452 39.1 458 39.1 463.9 39.1 463.9 33 458 33 452 33"/><path class="cls-6" d="M628.8,384.6a4.9,4.9,0,0,1-.2,1.5,2.5,2.5,0,0,1-1.6.5h-8.1a2.9,2.9,0,0,1-1.4-.3,17,17,0,0,1-2-1.9l-12.4-13.2-4.1,4.2,9.4,10c.1.2.2.3.2.5s-.3.7-1,.7H594l.9,6h14.8l.8-.3.6-.2a4.7,4.7,0,0,0,2.1-1.5l1.3,1.1,1.4.8a11.5,11.5,0,0,0,3,.3h9.4a6.2,6.2,0,0,0,4.8-2.3,7.2,7.2,0,0,0,1.9-5.1v-7h-6.2Z" transform="translate(-126.8 -335.4)"/><rect class="cls-6" x="494" y="60.8" width="11.9" height="6.13"/><path class="cls-6" d="M678.1,374.8H667.3l.7,5.4h9a4.5,4.5,0,0,1,2.7.6,2,2,0,0,1,.9,1.2l-2.7,1.6-4.1,2c-1.5.6-4.8,1-9.8,1a2.8,2.8,0,0,1-1.3-.3,17.1,17.1,0,0,1-2.1-1.9l-12.3-13.2-4.1,4.2,9.4,10c.1.2.2.3.2.5s-.4.7-1,.7H639.2l.9,6h14.8l.8-.3.5-.2a4.6,4.6,0,0,0,2.2-1.5l1.3,1.1a7,7,0,0,0,1.4.8l2.5.2h4.9l3.3-.3a23.3,23.3,0,0,0,6.4-2.6l8.9-5C687.1,378.1,684.1,374.8,678.1,374.8Z" transform="translate(-126.8 -335.4)"/><rect class="cls-6" x="542.7" y="60.9" width="5.9" height="6.13"/></svg>