<svg xmlns="http://www.w3.org/2000/svg" xmlns:xlink="http://www.w3.org/1999/xlink" viewBox="0 0 469 800"><defs><style>.cls-1{fill:none;}.cls-2{isolation:isolate;}.cls-3{clip-path:url(#clip-path);}.cls-4{fill:#00ac89;}.cls-12,.cls-5{opacity:0.5;mix-blend-mode:multiply;}.cls-5{fill:url(#linear-gradient);}.cls-6{fill:#0d3649;}.cls-7{fill:#002a40;}.cls-8{fill:#00425e;}.cls-9{fill:#001e30;}.cls-10{fill:url(#linear-gradient-2);}.cls-11{fill:url(#linear-gradient-3);}.cls-12{fill:url(#linear-gradient-4);}.cls-13{fill:url(#linear-gradient-5);}</style><clipPath id="clip-path"><rect class="cls-1" x="0.34" y="0.09" width="468.49" height="800"/></clipPath><linearGradient id="linear-gradient" x1="-28.42" y1="574.58" x2="156.86" y2="707.35" gradientUnits="userSpaceOnUse"><stop offset="0.37" stop-color="#001e30"/><stop offset="0.38" stop-color="#092637"/><stop offset="0.4" stop-color="#374f5d"/><stop offset="0.43" stop-color="#627580"/><stop offset="0.46" stop-color="#88969e"/><stop offset="0.5" stop-color="#a8b3b9"/><stop offset="0.53" stop-color="#c4cbcf"/><stop offset="0.57" stop-color="#dadee1"/><stop offset="0.62" stop-color="#ebedee"/><stop offset="0.68" stop-color="#f6f7f8"/><stop offset="0.77" stop-color="#fdfdfd"/><stop offset="1" stop-color="#fff"/></linearGradient><linearGradient id="linear-gradient-2" x1="89.34" y1="2481.88" x2="89.34" y2="2366.43" gradientTransform="matrix(1, 0, 0, -1, 0, 3166.52)" gradientUnits="userSpaceOnUse"><stop offset="0" stop-color="#001e30"/><stop offset="0.04" stop-color="#002539"/><stop offset="0.15" stop-color="#00324a"/><stop offset="0.29" stop-color="#003b55"/><stop offset="0.47" stop-color="#00415c"/><stop offset="1" stop-color="#00425e"/></linearGradient><linearGradient id="linear-gradient-3" x1="-0.12" y1="3059.15" x2="-0.12" y2="2943.7" xlink:href="#linear-gradient-2"/><linearGradient id="linear-gradient-4" x1="61" y1="459.12" x2="246.28" y2="591.89" xlink:href="#linear-gradient"/><linearGradient id="linear-gradient-5" x1="89.35" y1="-1484.32" x2="268.24" y2="-1484.32" gradientTransform="matrix(1, 0, 0, -1, 0, -857.41)" gradientUnits="userSpaceOnUse"><stop offset="0.03" stop-color="#001e30"/><stop offset="0.06" stop-color="#00333d"/><stop offset="0.13" stop-color="#005351"/><stop offset="0.19" stop-color="#006f63"/><stop offset="0.27" stop-color="#008671"/><stop offset="0.36" stop-color="#00977c"/><stop offset="0.47" stop-color="#00a383"/><stop offset="0.62" stop-color="#0a8"/><stop offset="1" stop-color="#00ac89"/></linearGradient></defs><title>Untitled-1</title><g class="cls-2"><g id="Layer_1" data-name="Layer 1"><g class="cls-3"><polygon class="cls-4" points="464.92 663.7 360.98 663.7 360.97 663.71 412.94 730.78 412.95 730.78 464.93 663.71 464.92 663.7"/><polygon class="cls-1" points="203.77 652.4 268.24 569.19 268.23 569.18 268.24 569.19 203.77 652.4"/><polygon class="cls-1" points="178.77 684.63 162.34 663.42 178.77 684.63 178.77 684.63"/><polygon class="cls-4" points="-89.59 569.19 -0.15 684.63 -0.13 684.63 89.32 569.19 89.32 569.19 89.32 569.19 89.31 569.18 -89.58 569.18 -89.59 569.19"/><polygon class="cls-5" points="178.78 684.63 162.35 663.42 89.34 569.19 -0.11 684.63 178.78 684.63"/><polygon class="cls-6" points="89.31 800.08 89.31 800.09 89.34 800.09 268.2 800.09 178.77 684.67 178.76 684.65 89.31 800.08"/><polygon class="cls-4" points="89.31 800.09 89.31 800.09 89.31 800.08 -0.14 684.65 -89.58 800.09 89.28 800.09 89.31 800.09"/><polygon class="cls-7" points="-0.14 222.82 -0.13 222.82 89.32 107.38 89.32 107.37 -89.59 107.37 -89.59 107.38 -0.14 222.82"/><polygon class="cls-8" points="203.77 652.4 178.79 684.63 357.69 684.63 268.24 569.19 203.77 652.4"/><polygon class="cls-8" points="268.24 569.19 268.23 569.18 178.78 453.74 89.33 569.18 89.33 569.19 89.33 569.18 89.31 569.18 89.32 569.19 89.32 569.19 89.32 569.19 162.34 663.42 178.77 684.63 178.77 684.63 -0.13 684.63 -0.15 684.63 -89.59 569.19 -179.04 684.63 -179.07 684.63 -179.06 684.65 -268.5 800.09 -89.61 800.09 -89.61 800.09 -89.59 800.1 -89.58 800.09 -0.14 684.65 89.31 800.08 178.76 684.65 178.77 684.67 178.78 684.65 178.79 684.63 178.79 684.63 178.79 684.63 203.77 652.4 268.24 569.19"/><polygon class="cls-6" points="89.31 569.18 89.33 569.18 178.78 453.74 178.78 453.73 -0.13 453.73 -0.14 453.74 89.31 569.18"/><polygon class="cls-8" points="136.61 81.55 136.61 81.55 87.8 18.56 38.99 81.55 136.61 81.55"/><polygon class="cls-9" points="89.33 107.37 89.32 107.37 89.32 107.38 89.33 107.37"/><polygon class="cls-9" points="357.7 684.65 357.71 684.63 357.69 684.63 357.7 684.65"/><polygon class="cls-9" points="268.25 569.18 268.23 569.18 268.24 569.19 268.25 569.18"/><polygon class="cls-9" points="178.79 453.73 178.78 453.73 178.78 453.74 178.79 453.73"/><polygon class="cls-9" points="89.32 338.28 -89.59 338.28 -89.59 338.28 -89.59 338.28 -89.6 338.28 -89.6 338.28 -89.59 338.29 -0.14 453.73 -0.14 453.74 -0.13 453.73 89.32 338.29 89.33 338.28 89.31 338.28 89.31 338.28 89.32 338.28"/><polygon class="cls-4" points="-0.18 222.83 -89.62 338.26 -89.63 338.27 -89.61 338.27 89.28 338.27 -0.18 222.83"/><polygon class="cls-10" points="89.33 800.09 89.36 800.09 178.79 684.67 178.77 684.65 178.78 684.64 -0.11 684.64 -0.12 684.65 89.33 800.09"/><polygon class="cls-11" points="-0.12 222.83 -0.1 222.83 89.34 107.41 89.32 107.39 89.33 107.38 -89.56 107.38 -89.57 107.39 -0.12 222.83"/><polygon class="cls-12" points="268.21 569.17 251.77 547.96 178.76 453.74 89.31 569.17 268.21 569.17"/><polygon class="cls-13" points="243.27 601.42 268.24 569.19 89.35 569.19 178.79 684.63 243.27 601.42"/><polygon class="cls-4" points="116.86 325.53 63.16 394.82 63.16 394.83 63.17 394.83 170.56 394.83 116.86 325.53"/></g></g></g></svg>